<?xml version="1.0" encoding="UTF-8"?>
<svg xmlns="http://www.w3.org/2000/svg" style="stroke-dasharray:none; shape-rendering:auto; font-family:'Arial'; text-rendering:auto; fill-opacity:1; color-interpolation:auto; color-rendering:auto; font-size:12; fill:black; stroke:black; image-rendering:auto; stroke-miterlimit:10; stroke-linecap:square; stroke-linejoin:miter; font-style:normal; stroke-width:1; stroke-dashoffset:0; font-weight:normal; stroke-opacity:1;" contentScriptType="text/ecmascript" preserveAspectRatio="xMidYMid meet" zoomAndPan="magnify" version="1.0" contentStyleType="text/css" xml:xlink="http://www.w3.org/1999/xlink" width="1934" height="819"><rect x="10" y="456" width="1919" height="183" ry="0" rx="0" style="stroke:#000000; fill:#D6E0D0" /><g componentSequence="2"><text x="-547" y="16" transform="rotate(270)" text-anchor="middle" style="font-weight:bold;font-size:13px;stroke:none; fill:#434343"><tspan dy="14" x="-547">Aprovador definido</tspan></text></g><rect x="10" y="168" width="1920" height="145" ry="0" rx="0" style="stroke:#000000; fill:#ADC9AC" /><g componentSequence="4"><text x="-240" y="16" transform="rotate(270)" text-anchor="middle" style="font-weight:bold;font-size:13px;stroke:none; fill:#434343"><tspan dy="14" x="-240">Gestor</tspan></text></g><rect x="10" y="638" width="1919" height="181" ry="0" rx="0" style="stroke:#000000; fill:#C9C3AC" /><g componentSequence="3"><text x="-728" y="16" transform="rotate(270)" text-anchor="middle" style="font-weight:bold;font-size:13px;stroke:none; fill:#434343"><tspan dy="14" x="-728">Diretor</tspan></text></g><rect x="10" y="0" width="1919" height="169" ry="0" rx="0" style="stroke:#000000; fill:#82B0B7" /><g componentSequence="1"><text x="-84" y="16" transform="rotate(270)" text-anchor="middle" style="font-weight:bold;font-size:13px;stroke:none; fill:#434343"><tspan dy="14" x="-84">Solicitante</tspan></text></g><rect x="10" y="312" width="1919" height="145" ry="0" rx="0" style="stroke:#000000; fill:#D0DAAE" /><g componentSequence="5"><text x="-384" y="16" transform="rotate(270)" text-anchor="middle" style="font-weight:bold;font-size:13px;stroke:none; fill:#434343"><tspan dy="14" x="-384">Jurídico</tspan></text></g><g sequence="4"><ellipse cx="92" cy="35" rx="17" ry="17" stroke-width="1" style="fill:url(#linearGradient66FF6696FF96B6FFB6_749769309);" stroke="336633" /></g><g sequence="5"><rect x="40" y="99" width="106" height="53" ry="5" rx="5" style="fill:url(#linearGradientF8FBFEEDF5FCDEEDFAD4E7F8E2E5E9_578255291);" stroke="191970" /></g><g componentSequence="5"><text x="93" y="114" text-anchor="middle" style="font-weight:bold;font-size:13px;stroke:none; fill:#333399"><tspan dy="14" x="93">Abertura</tspan></text></g><g sequence="7"><polygon points=" 193 210 223 180 253 210 223 240 193 210" style="fill:url(#linearGradientFAFBFCFFFFCC_642316589);" stroke="000000" /></g><g componentSequence="7"><text x="223" y="250" text-anchor="middle" style="font-weight:bold;font-size:13px;stroke:none; fill:#333399"><tspan dy="14" x="223">Necessá</tspan><tspan dy="14" x="223">rio</tspan><tspan dy="14" x="223">Apro...</tspan></text></g><g sequence="9"><rect x="324" y="203" width="106" height="65" ry="5" rx="5" style="fill:url(#linearGradientF8FBFEEDF5FCDEEDFAD4E7F8E2E5E9_1665823616);" stroke="191970" /></g><g componentSequence="9"><text x="377" y="218" text-anchor="middle" style="font-weight:bold;font-size:13px;stroke:none; fill:#333399"><tspan dy="14" x="377">Aprovação</tspan><tspan dy="14" x="377">Gestor</tspan></text></g><g sequence="11"><rect x="653" y="348" width="106" height="65" ry="5" rx="5" style="fill:url(#linearGradientF8FBFEEDF5FCDEEDFAD4E7F8E2E5E9_1262495694);" stroke="191970" /></g><g componentSequence="11"><text x="706" y="363" text-anchor="middle" style="font-weight:bold;font-size:13px;stroke:none; fill:#333399"><tspan dy="14" x="706">Processamento</tspan><tspan dy="14" x="706">- Jurídico</tspan></text></g><g sequence="13"><polygon points=" 347 104 377 74 407 104 377 134 347 104" style="fill:url(#linearGradientFAFBFCFFFFCC_1382233532);" stroke="000000" /></g><g componentSequence="13"><text x="377" y="144" text-anchor="middle" style="font-weight:bold;font-size:13px;stroke:none; fill:#333399"><tspan dy="14" x="377">Reabert</tspan><tspan dy="14" x="377">ura</tspan></text></g><g sequence="15"><ellipse cx="376" cy="35" rx="17" ry="17" stroke-width="3" style="fill:url(#linearGradientFF6666FF9696FFB6B6_864239436);" stroke="993333" /></g><g sequence="15"><polygon points=" 367 31 372 26 377 31 382 26 387 31 382 36 387 41 382 46 377 41 372 46 367 41 372 36" style="stroke:none; fill:#993333" /></g><g sequence="17"><rect x="500" y="96" width="106" height="53" ry="5" rx="5" style="fill:url(#linearGradientF8FBFEEDF5FCDEEDFAD4E7F8E2E5E9_56986831);" stroke="191970" /></g><g componentSequence="17"><text x="553" y="111" text-anchor="middle" style="font-weight:bold;font-size:13px;stroke:none; fill:#333399"><tspan dy="14" x="553">Reabertura</tspan></text></g><g sequence="19"><polygon points=" 523 217 553 187 583 217 553 247 523 217" style="fill:url(#linearGradientFAFBFCFFFFCC_1230091578);" stroke="000000" /></g><g componentSequence="19"><text x="553" y="257" text-anchor="middle" style="font-weight:bold;font-size:13px;stroke:none; fill:#333399"><tspan dy="14" x="553">Aprovad</tspan><tspan dy="14" x="553">o?</tspan></text></g><g sequence="22"><ellipse cx="552" cy="35" rx="17" ry="17" stroke-width="1" style="fill:url(#linearGradientFFFF66FFFF96FFFFB6_39106425);" stroke="999900" /></g><g sequence="22"><polygon points=" 538 28 553 28 553 21 568 36 553 51 553 44 538 44" style="stroke:#999900; fill:none" /></g><g sequence="24"><ellipse cx="610" cy="465" rx="17" ry="17" stroke-width="1" style="fill:url(#linearGradientFFFF66FFFF96FFFFB6_679973152);" stroke="999900" /></g><g sequence="24"><polygon points=" 596 458 611 458 611 451 626 466 611 481 611 474 596 474" style="stroke:#999900; fill:none" /></g><g sequence="26"><polygon points=" 823 362 853 332 883 362 853 392 823 362" style="fill:url(#linearGradientFAFBFCFFFFCC_120288011);" stroke="000000" /></g><g componentSequence="26"><text x="853" y="402" text-anchor="middle" style="font-weight:bold;font-size:13px;stroke:none; fill:#333399"><tspan dy="14" x="853">Aprovaç</tspan><tspan dy="14" x="853">ão</tspan></text></g><g sequence="28"><rect x="800" y="554" width="106" height="65" ry="5" rx="5" style="fill:url(#linearGradientF8FBFEEDF5FCDEEDFAD4E7F8E2E5E9_1134030513);" stroke="191970" /></g><g componentSequence="28"><text x="853" y="569" text-anchor="middle" style="font-weight:bold;font-size:13px;stroke:none; fill:#333399"><tspan dy="14" x="853">Aprovação</tspan><tspan dy="14" x="853">Adicional</tspan></text></g><g sequence="30"><polygon points=" 990 568 1020 538 1050 568 1020 598 990 568" style="fill:url(#linearGradientFAFBFCFFFFCC_1692366533);" stroke="000000" /></g><g componentSequence="30"><text x="1020" y="608" text-anchor="middle" style="font-weight:bold;font-size:13px;stroke:none; fill:#333399"><tspan dy="14" x="1020">Aprovad</tspan><tspan dy="14" x="1020">o?</tspan></text></g><g sequence="32"><ellipse cx="1019" cy="485" rx="17" ry="17" stroke-width="1" style="fill:url(#linearGradientFFFF66FFFF96FFFFB6_1883633135);" stroke="999900" /></g><g sequence="32"><polygon points=" 1005 478 1020 478 1020 471 1035 486 1020 501 1020 494 1005 494" style="stroke:none; fill:#999900" /></g><g sequence="34"><ellipse cx="1127" cy="586" rx="17" ry="17" stroke-width="1" style="fill:url(#linearGradientFFFF66FFFF96FFFFB6_749364167);" stroke="999900" /></g><g sequence="34"><polygon points=" 1113 579 1128 579 1128 572 1143 587 1128 602 1128 595 1113 595" style="stroke:none; fill:#999900" /></g><g sequence="38"><rect x="1060" y="90" width="106" height="65" ry="5" rx="5" style="fill:url(#linearGradientF8FBFEEDF5FCDEEDFAD4E7F8E2E5E9_1354031749);" stroke="191970" /></g><g componentSequence="38"><text x="1113" y="105" text-anchor="middle" style="font-weight:bold;font-size:13px;stroke:none; fill:#333399"><tspan dy="14" x="1113">Validação da</tspan><tspan dy="14" x="1113">minuta</tspan></text></g><g sequence="40"><polygon points=" 1240 104 1270 74 1300 104 1270 134 1240 104" style="fill:url(#linearGradientFAFBFCFFFFCC_1338167048);" stroke="000000" /></g><g componentSequence="40"><text x="1270" y="144" text-anchor="middle" style="font-weight:bold;font-size:13px;stroke:none; fill:#333399"><tspan dy="14" x="1270">Aprovaç</tspan><tspan dy="14" x="1270">ão</tspan></text></g><g sequence="42"><ellipse cx="1367" cy="35" rx="17" ry="17" stroke-width="1" style="fill:url(#linearGradientFFFF66FFFF96FFFFB6_276279698);" stroke="999900" /></g><g sequence="42"><polygon points=" 1353 28 1368 28 1368 21 1383 36 1368 51 1368 44 1353 44" style="stroke:none; fill:#999900" /></g><g sequence="44"><polygon points=" 1240 705 1270 675 1300 705 1270 735 1240 705" style="fill:url(#linearGradientFAFBFCFFFFCC_1874611200);" stroke="000000" /></g><g componentSequence="44"><text x="1270" y="745" text-anchor="middle" style="font-weight:bold;font-size:13px;stroke:none; fill:#333399"><tspan dy="14" x="1270">Necessá</tspan><tspan dy="14" x="1270">rio</tspan><tspan dy="14" x="1270">valid...</tspan></text></g><g sequence="46"><rect x="1440" y="691" width="106" height="78" ry="5" rx="5" style="fill:url(#linearGradientF8FBFEEDF5FCDEEDFAD4E7F8E2E5E9_409680824);" stroke="191970" /></g><g componentSequence="46"><text x="1493" y="706" text-anchor="middle" style="font-weight:bold;font-size:13px;stroke:none; fill:#333399"><tspan dy="14" x="1493">Aprovação</tspan><tspan dy="14" x="1493">diretoria</tspan><tspan dy="14" x="1493">Financeira</tspan></text></g><g sequence="48"><ellipse cx="1837" cy="757" rx="17" ry="17" stroke-width="1" style="fill:url(#linearGradientFFFF66FFFF96FFFFB6_1091050802);" stroke="999900" /></g><g sequence="48"><polygon points=" 1823 750 1838 750 1838 743 1853 758 1838 773 1838 766 1823 766" style="stroke:none; fill:#999900" /></g><g sequence="50"><rect x="1560" y="90" width="106" height="65" ry="5" rx="5" style="fill:url(#linearGradientF8FBFEEDF5FCDEEDFAD4E7F8E2E5E9_1826541472);" stroke="191970" /></g><g componentSequence="50"><text x="1613" y="105" text-anchor="middle" style="font-weight:bold;font-size:13px;stroke:none; fill:#333399"><tspan dy="14" x="1613">Conferência do</tspan><tspan dy="14" x="1613">processamento</tspan></text></g><g sequence="52"><polygon points=" 1740 104 1770 74 1800 104 1770 134 1740 104" style="fill:url(#linearGradientFAFBFCFFFFCC_1628394103);" stroke="000000" /></g><g componentSequence="52"><text x="1770" y="144" text-anchor="middle" style="font-weight:bold;font-size:13px;stroke:none; fill:#333399"><tspan dy="14" x="1770">Aprovaç</tspan><tspan dy="14" x="1770">ão</tspan></text></g><g sequence="56"><ellipse cx="1857" cy="122" rx="17" ry="17" stroke-width="1" style="fill:url(#linearGradientFFFF66FFFF96FFFFB6_544740117);" stroke="999900" /></g><g sequence="56"><polygon points=" 1843 115 1858 115 1858 108 1873 123 1858 138 1858 131 1843 131" style="stroke:none; fill:#999900" /></g><g sequence="59"><ellipse cx="1769" cy="35" rx="17" ry="17" stroke-width="3" style="fill:url(#linearGradientFF6666FF9696FFB6B6_563637157);" stroke="993333" /></g><g sequence="61"><ellipse cx="1837" cy="687" rx="17" ry="17" stroke-width="1" style="fill:url(#linearGradientFFFF66FFFF96FFFFB6_1000412153);" stroke="999900" /></g><g sequence="61"><polygon points=" 1823 680 1838 680 1838 673 1853 688 1838 703 1838 696 1823 696" style="stroke:none; fill:#999900" /></g><g sequence="63"><ellipse cx="1527" cy="27" rx="17" ry="17" stroke-width="1" style="fill:url(#linearGradientFFFF66FFFF96FFFFB6_539386384);" stroke="999900" /></g><g sequence="63"><polygon points=" 1513 20 1528 20 1528 13 1543 28 1528 43 1528 36 1513 36" style="stroke:#999900; fill:none" /></g><g sequence="65"><polygon points=" 1620 710 1650 680 1680 710 1650 740 1620 710" style="fill:url(#linearGradientFAFBFCFFFFCC_1084636602);" stroke="000000" /></g><g componentSequence="65"><text x="1650" y="750" text-anchor="middle" style="font-weight:bold;font-size:13px;stroke:none; fill:#333399"><tspan dy="14" x="1650">Exclusiv</tspan><tspan dy="14" x="1650">o</tspan></text></g><g componentSequence="6"><text x="102" y="76" style="font-size:10px;font-weight:none;stroke:none; fill:#333399" text-anchor="left" /></g><g componentSequence="8"><text x="222" y="123" style="font-size:10px;font-weight:none;stroke:none; fill:#333399" text-anchor="left" /></g><g componentSequence="10"><text x="298" y="235" style="font-size:10px;font-weight:none;stroke:none; fill:#333399" text-anchor="left"><tspan dy="14" x="298">Sim</tspan></text></g><g componentSequence="12"><text x="403" y="380" style="font-size:10px;font-weight:none;stroke:none; fill:#333399" text-anchor="left"><tspan dy="14" x="403">Não</tspan></text></g><g componentSequence="14"><text x="267" y="123" style="font-size:10px;font-weight:none;stroke:none; fill:#333399" text-anchor="left" /></g><g componentSequence="16"><text x="386" y="63" style="font-size:10px;font-weight:none;stroke:none; fill:#333399" text-anchor="left" /></g><g componentSequence="18"><text x="463" y="122" style="font-size:10px;font-weight:none;stroke:none; fill:#333399" text-anchor="left" /></g><g componentSequence="20"><text x="486" y="235" style="font-size:10px;font-weight:none;stroke:none; fill:#333399" text-anchor="left" /></g><g componentSequence="21"><text x="565" y="379" style="font-size:10px;font-weight:none;stroke:none; fill:#333399" text-anchor="left"><tspan dy="14" x="565">Aprovado</tspan></text></g><g componentSequence="23"><text x="562" y="74" style="font-size:10px;font-weight:none;stroke:none; fill:#333399" text-anchor="left" /></g><g componentSequence="25"><text x="620" y="393" style="font-size:10px;font-weight:none;stroke:none; fill:#333399" text-anchor="left" /></g><g componentSequence="27"><text x="801" y="380" style="font-size:10px;font-weight:none;stroke:none; fill:#333399" text-anchor="left" /></g><g componentSequence="29"><text x="863" y="491" style="font-size:10px;font-weight:none;stroke:none; fill:#333399" text-anchor="left"><tspan dy="14" x="863">Aprovação Condicional</tspan></text></g><g componentSequence="31"><text x="958" y="586" style="font-size:10px;font-weight:none;stroke:none; fill:#333399" text-anchor="left" /></g><g componentSequence="33"><text x="1029" y="520" style="font-size:10px;font-weight:none;stroke:none; fill:#333399" text-anchor="left"><tspan dy="14" x="1029">Reabertura</tspan></text></g><g componentSequence="35"><text x="1090" y="586" style="font-size:10px;font-weight:none;stroke:none; fill:#333399" text-anchor="left"><tspan dy="14" x="1090">Processamento Jurídico</tspan></text></g><g componentSequence="36"><text x="843" y="123" style="font-size:10px;font-weight:none;stroke:none; fill:#333399" text-anchor="left"><tspan dy="14" x="843">Reprovado</tspan></text></g><g componentSequence="37"><text x="563" y="168" style="font-size:10px;font-weight:none;stroke:none; fill:#333399" text-anchor="left"><tspan dy="14" x="563">Reprovado</tspan></text></g><g componentSequence="39"><text x="863" y="124" style="font-size:10px;font-weight:none;stroke:none; fill:#333399" text-anchor="left"><tspan dy="14" x="863">Aprovado - Validação da minuta</tspan></text></g><g componentSequence="41"><text x="1213" y="122" style="font-size:10px;font-weight:none;stroke:none; fill:#333399" text-anchor="left" /></g><g componentSequence="43"><text x="1301" y="35" style="font-size:10px;font-weight:none;stroke:none; fill:#333399" text-anchor="left"><tspan dy="14" x="1301">Reprovado</tspan></text></g><g componentSequence="45"><text x="1280" y="423" style="font-size:10px;font-weight:none;stroke:none; fill:#333399" text-anchor="left"><tspan dy="14" x="1280">Aprovado</tspan></text></g><g componentSequence="47"><text x="1380" y="730" style="font-size:10px;font-weight:none;stroke:none; fill:#333399" text-anchor="left"><tspan dy="14" x="1380">Sim</tspan></text></g><g componentSequence="51"><text x="1364" y="380" style="font-size:10px;font-weight:none;stroke:none; fill:#333399" text-anchor="left"><tspan dy="14" x="1364">Aprovado</tspan></text></g><g componentSequence="53"><text x="1713" y="122" style="font-size:10px;font-weight:none;stroke:none; fill:#333399" text-anchor="left" /></g><g componentSequence="57"><text x="1830" y="122" style="font-size:10px;font-weight:none;stroke:none; fill:#333399" text-anchor="left"><tspan dy="14" x="1830">Processamento Jurídico</tspan></text></g><g componentSequence="58"><text x="823" y="731" style="font-size:10px;font-weight:none;stroke:none; fill:#333399" text-anchor="left" /></g><g componentSequence="60"><text x="1779" y="63" style="font-size:10px;font-weight:none;stroke:none; fill:#333399" text-anchor="left"><tspan dy="14" x="1779">Aprovado</tspan></text></g><g componentSequence="64"><text x="1619" y="28" style="font-size:10px;font-weight:none;stroke:none; fill:#333399" text-anchor="left" /></g><g componentSequence="66"><text x="1593" y="729" style="font-size:10px;font-weight:none;stroke:none; fill:#333399" text-anchor="left" /></g><g componentSequence="67"><text x="1760" y="744" style="font-size:10px;font-weight:none;stroke:none; fill:#333399" text-anchor="left" /></g><g componentSequence="68"><text x="1760" y="706" style="font-size:10px;font-weight:none;stroke:none; fill:#333399" text-anchor="left" /></g><path style="fill:none; stroke:#000000;stroke-width:1" d="M92.0 52.0 L92.0 98.0" /><polygon style="fill:#000000; stroke:#000000;" points=" 97 88 92 98 87 88 92 90" /><path style="fill:none; stroke:#000000;stroke-width:1" d="M146.0 124.0 L223.0 123.0 L223.0 179.0" /><polygon style="fill:#000000; stroke:#000000;" points=" 228 169 223 179 218 169 223 171" /><path style="fill:none; stroke:#000000;stroke-width:1" d="M253.0 235.0 L323.0 235.0" /><polygon style="fill:#000000; stroke:#000000;" points=" 313 230 323 235 313 240 315 235" /><path style="fill:none; stroke:#000000;stroke-width:1" d="M223.0 290.0 L223.0 380.0 L652.0 380.0" /><polygon style="fill:#000000; stroke:#000000;" points=" 642 375 652 380 642 385 644 380" /><path style="fill:none; stroke:#000000;stroke-width:1" d="M346.0 122.0 L223.0 123.0 L223.0 179.0" /><polygon style="fill:#000000; stroke:#000000;" points=" 228 169 223 179 218 169 223 171" /><path style="fill:none; stroke:#000000;stroke-width:1" d="M430.0 235.0 L522.0 235.0" /><polygon style="fill:#000000; stroke:#000000;" points=" 512 230 522 235 512 240 514 235" /><path style="fill:none; stroke:#000000;stroke-width:1" d="M759.0 380.0 L822.0 380.0" /><polygon style="fill:#000000; stroke:#000000;" points=" 812 375 822 380 812 385 814 380" /><path style="fill:none; stroke:#000000;stroke-width:1" d="M552.0 284.0 L552.0 379.0 L652.0 380.0" /><polygon style="fill:#000000; stroke:#000000;" points=" 642 375 652 380 642 385 644 380" /><path style="fill:none; stroke:#000000;stroke-width:1" d="M610.0 447.0 L610.0 381.0 L652.0 381.0" /><polygon style="fill:#000000; stroke:#000000;" points=" 642 376 652 381 642 386 644 381" /><path style="fill:none; stroke:#000000;stroke-width:1" d="M1239.0 730.0 L705.0 731.0 L705.0 413.0" /><polygon style="fill:#000000; stroke:#000000;" points=" 700 423 705 413 710 423 705 421" /><path style="fill:none; stroke:#000000;stroke-width:1" d="M376.0 73.0 L376.0 52.0" /><polygon style="fill:#000000; stroke:#000000;" points=" 371 62 376 52 381 62 376 60" /><path style="fill:none; stroke:#000000;stroke-width:1" d="M499.0 122.0 L407.0 122.0" /><polygon style="fill:#000000; stroke:#000000;" points=" 417 127 407 122 417 117 415 122" /><path style="fill:none; stroke:#000000;stroke-width:1" d="M552.0 52.0 L552.0 95.0" /><polygon style="fill:#000000; stroke:#000000;" points=" 557 85 552 95 547 85 552 87" /><path style="fill:none; stroke:#000000;stroke-width:1" d="M852.0 331.0 L852.0 123.0 L606.0 122.0" /><polygon style="fill:#000000; stroke:#000000;" points=" 616 127 606 122 616 117 614 122" /><path style="fill:none; stroke:#000000;stroke-width:1" d="M553.0 186.0 L553.0 149.0" /><polygon style="fill:#000000; stroke:#000000;" points=" 548 159 553 149 558 159 553 157" /><path style="fill:none; stroke:#000000;stroke-width:1" d="M853.0 429.0 L853.0 553.0" /><polygon style="fill:#000000; stroke:#000000;" points=" 858 543 853 553 848 543 853 545" /><path style="fill:none; stroke:#000000;stroke-width:1" d="M853.0 331.0 L853.0 122.0 L1059.0 122.0" /><polygon style="fill:#000000; stroke:#000000;" points=" 1049 117 1059 122 1049 127 1051 122" /><path style="fill:none; stroke:#000000;stroke-width:1" d="M883.0 380.0 L1234.0 380.0 L1252.0 380.0 L1271.0 364.0 L1292.0 380.0 L1612.0 380.0 L1612.0 155.0" /><polygon style="fill:#000000; stroke:#000000;" points=" 1607 165 1612 155 1617 165 1612 163" /><path style="fill:none; stroke:#000000;stroke-width:1" d="M906.0 586.0 L989.0 586.0" /><polygon style="fill:#000000; stroke:#000000;" points=" 979 581 989 586 979 591 981 586" /><path style="fill:none; stroke:#000000;stroke-width:1" d="M1019.0 537.0 L1019.0 502.0" /><polygon style="fill:#000000; stroke:#000000;" points=" 1014 512 1019 502 1024 512 1019 510" /><path style="fill:none; stroke:#000000;stroke-width:1" d="M1050.0 586.0 L1109.0 586.0" /><polygon style="fill:#000000; stroke:#000000;" points=" 1099 581 1109 586 1099 591 1101 586" /><path style="fill:none; stroke:#000000;stroke-width:1" d="M1166.0 122.0 L1239.0 122.0" /><polygon style="fill:#000000; stroke:#000000;" points=" 1229 117 1239 122 1229 127 1231 122" /><path style="fill:none; stroke:#000000;stroke-width:1" d="M1270.0 73.0 L1270.0 35.0 L1349.0 35.0" /><polygon style="fill:#000000; stroke:#000000;" points=" 1339 30 1349 35 1339 40 1341 35" /><path style="fill:none; stroke:#000000;stroke-width:1" d="M1270.0 171.0 L1270.0 674.0" /><polygon style="fill:#000000; stroke:#000000;" points=" 1275 664 1270 674 1265 664 1270 666" /><path style="fill:none; stroke:#000000;stroke-width:1" d="M1300.0 730.0 L1439.0 730.0" /><polygon style="fill:#000000; stroke:#000000;" points=" 1429 725 1439 730 1429 735 1431 730" /><path style="fill:none; stroke:#000000;stroke-width:1" d="M1546.0 729.0 L1619.0 728.0" /><polygon style="fill:#000000; stroke:#000000;" points=" 1609 723 1619 728 1609 733 1611 728" /><path style="fill:none; stroke:#000000;stroke-width:1" d="M1680.0 733.0 L1820.0 755.0" /><polygon style="fill:#000000; stroke:#000000;" points=" 1811 749 1820 755 1809 758 1812 754" /><path style="fill:none; stroke:#000000;stroke-width:1" d="M1666.0 122.0 L1739.0 122.0" /><polygon style="fill:#000000; stroke:#000000;" points=" 1729 117 1739 122 1729 127 1731 122" /><path style="fill:none; stroke:#000000;stroke-width:1" d="M1544.0 27.0 L1611.0 28.0 L1612.0 89.0" /><polygon style="fill:#000000; stroke:#000000;" points=" 1617 79 1612 89 1607 79 1612 81" /><path style="fill:none; stroke:#000000;stroke-width:1" d="M1800.0 122.0 L1839.0 122.0" /><polygon style="fill:#000000; stroke:#000000;" points=" 1829 117 1839 122 1829 127 1831 122" /><path style="fill:none; stroke:#000000;stroke-width:1" d="M1769.0 73.0 L1769.0 52.0" /><polygon style="fill:#000000; stroke:#000000;" points=" 1764 62 1769 52 1774 62 1769 60" /><path style="fill:none; stroke:#000000;stroke-width:1" d="M1680.0 721.0 L1820.0 690.0" /><polygon style="fill:#000000; stroke:#000000;" points=" 1809 687 1820 690 1811 697 1812 692" /><defs><linearGradient xmlns:xlink="http://www.w3.org/1999/xlink" xlink:href="#linearGradient66FF6696FF96B6FFB6" id="linearGradient66FF6696FF96B6FFB6_749769309" x1="0" y1="18.0" x2="0" y2="53.0" gradientUnits="userSpaceOnUse" xlink:type="simple" xlink:actuate="onLoad" xlink:show="other" /><linearGradient id="linearGradient66FF6696FF96B6FFB6"><stop style="stop-color:#66FF66;stop-opacity:1;" offset="0.0" id="stop66FF66" /><stop style="stop-color:#96FF96;stop-opacity:1;" offset="0.5" id="stop96FF96" /><stop style="stop-color:#B6FFB6;stop-opacity:1;" offset="1.0" id="stopB6FFB6" /></linearGradient><linearGradient xmlns:xlink="http://www.w3.org/1999/xlink" xlink:href="#linearGradientF8FBFEEDF5FCDEEDFAD4E7F8E2E5E9" id="linearGradientF8FBFEEDF5FCDEEDFAD4E7F8E2E5E9_578255291" x1="0" y1="99.0" x2="0" y2="205.0" gradientUnits="userSpaceOnUse" xlink:type="simple" xlink:actuate="onLoad" xlink:show="other" /><linearGradient id="linearGradientF8FBFEEDF5FCDEEDFAD4E7F8E2E5E9"><stop style="stop-color:#F8FBFE;stop-opacity:1;" offset="0.0" id="stopF8FBFE" /><stop style="stop-color:#EDF5FC;stop-opacity:1;" offset="0.25" id="stopEDF5FC" /><stop style="stop-color:#DEEDFA;stop-opacity:1;" offset="0.5" id="stopDEEDFA" /><stop style="stop-color:#D4E7F8;stop-opacity:1;" offset="0.75" id="stopD4E7F8" /><stop style="stop-color:#E2E5E9;stop-opacity:1;" offset="1.0" id="stopE2E5E9" /></linearGradient><linearGradient xmlns:xlink="http://www.w3.org/1999/xlink" xlink:href="#linearGradientFAFBFCFFFFCC" id="linearGradientFAFBFCFFFFCC_642316589" x1="0" y1="180.0" x2="0" y2="240.0" gradientUnits="userSpaceOnUse" xlink:type="simple" xlink:actuate="onLoad" xlink:show="other" /><linearGradient id="linearGradientFAFBFCFFFFCC"><stop style="stop-color:#FAFBFC;stop-opacity:1;" offset="0.0" id="stopFAFBFC" /><stop style="stop-color:#FFFFCC;stop-opacity:1;" offset="1.0" id="stopFFFFCC" /></linearGradient><linearGradient xmlns:xlink="http://www.w3.org/1999/xlink" xlink:href="#linearGradientF8FBFEEDF5FCDEEDFAD4E7F8E2E5E9" id="linearGradientF8FBFEEDF5FCDEEDFAD4E7F8E2E5E9_1665823616" x1="0" y1="203.0" x2="0" y2="309.0" gradientUnits="userSpaceOnUse" xlink:type="simple" xlink:actuate="onLoad" xlink:show="other" /><linearGradient xmlns:xlink="http://www.w3.org/1999/xlink" xlink:href="#linearGradientF8FBFEEDF5FCDEEDFAD4E7F8E2E5E9" id="linearGradientF8FBFEEDF5FCDEEDFAD4E7F8E2E5E9_1262495694" x1="0" y1="348.0" x2="0" y2="454.0" gradientUnits="userSpaceOnUse" xlink:type="simple" xlink:actuate="onLoad" xlink:show="other" /><linearGradient xmlns:xlink="http://www.w3.org/1999/xlink" xlink:href="#linearGradientFAFBFCFFFFCC" id="linearGradientFAFBFCFFFFCC_1382233532" x1="0" y1="74.0" x2="0" y2="134.0" gradientUnits="userSpaceOnUse" xlink:type="simple" xlink:actuate="onLoad" xlink:show="other" /><linearGradient xmlns:xlink="http://www.w3.org/1999/xlink" xlink:href="#linearGradientFF6666FF9696FFB6B6" id="linearGradientFF6666FF9696FFB6B6_864239436" x1="0" y1="18.0" x2="0" y2="53.0" gradientUnits="userSpaceOnUse" xlink:type="simple" xlink:actuate="onLoad" xlink:show="other" /><linearGradient id="linearGradientFF6666FF9696FFB6B6"><stop style="stop-color:#FF6666;stop-opacity:1;" offset="0.0" id="stopFF6666" /><stop style="stop-color:#FF9696;stop-opacity:1;" offset="0.5" id="stopFF9696" /><stop style="stop-color:#FFB6B6;stop-opacity:1;" offset="1.0" id="stopFFB6B6" /></linearGradient><linearGradient xmlns:xlink="http://www.w3.org/1999/xlink" xlink:href="#linearGradientF8FBFEEDF5FCDEEDFAD4E7F8E2E5E9" id="linearGradientF8FBFEEDF5FCDEEDFAD4E7F8E2E5E9_56986831" x1="0" y1="96.0" x2="0" y2="202.0" gradientUnits="userSpaceOnUse" xlink:type="simple" xlink:actuate="onLoad" xlink:show="other" /><linearGradient xmlns:xlink="http://www.w3.org/1999/xlink" xlink:href="#linearGradientFAFBFCFFFFCC" id="linearGradientFAFBFCFFFFCC_1230091578" x1="0" y1="187.0" x2="0" y2="247.0" gradientUnits="userSpaceOnUse" xlink:type="simple" xlink:actuate="onLoad" xlink:show="other" /><linearGradient xmlns:xlink="http://www.w3.org/1999/xlink" xlink:href="#linearGradientFFFF66FFFF96FFFFB6" id="linearGradientFFFF66FFFF96FFFFB6_39106425" x1="0" y1="18.0" x2="0" y2="53.0" gradientUnits="userSpaceOnUse" xlink:type="simple" xlink:actuate="onLoad" xlink:show="other" /><linearGradient id="linearGradientFFFF66FFFF96FFFFB6"><stop style="stop-color:#FFFF66;stop-opacity:1;" offset="0.0" id="stopFFFF66" /><stop style="stop-color:#FFFF96;stop-opacity:1;" offset="0.5" id="stopFFFF96" /><stop style="stop-color:#FFFFB6;stop-opacity:1;" offset="1.0" id="stopFFFFB6" /></linearGradient><linearGradient xmlns:xlink="http://www.w3.org/1999/xlink" xlink:href="#linearGradientFFFF66FFFF96FFFFB6" id="linearGradientFFFF66FFFF96FFFFB6_679973152" x1="0" y1="448.0" x2="0" y2="483.0" gradientUnits="userSpaceOnUse" xlink:type="simple" xlink:actuate="onLoad" xlink:show="other" /><linearGradient xmlns:xlink="http://www.w3.org/1999/xlink" xlink:href="#linearGradientFAFBFCFFFFCC" id="linearGradientFAFBFCFFFFCC_120288011" x1="0" y1="332.0" x2="0" y2="392.0" gradientUnits="userSpaceOnUse" xlink:type="simple" xlink:actuate="onLoad" xlink:show="other" /><linearGradient xmlns:xlink="http://www.w3.org/1999/xlink" xlink:href="#linearGradientF8FBFEEDF5FCDEEDFAD4E7F8E2E5E9" id="linearGradientF8FBFEEDF5FCDEEDFAD4E7F8E2E5E9_1134030513" x1="0" y1="554.0" x2="0" y2="660.0" gradientUnits="userSpaceOnUse" xlink:type="simple" xlink:actuate="onLoad" xlink:show="other" /><linearGradient xmlns:xlink="http://www.w3.org/1999/xlink" xlink:href="#linearGradientFAFBFCFFFFCC" id="linearGradientFAFBFCFFFFCC_1692366533" x1="0" y1="538.0" x2="0" y2="598.0" gradientUnits="userSpaceOnUse" xlink:type="simple" xlink:actuate="onLoad" xlink:show="other" /><linearGradient xmlns:xlink="http://www.w3.org/1999/xlink" xlink:href="#linearGradientFFFF66FFFF96FFFFB6" id="linearGradientFFFF66FFFF96FFFFB6_1883633135" x1="0" y1="468.0" x2="0" y2="503.0" gradientUnits="userSpaceOnUse" xlink:type="simple" xlink:actuate="onLoad" xlink:show="other" /><linearGradient xmlns:xlink="http://www.w3.org/1999/xlink" xlink:href="#linearGradientFFFF66FFFF96FFFFB6" id="linearGradientFFFF66FFFF96FFFFB6_749364167" x1="0" y1="569.0" x2="0" y2="604.0" gradientUnits="userSpaceOnUse" xlink:type="simple" xlink:actuate="onLoad" xlink:show="other" /><linearGradient xmlns:xlink="http://www.w3.org/1999/xlink" xlink:href="#linearGradientF8FBFEEDF5FCDEEDFAD4E7F8E2E5E9" id="linearGradientF8FBFEEDF5FCDEEDFAD4E7F8E2E5E9_1354031749" x1="0" y1="90.0" x2="0" y2="196.0" gradientUnits="userSpaceOnUse" xlink:type="simple" xlink:actuate="onLoad" xlink:show="other" /><linearGradient xmlns:xlink="http://www.w3.org/1999/xlink" xlink:href="#linearGradientFAFBFCFFFFCC" id="linearGradientFAFBFCFFFFCC_1338167048" x1="0" y1="74.0" x2="0" y2="134.0" gradientUnits="userSpaceOnUse" xlink:type="simple" xlink:actuate="onLoad" xlink:show="other" /><linearGradient xmlns:xlink="http://www.w3.org/1999/xlink" xlink:href="#linearGradientFFFF66FFFF96FFFFB6" id="linearGradientFFFF66FFFF96FFFFB6_276279698" x1="0" y1="18.0" x2="0" y2="53.0" gradientUnits="userSpaceOnUse" xlink:type="simple" xlink:actuate="onLoad" xlink:show="other" /><linearGradient xmlns:xlink="http://www.w3.org/1999/xlink" xlink:href="#linearGradientFAFBFCFFFFCC" id="linearGradientFAFBFCFFFFCC_1874611200" x1="0" y1="675.0" x2="0" y2="735.0" gradientUnits="userSpaceOnUse" xlink:type="simple" xlink:actuate="onLoad" xlink:show="other" /><linearGradient xmlns:xlink="http://www.w3.org/1999/xlink" xlink:href="#linearGradientF8FBFEEDF5FCDEEDFAD4E7F8E2E5E9" id="linearGradientF8FBFEEDF5FCDEEDFAD4E7F8E2E5E9_409680824" x1="0" y1="691.0" x2="0" y2="797.0" gradientUnits="userSpaceOnUse" xlink:type="simple" xlink:actuate="onLoad" xlink:show="other" /><linearGradient xmlns:xlink="http://www.w3.org/1999/xlink" xlink:href="#linearGradientFFFF66FFFF96FFFFB6" id="linearGradientFFFF66FFFF96FFFFB6_1091050802" x1="0" y1="740.0" x2="0" y2="775.0" gradientUnits="userSpaceOnUse" xlink:type="simple" xlink:actuate="onLoad" xlink:show="other" /><linearGradient xmlns:xlink="http://www.w3.org/1999/xlink" xlink:href="#linearGradientF8FBFEEDF5FCDEEDFAD4E7F8E2E5E9" id="linearGradientF8FBFEEDF5FCDEEDFAD4E7F8E2E5E9_1826541472" x1="0" y1="90.0" x2="0" y2="196.0" gradientUnits="userSpaceOnUse" xlink:type="simple" xlink:actuate="onLoad" xlink:show="other" /><linearGradient xmlns:xlink="http://www.w3.org/1999/xlink" xlink:href="#linearGradientFAFBFCFFFFCC" id="linearGradientFAFBFCFFFFCC_1628394103" x1="0" y1="74.0" x2="0" y2="134.0" gradientUnits="userSpaceOnUse" xlink:type="simple" xlink:actuate="onLoad" xlink:show="other" /><linearGradient xmlns:xlink="http://www.w3.org/1999/xlink" xlink:href="#linearGradientFFFF66FFFF96FFFFB6" id="linearGradientFFFF66FFFF96FFFFB6_544740117" x1="0" y1="105.0" x2="0" y2="140.0" gradientUnits="userSpaceOnUse" xlink:type="simple" xlink:actuate="onLoad" xlink:show="other" /><linearGradient xmlns:xlink="http://www.w3.org/1999/xlink" xlink:href="#linearGradientFF6666FF9696FFB6B6" id="linearGradientFF6666FF9696FFB6B6_563637157" x1="0" y1="18.0" x2="0" y2="53.0" gradientUnits="userSpaceOnUse" xlink:type="simple" xlink:actuate="onLoad" xlink:show="other" /><linearGradient xmlns:xlink="http://www.w3.org/1999/xlink" xlink:href="#linearGradientFFFF66FFFF96FFFFB6" id="linearGradientFFFF66FFFF96FFFFB6_1000412153" x1="0" y1="670.0" x2="0" y2="705.0" gradientUnits="userSpaceOnUse" xlink:type="simple" xlink:actuate="onLoad" xlink:show="other" /><linearGradient xmlns:xlink="http://www.w3.org/1999/xlink" xlink:href="#linearGradientFFFF66FFFF96FFFFB6" id="linearGradientFFFF66FFFF96FFFFB6_539386384" x1="0" y1="10.0" x2="0" y2="45.0" gradientUnits="userSpaceOnUse" xlink:type="simple" xlink:actuate="onLoad" xlink:show="other" /><linearGradient xmlns:xlink="http://www.w3.org/1999/xlink" xlink:href="#linearGradientFAFBFCFFFFCC" id="linearGradientFAFBFCFFFFCC_1084636602" x1="0" y1="680.0" x2="0" y2="740.0" gradientUnits="userSpaceOnUse" xlink:type="simple" xlink:actuate="onLoad" xlink:show="other" /></defs></svg>
