<?xml version="1.0" encoding="UTF-8"?>
<svg xmlns="http://www.w3.org/2000/svg" style="stroke-dasharray:none; shape-rendering:auto; font-family:'Arial'; text-rendering:auto; fill-opacity:1; color-interpolation:auto; color-rendering:auto; font-size:12; fill:black; stroke:black; image-rendering:auto; stroke-miterlimit:10; stroke-linecap:square; stroke-linejoin:miter; font-style:normal; stroke-width:1; stroke-dashoffset:0; font-weight:normal; stroke-opacity:1;" contentScriptType="text/ecmascript" preserveAspectRatio="xMidYMid meet" zoomAndPan="magnify" version="1.0" contentStyleType="text/css" xml:xlink="http://www.w3.org/1999/xlink" width="1311" height="451"><rect x="0" y="198" width="1311" height="253" ry="0" rx="0" style="stroke:#000000; fill:#ADC9AC" /><g componentSequence="1"><text x="-324" y="6" transform="rotate(270)" text-anchor="middle" style="font-weight:bold;font-size:13px;stroke:none; fill:#434343"><tspan dy="14" x="-324">SwimLane</tspan></text></g><rect x="0" y="35" width="1311" height="166" ry="0" rx="0" style="stroke:#000000; fill:#82B0B7" /><g componentSequence="2"><text x="-118" y="6" transform="rotate(270)" text-anchor="middle" style="font-weight:bold;font-size:13px;stroke:none; fill:#434343"><tspan dy="14" x="-118">SwimLane</tspan></text></g><g sequence="1"><ellipse cx="122" cy="104" rx="17" ry="17" stroke-width="1" style="fill:url(#linearGradient66FF6696FF96B6FFB6_1991167152);" stroke="336633" /></g><g sequence="3"><rect x="70" y="236" width="106" height="65" ry="5" rx="5" style="fill:url(#linearGradientF8FBFEEDF5FCDEEDFAD4E7F8E2E5E9_2020162581);" stroke="191970" /></g><g componentSequence="3"><text x="123" y="251" text-anchor="middle" style="font-weight:bold;font-size:13px;stroke:none; fill:#333399"><tspan dy="14" x="123">Avaliação do</tspan><tspan dy="14" x="123">Gestor</tspan></text></g><g sequence="4"><rect x="384" y="63" width="106" height="78" ry="5" rx="5" style="fill:url(#linearGradientF8FBFEEDF5FCDEEDFAD4E7F8E2E5E9_2086053824);" stroke="191970" /></g><g componentSequence="4"><text x="437" y="78" text-anchor="middle" style="font-weight:bold;font-size:13px;stroke:none; fill:#333399"><tspan dy="14" x="437">Parecer da</tspan><tspan dy="14" x="437">Consultoria de</tspan><tspan dy="14" x="437">RH</tspan></text></g><g sequence="5"><rect x="830" y="370" width="106" height="65" ry="5" rx="5" style="fill:url(#linearGradientF8FBFEEDF5FCDEEDFAD4E7F8E2E5E9_961820206);" stroke="191970" /></g><g componentSequence="5"><text x="883" y="385" text-anchor="middle" style="font-weight:bold;font-size:13px;stroke:none; fill:#333399"><tspan dy="14" x="883">2ª Avaliação do</tspan><tspan dy="14" x="883">Gestor</tspan></text></g><g sequence="6"><rect x="830" y="70" width="106" height="78" ry="5" rx="5" style="fill:url(#linearGradientF8FBFEEDF5FCDEEDFAD4E7F8E2E5E9_966764280);" stroke="191970" /></g><g componentSequence="6"><text x="883" y="85" text-anchor="middle" style="font-weight:bold;font-size:13px;stroke:none; fill:#333399"><tspan dy="14" x="883">2ª Avaliação -</tspan><tspan dy="14" x="883">Parecer da</tspan><tspan dy="14" x="883">Consultoria RH</tspan></text></g><g sequence="10"><polygon points=" 407 250 437 220 467 250 437 280 407 250" style="fill:url(#linearGradientFAFBFCFFFFCC_145206346);" stroke="000000" /></g><g componentSequence="10"><text x="437" y="290" text-anchor="middle" style="font-weight:bold;font-size:13px;stroke:none; fill:#333399"><tspan dy="14" x="437">Aprovaç</tspan><tspan dy="14" x="437">ao</tspan></text></g><g sequence="17"><polygon points=" 1050 250 1080 220 1110 250 1080 280 1050 250" style="fill:url(#linearGradientFAFBFCFFFFCC_1099326009);" stroke="000000" /></g><g componentSequence="17"><text x="1080" y="290" text-anchor="middle" style="font-weight:bold;font-size:13px;stroke:none; fill:#333399"><tspan dy="14" x="1080">Aprovaç</tspan><tspan dy="14" x="1080">ao</tspan></text></g><g sequence="25"><rect x="540" y="218" width="106" height="102" ry="5" rx="5" style="fill:url(#linearGradientF8FBFEEDF5FCDEEDFAD4E7F8E2E5E9_1501284705);" stroke="191970" /></g><g componentSequence="25"><text x="593" y="233" text-anchor="middle" style="font-weight:bold;font-size:13px;stroke:none; fill:#333399"><tspan dy="14" x="593">Tarefa</tspan><tspan dy="14" x="593">automática -</tspan><tspan dy="14" x="593">Aguardando 2º</tspan><tspan dy="14" x="593">Avaliação –</tspan><tspan dy="14" x="593">Prazo 45 dias</tspan></text></g><g sequence="30"><ellipse cx="437" cy="387" rx="17" ry="17" stroke-width="3" style="fill:url(#linearGradientFF6666FF9696FFB6B6_496438480);" stroke="993333" /></g><g sequence="30"><polygon points=" 428 383 433 378 438 383 443 378 448 383 443 388 448 393 443 398 438 393 433 398 428 393 433 388" style="stroke:none; fill:#993333" /></g><g sequence="38"><ellipse cx="207" cy="57" rx="17" ry="17" stroke-width="3" style="fill:url(#linearGradientFF6666FF9696FFB6B6_677852884);" stroke="993333" /></g><g sequence="38"><ellipse cx="207" cy="57" rx="12" ry="12" stroke-width="0.5" style="stroke:none; fill:#993333" /></g><g sequence="39"><ellipse cx="1247" cy="135" rx="17" ry="17" stroke-width="3" style="fill:url(#linearGradientFF6666FF9696FFB6B6_1518472779);" stroke="993333" /></g><g sequence="39"><ellipse cx="1247" cy="135" rx="12" ry="12" stroke-width="0.5" style="stroke:none; fill:#993333" /></g><g sequence="40"><ellipse cx="517" cy="377" rx="17" ry="17" stroke-width="3" style="fill:url(#linearGradientFF6666FF9696FFB6B6_1563817147);" stroke="993333" /></g><g sequence="40"><ellipse cx="517" cy="377" rx="12" ry="12" stroke-width="0.5" style="stroke:none; fill:#993333" /></g><g sequence="41"><polygon points=" 242 140 272 110 302 140 272 170 242 140" style="fill:url(#linearGradientFAFBFCFFFFCC_2019660353);" stroke="000000" /></g><g componentSequence="41"><text x="272" y="180" text-anchor="middle" style="font-weight:bold;font-size:13px;stroke:none; fill:#333399"><tspan dy="14" x="272">Transfer</tspan><tspan dy="14" x="272">ência</tspan></text></g><g sequence="43"><rect x="220" y="230" width="106" height="78" ry="5" rx="5" style="fill:url(#linearGradientF8FBFEEDF5FCDEEDFAD4E7F8E2E5E9_1772214799);" stroke="191970" /></g><g componentSequence="43"><text x="273" y="245" text-anchor="middle" style="font-weight:bold;font-size:13px;stroke:none; fill:#333399"><tspan dy="14" x="273">Avaliação</tspan><tspan dy="14" x="273">Gestor</tspan><tspan dy="14" x="273">transferência</tspan></text></g><g sequence="47"><polygon points=" 853 250 883 220 913 250 883 280 853 250" style="fill:url(#linearGradientFAFBFCFFFFCC_589000998);" stroke="000000" /></g><g componentSequence="47"><text x="883" y="290" text-anchor="middle" style="font-weight:bold;font-size:13px;stroke:none; fill:#333399"><tspan dy="14" x="883">Transfer</tspan><tspan dy="14" x="883">ência</tspan></text></g><g sequence="50"><rect x="660" y="230" width="106" height="78" ry="5" rx="5" style="fill:url(#linearGradientF8FBFEEDF5FCDEEDFAD4E7F8E2E5E9_1375324626);" stroke="191970" /></g><g componentSequence="50"><text x="713" y="245" text-anchor="middle" style="font-weight:bold;font-size:13px;stroke:none; fill:#333399"><tspan dy="14" x="713">2ª Avaliação do</tspan><tspan dy="14" x="713">Gestor</tspan><tspan dy="14" x="713">transferência</tspan></text></g><rect x="280" y="370" width="105" height="55" ry="5" rx="5" style="stroke:none; fill:#FFFFE0" /><g componentSequence="32"><text x="290" y="383" text-anchor="left" style="font-weight:bold;font-size:13px;stroke:none; fill:#000000"><tspan dy="14" x="290">Cancelamento</tspan></text></g><path style="fill:none; stroke-width:1; stroke:#000000;" d="M300.0 370.0 L280.0 370.0 L280.0 425.0 L300.0 425.0" /><g componentSequence="11"><text x="447" y="180" style="font-size:10px;font-weight:none;stroke:none; fill:#333399" text-anchor="left" /></g><g componentSequence="15"><text x="288" y="346" style="font-size:10px;font-weight:none;stroke:none; fill:#333399" text-anchor="left" /></g><g componentSequence="18"><text x="1072" y="108" style="font-size:10px;font-weight:none;stroke:none; fill:#333399" text-anchor="left" /></g><g componentSequence="20"><text x="1247" y="267" style="font-size:10px;font-weight:none;stroke:none; fill:#333399" text-anchor="left" /></g><g componentSequence="21"><text x="1059" y="401" style="font-size:10px;font-weight:none;stroke:none; fill:#333399" text-anchor="left" /></g><g componentSequence="26"><text x="513" y="268" style="font-size:10px;font-weight:none;stroke:none; fill:#333399" text-anchor="left" /></g><g componentSequence="27"><text x="690" y="389" style="font-size:10px;font-weight:none;stroke:none; fill:#333399" text-anchor="left" /></g><g componentSequence="28"><text x="680" y="401" style="font-size:10px;font-weight:none;stroke:none; fill:#333399" text-anchor="left" /></g><g componentSequence="29"><text x="132" y="179" style="font-size:10px;font-weight:none;stroke:none; fill:#333399" text-anchor="left" /></g><g componentSequence="31"><text x="447" y="343" style="font-size:10px;font-weight:none;stroke:none; fill:#333399" text-anchor="left" /></g><g componentSequence="35"><text x="496" y="334" style="font-size:10px;font-weight:none;stroke:none; fill:#333399" text-anchor="left" /></g><g componentSequence="37"><text x="175" y="81" style="font-size:10px;font-weight:none;stroke:none; fill:#333399" text-anchor="left" /></g><g componentSequence="42"><text x="155" y="158" style="font-size:10px;font-weight:none;stroke:none; fill:#333399" text-anchor="left" /></g><g componentSequence="44"><text x="282" y="218" style="font-size:10px;font-weight:none;stroke:none; fill:#333399" text-anchor="left" /></g><g componentSequence="45"><text x="337" y="100" style="font-size:10px;font-weight:none;stroke:none; fill:#333399" text-anchor="left" /></g><g componentSequence="46"><text x="365" y="185" style="font-size:10px;font-weight:none;stroke:none; fill:#333399" text-anchor="left" /></g><g componentSequence="48"><text x="893" y="343" style="font-size:10px;font-weight:none;stroke:none; fill:#333399" text-anchor="left" /></g><g componentSequence="49"><text x="893" y="184" style="font-size:10px;font-weight:none;stroke:none; fill:#333399" text-anchor="left" /></g><g componentSequence="51"><text x="819" y="268" style="font-size:10px;font-weight:none;stroke:none; fill:#333399" text-anchor="left" /></g><g componentSequence="52"><text x="722" y="110" style="font-size:10px;font-weight:none;stroke:none; fill:#333399" text-anchor="left" /></g><g componentSequence="55"><text x="899" y="354" style="font-size:10px;font-weight:none;stroke:none; fill:#333399" text-anchor="left" /></g><g componentSequence="56"><text x="376" y="268" style="font-size:10px;font-weight:none;stroke:none; fill:#333399" text-anchor="left" /></g><g componentSequence="33"><text x="412" y="391" style="font-size:10px;font-weight:none;stroke:none; fill:#333399" text-anchor="left" /></g><path style="fill:none; stroke:#000000;stroke-width:1" d="M122.0 121.0 L122.0 235.0" /><polygon style="fill:#000000; stroke:#000000;" points=" 127 225 122 235 117 225 122 227" /><path style="fill:none; stroke:#009600;stroke-width:1" d="M137.0 96.0 L192.0 65.0" /><polygon style="fill:#009600; stroke:#009600;" points=" 181 66 192 65 186 74 185 69" /><path style="fill:none; stroke:#000000;stroke-width:1" d="M124.0 235.0 L126.0 158.0 L241.0 158.0" /><polygon style="fill:#000000; stroke:#000000;" points=" 231 153 241 158 231 163 233 158" /><path style="fill:none; stroke:#000000;stroke-width:1" d="M406.0 293.0 L340.0 346.0 L193.0 346.0 L152.0 301.0" /><polygon style="fill:#000000; stroke:#000000;" points=" 155 312 152 301 162 305 157 307" /><path style="fill:none; stroke:#000000;stroke-width:1" d="M437.0 141.0 L437.0 219.0" /><polygon style="fill:#000000; stroke:#000000;" points=" 442 209 437 219 432 209 437 211" /><path style="fill:none; stroke:#000000;stroke-width:1" d="M280.0 109.0 L281.0 100.0 L383.0 101.0" /><polygon style="fill:#000000; stroke:#000000;" points=" 373 96 383 101 373 106 375 101" /><path style="fill:none; stroke:#000000;stroke-width:1" d="M312.0 229.0 L398.0 141.0" /><polygon style="fill:#000000; stroke:#000000;" points=" 387 145 398 141 395 152 392 147" /><path style="fill:none; stroke:#000000;stroke-width:1" d="M883.0 369.0 L883.0 317.0" /><polygon style="fill:#000000; stroke:#000000;" points=" 878 327 883 317 888 327 883 325" /><path style="fill:none; stroke:#000000;stroke-width:1" d="M1079.0 317.0 L1079.0 401.0 L936.0 402.0" /><polygon style="fill:#000000; stroke:#000000;" points=" 946 407 936 402 946 397 944 402" /><path style="fill:none; stroke:#009600;stroke-width:1" d="M593.0 320.0 L593.0 383.0 L829.0 398.0" /><polygon style="fill:#009600; stroke:#009600;" points=" 819 392 829 398 819 402 821 397" /><path style="fill:none; stroke:#000000;stroke-width:1" d="M592.0 320.0 L592.0 401.0 L829.0 402.0" /><polygon style="fill:#000000; stroke:#000000;" points=" 819 397 829 402 819 407 821 402" /><path style="fill:none; stroke:#000000;stroke-width:1" d="M936.0 108.0 L940.0 108.0 L1076.0 108.0 L1078.0 219.0" /><polygon style="fill:#000000; stroke:#000000;" points=" 1083 209 1078 219 1073 209 1078 211" /><path style="fill:none; stroke:#000000;stroke-width:1" d="M883.0 219.0 L883.0 148.0" /><polygon style="fill:#000000; stroke:#000000;" points=" 878 158 883 148 888 158 883 156" /><path style="fill:none; stroke:#000000;stroke-width:1" d="M712.0 229.0 L712.0 108.0 L829.0 108.0" /><polygon style="fill:#000000; stroke:#000000;" points=" 819 103 829 108 819 113 821 108" /><path style="fill:none; stroke:#000000;stroke-width:1" d="M467.0 268.0 L539.0 268.0" /><polygon style="fill:#000000; stroke:#000000;" points=" 529 263 539 268 529 273 531 268" /><path style="fill:none; stroke:#000000;stroke-width:1" d="M437.0 317.0 L437.0 369.0" /><polygon style="fill:#000000; stroke:#000000;" points=" 442 359 437 369 432 359 437 361" /><path style="fill:none; stroke:#000000;stroke-width:1" d="M467.0 309.0 L507.0 363.0" /><polygon style="fill:#000000; stroke:#000000;" points=" 505 352 507 363 497 358 502 357" /><path style="fill:none; stroke:#000000;stroke-width:1" d="M406.0 268.0 L326.0 268.0" /><polygon style="fill:#000000; stroke:#000000;" points=" 336 273 326 268 336 263 334 268" /><path style="fill:none; stroke:#000000;stroke-width:1" d="M1110.0 268.0 L1249.0 267.0 L1247.0 152.0" /><polygon style="fill:#000000; stroke:#000000;" points=" 1242 162 1247 152 1252 162 1247 160" /><path style="fill:none; stroke:#000000;stroke-width:1" d="M1076.0 317.0 L1074.0 354.0 L713.0 354.0 L713.0 308.0" /><polygon style="fill:#000000; stroke:#000000;" points=" 708 318 713 308 718 318 713 316" /><path style="fill:none; stroke:#000000;stroke-dasharray:2" d="M385.0 392.0 L420.0 388.0" /><path style="fill:none; stroke:#000000;stroke-width:1" d="M272.0 207.0 L272.0 229.0" /><polygon style="fill:#000000; stroke:#000000;" points=" 277 219 272 229 267 219 272 221" /><path style="fill:none; stroke:#000000;stroke-width:1" d="M852.0 268.0 L766.0 268.0" /><polygon style="fill:#000000; stroke:#000000;" points=" 776 273 766 268 776 263 774 268" /><defs><linearGradient xmlns:xlink="http://www.w3.org/1999/xlink" xlink:href="#linearGradient66FF6696FF96B6FFB6" id="linearGradient66FF6696FF96B6FFB6_1991167152" x1="0" y1="87.0" x2="0" y2="122.0" gradientUnits="userSpaceOnUse" xlink:type="simple" xlink:actuate="onLoad" xlink:show="other" /><linearGradient id="linearGradient66FF6696FF96B6FFB6"><stop style="stop-color:#66FF66;stop-opacity:1;" offset="0.0" id="stop66FF66" /><stop style="stop-color:#96FF96;stop-opacity:1;" offset="0.5" id="stop96FF96" /><stop style="stop-color:#B6FFB6;stop-opacity:1;" offset="1.0" id="stopB6FFB6" /></linearGradient><linearGradient xmlns:xlink="http://www.w3.org/1999/xlink" xlink:href="#linearGradientF8FBFEEDF5FCDEEDFAD4E7F8E2E5E9" id="linearGradientF8FBFEEDF5FCDEEDFAD4E7F8E2E5E9_2020162581" x1="0" y1="236.0" x2="0" y2="342.0" gradientUnits="userSpaceOnUse" xlink:type="simple" xlink:actuate="onLoad" xlink:show="other" /><linearGradient id="linearGradientF8FBFEEDF5FCDEEDFAD4E7F8E2E5E9"><stop style="stop-color:#F8FBFE;stop-opacity:1;" offset="0.0" id="stopF8FBFE" /><stop style="stop-color:#EDF5FC;stop-opacity:1;" offset="0.25" id="stopEDF5FC" /><stop style="stop-color:#DEEDFA;stop-opacity:1;" offset="0.5" id="stopDEEDFA" /><stop style="stop-color:#D4E7F8;stop-opacity:1;" offset="0.75" id="stopD4E7F8" /><stop style="stop-color:#E2E5E9;stop-opacity:1;" offset="1.0" id="stopE2E5E9" /></linearGradient><linearGradient xmlns:xlink="http://www.w3.org/1999/xlink" xlink:href="#linearGradientF8FBFEEDF5FCDEEDFAD4E7F8E2E5E9" id="linearGradientF8FBFEEDF5FCDEEDFAD4E7F8E2E5E9_2086053824" x1="0" y1="63.0" x2="0" y2="169.0" gradientUnits="userSpaceOnUse" xlink:type="simple" xlink:actuate="onLoad" xlink:show="other" /><linearGradient xmlns:xlink="http://www.w3.org/1999/xlink" xlink:href="#linearGradientF8FBFEEDF5FCDEEDFAD4E7F8E2E5E9" id="linearGradientF8FBFEEDF5FCDEEDFAD4E7F8E2E5E9_961820206" x1="0" y1="370.0" x2="0" y2="476.0" gradientUnits="userSpaceOnUse" xlink:type="simple" xlink:actuate="onLoad" xlink:show="other" /><linearGradient xmlns:xlink="http://www.w3.org/1999/xlink" xlink:href="#linearGradientF8FBFEEDF5FCDEEDFAD4E7F8E2E5E9" id="linearGradientF8FBFEEDF5FCDEEDFAD4E7F8E2E5E9_966764280" x1="0" y1="70.0" x2="0" y2="176.0" gradientUnits="userSpaceOnUse" xlink:type="simple" xlink:actuate="onLoad" xlink:show="other" /><linearGradient xmlns:xlink="http://www.w3.org/1999/xlink" xlink:href="#linearGradientFAFBFCFFFFCC" id="linearGradientFAFBFCFFFFCC_145206346" x1="0" y1="220.0" x2="0" y2="280.0" gradientUnits="userSpaceOnUse" xlink:type="simple" xlink:actuate="onLoad" xlink:show="other" /><linearGradient id="linearGradientFAFBFCFFFFCC"><stop style="stop-color:#FAFBFC;stop-opacity:1;" offset="0.0" id="stopFAFBFC" /><stop style="stop-color:#FFFFCC;stop-opacity:1;" offset="1.0" id="stopFFFFCC" /></linearGradient><linearGradient xmlns:xlink="http://www.w3.org/1999/xlink" xlink:href="#linearGradientFAFBFCFFFFCC" id="linearGradientFAFBFCFFFFCC_1099326009" x1="0" y1="220.0" x2="0" y2="280.0" gradientUnits="userSpaceOnUse" xlink:type="simple" xlink:actuate="onLoad" xlink:show="other" /><linearGradient xmlns:xlink="http://www.w3.org/1999/xlink" xlink:href="#linearGradientF8FBFEEDF5FCDEEDFAD4E7F8E2E5E9" id="linearGradientF8FBFEEDF5FCDEEDFAD4E7F8E2E5E9_1501284705" x1="0" y1="218.0" x2="0" y2="324.0" gradientUnits="userSpaceOnUse" xlink:type="simple" xlink:actuate="onLoad" xlink:show="other" /><linearGradient xmlns:xlink="http://www.w3.org/1999/xlink" xlink:href="#linearGradientFF6666FF9696FFB6B6" id="linearGradientFF6666FF9696FFB6B6_496438480" x1="0" y1="370.0" x2="0" y2="405.0" gradientUnits="userSpaceOnUse" xlink:type="simple" xlink:actuate="onLoad" xlink:show="other" /><linearGradient id="linearGradientFF6666FF9696FFB6B6"><stop style="stop-color:#FF6666;stop-opacity:1;" offset="0.0" id="stopFF6666" /><stop style="stop-color:#FF9696;stop-opacity:1;" offset="0.5" id="stopFF9696" /><stop style="stop-color:#FFB6B6;stop-opacity:1;" offset="1.0" id="stopFFB6B6" /></linearGradient><linearGradient xmlns:xlink="http://www.w3.org/1999/xlink" xlink:href="#linearGradientFF6666FF9696FFB6B6" id="linearGradientFF6666FF9696FFB6B6_677852884" x1="0" y1="40.0" x2="0" y2="75.0" gradientUnits="userSpaceOnUse" xlink:type="simple" xlink:actuate="onLoad" xlink:show="other" /><linearGradient xmlns:xlink="http://www.w3.org/1999/xlink" xlink:href="#linearGradientFF6666FF9696FFB6B6" id="linearGradientFF6666FF9696FFB6B6_1518472779" x1="0" y1="118.0" x2="0" y2="153.0" gradientUnits="userSpaceOnUse" xlink:type="simple" xlink:actuate="onLoad" xlink:show="other" /><linearGradient xmlns:xlink="http://www.w3.org/1999/xlink" xlink:href="#linearGradientFF6666FF9696FFB6B6" id="linearGradientFF6666FF9696FFB6B6_1563817147" x1="0" y1="360.0" x2="0" y2="395.0" gradientUnits="userSpaceOnUse" xlink:type="simple" xlink:actuate="onLoad" xlink:show="other" /><linearGradient xmlns:xlink="http://www.w3.org/1999/xlink" xlink:href="#linearGradientFAFBFCFFFFCC" id="linearGradientFAFBFCFFFFCC_2019660353" x1="0" y1="110.0" x2="0" y2="170.0" gradientUnits="userSpaceOnUse" xlink:type="simple" xlink:actuate="onLoad" xlink:show="other" /><linearGradient xmlns:xlink="http://www.w3.org/1999/xlink" xlink:href="#linearGradientF8FBFEEDF5FCDEEDFAD4E7F8E2E5E9" id="linearGradientF8FBFEEDF5FCDEEDFAD4E7F8E2E5E9_1772214799" x1="0" y1="230.0" x2="0" y2="336.0" gradientUnits="userSpaceOnUse" xlink:type="simple" xlink:actuate="onLoad" xlink:show="other" /><linearGradient xmlns:xlink="http://www.w3.org/1999/xlink" xlink:href="#linearGradientFAFBFCFFFFCC" id="linearGradientFAFBFCFFFFCC_589000998" x1="0" y1="220.0" x2="0" y2="280.0" gradientUnits="userSpaceOnUse" xlink:type="simple" xlink:actuate="onLoad" xlink:show="other" /><linearGradient xmlns:xlink="http://www.w3.org/1999/xlink" xlink:href="#linearGradientF8FBFEEDF5FCDEEDFAD4E7F8E2E5E9" id="linearGradientF8FBFEEDF5FCDEEDFAD4E7F8E2E5E9_1375324626" x1="0" y1="230.0" x2="0" y2="336.0" gradientUnits="userSpaceOnUse" xlink:type="simple" xlink:actuate="onLoad" xlink:show="other" /></defs></svg>
