<?xml version="1.0" encoding="UTF-8"?>
<svg xmlns="http://www.w3.org/2000/svg" style="stroke-dasharray:none; shape-rendering:auto; font-family:'Arial'; text-rendering:auto; fill-opacity:1; color-interpolation:auto; color-rendering:auto; font-size:12; fill:black; stroke:black; image-rendering:auto; stroke-miterlimit:10; stroke-linecap:square; stroke-linejoin:miter; font-style:normal; stroke-width:1; stroke-dashoffset:0; font-weight:normal; stroke-opacity:1;" contentScriptType="text/ecmascript" preserveAspectRatio="xMidYMid meet" zoomAndPan="magnify" version="1.0" contentStyleType="text/css" xml:xlink="http://www.w3.org/1999/xlink" width="2101" height="661"><rect x="0" y="3" width="2101" height="658" ry="0" rx="0" style="stroke:#000000; fill:#FFFFFF" /><rect x="30" y="332" width="2071" height="329" ry="0" rx="0" style="stroke:#000000; fill:#D6E0D0" /><g componentSequence="3"><text x="-496" y="37" transform="rotate(270)" text-anchor="middle" style="font-weight:bold;font-size:10px;stroke:none; fill:#434343"><tspan dy="14" x="-496">Protocolo</tspan></text></g><rect x="30" y="3" width="2071" height="329" ry="0" rx="0" style="stroke:#000000; fill:#D0DAAE" /><g componentSequence="2"><text x="-167" y="37" transform="rotate(270)" text-anchor="middle" style="font-weight:bold;font-size:10px;stroke:none; fill:#434343"><tspan dy="14" x="-167">Viajante</tspan></text></g><g componentSequence="1"><text x="-332" y="7" transform="rotate(270)" text-anchor="middle" style="font-weight:bold;font-size:10px;stroke:none; fill:#434343"><tspan dy="14" x="-332">Controle de Viagens</tspan></text></g><g sequence="3"><ellipse cx="217" cy="47" rx="17" ry="17" stroke-width="1" style="fill:url(#linearGradient66FF6696FF96B6FFB6_5740887);" stroke="336633" /></g><g sequence="5"><rect x="350" y="402" width="106" height="70" ry="5" rx="5" style="fill:url(#linearGradientF8FBFEEDF5FCDEEDFAD4E7F8E2E5E9_9465261);" stroke="191970" /></g><g componentSequence="5"><text x="403" y="417" text-anchor="middle" style="font-weight:bold;font-size:10px;stroke:none; fill:#333399"><tspan dy="14" x="403">Validação</tspan><tspan dy="14" x="403">Protocolo</tspan></text></g><g sequence="6"><polygon points=" 190 127 220 97 250 127 220 157 190 127" style="fill:url(#linearGradientFAFBFCFFFFCC_11530791);" stroke="000000" /></g><g componentSequence="6"><text x="220" y="167" text-anchor="middle" style="font-weight:bold;font-size:10px;stroke:none; fill:#333399"><tspan dy="14" x="220">Autoriza</tspan><tspan dy="14" x="220">ção</tspan><tspan dy="14" x="220">Espec...</tspan></text></g><g sequence="10"><polygon points=" 370 539 400 509 430 539 400 569 370 539" style="fill:url(#linearGradientFAFBFCFFFFCC_28141462);" stroke="000000" /></g><g componentSequence="10"><text x="400" y="579" text-anchor="middle" style="font-weight:bold;font-size:10px;stroke:none; fill:#333399"><tspan dy="14" x="400">Aprovaç</tspan><tspan dy="14" x="400">ão</tspan><tspan dy="14" x="400">Espec...</tspan></text></g><g sequence="13"><ellipse cx="527" cy="567" rx="17" ry="17" stroke-width="3" style="fill:url(#linearGradientFF6666FF9696FFB6B6_30984341);" stroke="993333" /></g><g sequence="15"><rect x="610" y="395" width="106" height="84" ry="5" rx="5" style="fill:url(#linearGradientF8FBFEEDF5FCDEEDFAD4E7F8E2E5E9_8142406);" stroke="191970" /></g><g componentSequence="15"><text x="663" y="410" text-anchor="middle" style="font-weight:bold;font-size:10px;stroke:none; fill:#333399"><tspan dy="14" x="663">Emitir Nota de</tspan><tspan dy="14" x="663">Boletim Interno -</tspan><tspan dy="14" x="663">NBI</tspan></text></g><g sequence="17"><rect x="780" y="381" width="106" height="112" ry="5" rx="5" style="fill:url(#linearGradientF8FBFEEDF5FCDEEDFAD4E7F8E2E5E9_31707108);" stroke="191970" /></g><g componentSequence="17"><text x="833" y="396" text-anchor="middle" style="font-weight:bold;font-size:10px;stroke:none; fill:#333399"><tspan dy="14" x="833">Encaminhar Nota</tspan><tspan dy="14" x="833">de Boletim</tspan><tspan dy="14" x="833">Interno para</tspan><tspan dy="14" x="833">Assinatura</tspan></text></g><g sequence="19"><rect x="1210" y="381" width="106" height="112" ry="5" rx="5" style="fill:url(#linearGradientF8FBFEEDF5FCDEEDFAD4E7F8E2E5E9_25336025);" stroke="191970" /></g><g componentSequence="19"><text x="1263" y="396" text-anchor="middle" style="font-weight:bold;font-size:10px;stroke:none; fill:#333399"><tspan dy="14" x="1263">Encaminhar Nota</tspan><tspan dy="14" x="1263">de Boletim</tspan><tspan dy="14" x="1263">Interno para</tspan><tspan dy="14" x="1263">Publicação</tspan></text></g><g sequence="21"><rect x="1350" y="395" width="106" height="84" ry="5" rx="5" style="fill:url(#linearGradientF8FBFEEDF5FCDEEDFAD4E7F8E2E5E9_11234140);" stroke="191970" /></g><g componentSequence="21"><text x="1403" y="410" text-anchor="middle" style="font-weight:bold;font-size:10px;stroke:none; fill:#333399"><tspan dy="14" x="1403">Solicitar</tspan><tspan dy="14" x="1403">Passagens e</tspan><tspan dy="14" x="1403">Diárias</tspan></text></g><g sequence="23"><rect x="1490" y="395" width="106" height="84" ry="5" rx="5" style="fill:url(#linearGradientF8FBFEEDF5FCDEEDFAD4E7F8E2E5E9_32436929);" stroke="191970" /></g><g componentSequence="23"><text x="1543" y="410" text-anchor="middle" style="font-weight:bold;font-size:10px;stroke:none; fill:#333399"><tspan dy="14" x="1543">Encaminhar</tspan><tspan dy="14" x="1543">Voucher por E-</tspan><tspan dy="14" x="1543">mail</tspan></text></g><g sequence="25"><rect x="1540" y="120" width="106" height="70" ry="5" rx="5" style="fill:url(#linearGradientF8FBFEEDF5FCDEEDFAD4E7F8E2E5E9_15171959);" stroke="191970" /></g><g componentSequence="25"><text x="1593" y="135" text-anchor="middle" style="font-weight:bold;font-size:10px;stroke:none; fill:#333399"><tspan dy="14" x="1593">Prestar Contas</tspan><tspan dy="14" x="1593">de Viagem</tspan></text></g><g sequence="27"><rect x="1630" y="388" width="106" height="98" ry="5" rx="5" style="fill:url(#linearGradientF8FBFEEDF5FCDEEDFAD4E7F8E2E5E9_30181346);" stroke="191970" /></g><g componentSequence="27"><text x="1683" y="403" text-anchor="middle" style="font-weight:bold;font-size:10px;stroke:none; fill:#333399"><tspan dy="14" x="1683">Registrar</tspan><tspan dy="14" x="1683">Aprovação da</tspan><tspan dy="14" x="1683">Prestação de</tspan><tspan dy="14" x="1683">Contas</tspan></text></g><g sequence="29"><polygon points=" 1850 409 1880 379 1910 409 1880 439 1850 409" style="fill:url(#linearGradientFAFBFCFFFFCC_11068108);" stroke="000000" /></g><g componentSequence="29"><text x="1880" y="449" text-anchor="middle" style="font-weight:bold;font-size:10px;stroke:none; fill:#333399"><tspan dy="14" x="1880">Prestaçã</tspan><tspan dy="14" x="1880">o de</tspan><tspan dy="14" x="1880">Con...</tspan></text></g><g sequence="32"><ellipse cx="2037" cy="437" rx="17" ry="17" stroke-width="3" style="fill:url(#linearGradientFF6666FF9696FFB6B6_10644898);" stroke="993333" /></g><g sequence="34"><rect x="164" y="525" width="106" height="84" ry="5" rx="5" style="fill:url(#linearGradientF8FBFEEDF5FCDEEDFAD4E7F8E2E5E9_14859256);" stroke="191970" /></g><g componentSequence="34"><text x="217" y="540" text-anchor="middle" style="font-weight:bold;font-size:10px;stroke:none; fill:#333399"><tspan dy="14" x="217">Solicitar</tspan><tspan dy="14" x="217">Autorização</tspan><tspan dy="14" x="217">Especial</tspan></text></g><g sequence="35"><polygon points=" 497 409 527 379 557 409 527 439 497 409" style="fill:url(#linearGradientFAFBFCFFFFCC_25872657);" stroke="000000" /></g><g componentSequence="35"><text x="527" y="449" text-anchor="middle" style="font-weight:bold;font-size:10px;stroke:none; fill:#333399"><tspan dy="14" x="527">PPD</tspan><tspan dy="14" x="527">Aprovad</tspan><tspan dy="14" x="527">o?</tspan></text></g><g sequence="40"><polygon points=" 1097 409 1127 379 1157 409 1127 439 1097 409" style="fill:url(#linearGradientFAFBFCFFFFCC_1700014);" stroke="000000" /></g><g componentSequence="40"><text x="1127" y="449" text-anchor="middle" style="font-weight:bold;font-size:10px;stroke:none; fill:#333399"><tspan dy="14" x="1127">NBI</tspan><tspan dy="14" x="1127">Assinad</tspan><tspan dy="14" x="1127">o?</tspan></text></g><g sequence="41"><ellipse cx="1127" cy="567" rx="17" ry="17" stroke-width="3" style="fill:url(#linearGradientFF6666FF9696FFB6B6_31277618);" stroke="993333" /></g><g sequence="45"><rect x="950" y="409" width="106" height="56" ry="5" rx="5" style="fill:url(#linearGradientF8FBFEEDF5FCDEEDFAD4E7F8E2E5E9_4261258);" stroke="191970" /></g><g componentSequence="45"><text x="1003" y="426" text-anchor="middle" style="font-weight:bold;font-size:10px;stroke:none; fill:#333399"><tspan dy="14" x="1003">Validação NBI</tspan></text></g><g componentSequence="7"><text x="229" y="81" style="font-size:10px;font-weight:none;stroke:none; fill:#333399" text-anchor="left" /></g><g componentSequence="9"><text x="228" y="369" style="font-size:10px;font-weight:none;stroke:none; fill:#333399" text-anchor="left"><tspan dy="14" x="228">Sim</tspan></text></g><g componentSequence="11"><text x="330" y="567" style="font-size:10px;font-weight:none;stroke:none; fill:#333399" text-anchor="left" /></g><g componentSequence="12"><text x="412" y="490" style="font-size:10px;font-weight:none;stroke:none; fill:#333399" text-anchor="left"><tspan dy="14" x="412">Sim</tspan></text></g><g componentSequence="14"><text x="480" y="567" style="font-size:10px;font-weight:none;stroke:none; fill:#333399" text-anchor="left"><tspan dy="14" x="480">Não</tspan></text></g><g componentSequence="18"><text x="758" y="437" style="font-size:10px;font-weight:none;stroke:none; fill:#333399" text-anchor="left" /></g><g componentSequence="22"><text x="1343" y="437" style="font-size:10px;font-weight:none;stroke:none; fill:#333399" text-anchor="left" /></g><g componentSequence="24"><text x="1483" y="437" style="font-size:10px;font-weight:none;stroke:none; fill:#333399" text-anchor="left" /></g><g componentSequence="26"><text x="1578" y="292" style="font-size:10px;font-weight:none;stroke:none; fill:#333399" text-anchor="left" /></g><g componentSequence="28"><text x="1646" y="289" style="font-size:10px;font-weight:none;stroke:none; fill:#333399" text-anchor="left" /></g><g componentSequence="30"><text x="1803" y="437" style="font-size:10px;font-weight:none;stroke:none; fill:#333399" text-anchor="left" /></g><g componentSequence="31"><text x="1885" y="152" style="font-size:10px;font-weight:none;stroke:none; fill:#333399" text-anchor="left"><tspan dy="14" x="1885">Não</tspan></text></g><g componentSequence="33"><text x="1975" y="437" style="font-size:10px;font-weight:none;stroke:none; fill:#333399" text-anchor="left"><tspan dy="14" x="1975">Sim</tspan></text></g><g componentSequence="36"><text x="486" y="437" style="font-size:10px;font-weight:none;stroke:none; fill:#333399" text-anchor="left" /></g><g componentSequence="37"><text x="593" y="437" style="font-size:10px;font-weight:none;stroke:none; fill:#333399" text-anchor="left"><tspan dy="14" x="593">Sim</tspan></text></g><g componentSequence="38"><text x="537" y="522" style="font-size:10px;font-weight:none;stroke:none; fill:#333399" text-anchor="left"><tspan dy="14" x="537">Não</tspan></text></g><g componentSequence="39"><text x="410" y="202" style="font-size:10px;font-weight:none;stroke:none; fill:#333399" text-anchor="left"><tspan dy="14" x="410">Não</tspan></text></g><g componentSequence="43"><text x="1193" y="437" style="font-size:10px;font-weight:none;stroke:none; fill:#333399" text-anchor="left"><tspan dy="14" x="1193">Sim</tspan></text></g><g componentSequence="44"><text x="1137" y="522" style="font-size:10px;font-weight:none;stroke:none; fill:#333399" text-anchor="left"><tspan dy="14" x="1137">Não</tspan></text></g><g componentSequence="46"><text x="928" y="437" style="font-size:10px;font-weight:none;stroke:none; fill:#333399" text-anchor="left" /></g><g componentSequence="47"><text x="1086" y="437" style="font-size:10px;font-weight:none;stroke:none; fill:#333399" text-anchor="left" /></g><path style="fill:none; stroke:#000000;stroke-width:1" d="M217.0 64.0 L218.0 96.0" /><polygon style="fill:#000000; stroke:#000000;" points=" 223 86 218 96 213 86 218 88" /><path style="fill:none; stroke:#000000;stroke-width:1" d="M456.0 437.0 L496.0 437.0" /><polygon style="fill:#000000; stroke:#000000;" points=" 486 432 496 437 486 442 488 437" /><path style="fill:none; stroke:#000000;stroke-width:1" d="M401.0 508.0 L402.0 472.0" /><polygon style="fill:#000000; stroke:#000000;" points=" 397 482 402 472 407 482 402 480" /><path style="fill:none; stroke:#000000;stroke-width:1" d="M250.0 154.0 L400.0 153.0 L402.0 401.0" /><polygon style="fill:#000000; stroke:#000000;" points=" 407 391 402 401 397 391 402 393" /><path style="fill:none; stroke:#000000;stroke-width:1" d="M219.0 213.0 L217.0 524.0" /><polygon style="fill:#000000; stroke:#000000;" points=" 222 514 217 524 212 514 217 516" /><path style="fill:none; stroke:#000000;stroke-width:1" d="M430.0 567.0 L509.0 567.0" /><polygon style="fill:#000000; stroke:#000000;" points=" 499 562 509 567 499 572 501 567" /><path style="fill:none; stroke:#000000;stroke-width:1" d="M270.0 567.0 L369.0 567.0" /><polygon style="fill:#000000; stroke:#000000;" points=" 359 562 369 567 359 572 361 567" /><path style="fill:none; stroke:#000000;stroke-width:1" d="M527.0 495.0 L527.0 549.0" /><polygon style="fill:#000000; stroke:#000000;" points=" 532 539 527 549 522 539 527 541" /><path style="fill:none; stroke:#000000;stroke-width:1" d="M716.0 437.0 L779.0 437.0" /><polygon style="fill:#000000; stroke:#000000;" points=" 769 432 779 437 769 442 771 437" /><path style="fill:none; stroke:#000000;stroke-width:1" d="M557.0 437.0 L609.0 437.0" /><polygon style="fill:#000000; stroke:#000000;" points=" 599 432 609 437 599 442 601 437" /><path style="fill:none; stroke:#000000;stroke-width:1" d="M886.0 437.0 L949.0 437.0" /><polygon style="fill:#000000; stroke:#000000;" points=" 939 432 949 437 939 442 941 437" /><path style="fill:none; stroke:#000000;stroke-width:1" d="M1316.0 437.0 L1349.0 437.0" /><polygon style="fill:#000000; stroke:#000000;" points=" 1339 432 1349 437 1339 442 1341 437" /><path style="fill:none; stroke:#000000;stroke-width:1" d="M1157.0 437.0 L1209.0 437.0" /><polygon style="fill:#000000; stroke:#000000;" points=" 1199 432 1209 437 1199 442 1201 437" /><path style="fill:none; stroke:#000000;stroke-width:1" d="M1456.0 437.0 L1489.0 437.0" /><polygon style="fill:#000000; stroke:#000000;" points=" 1479 432 1489 437 1479 442 1481 437" /><path style="fill:none; stroke:#000000;stroke-width:1" d="M1550.0 394.0 L1586.0 190.0" /><polygon style="fill:#000000; stroke:#000000;" points=" 1579 199 1586 190 1589 201 1585 198" /><path style="fill:none; stroke:#000000;stroke-width:1" d="M1604.0 190.0 L1667.0 387.0" /><polygon style="fill:#000000; stroke:#000000;" points=" 1669 376 1667 387 1659 379 1665 379" /><path style="fill:none; stroke:#000000;stroke-width:1" d="M1879.0 378.0 L1879.0 152.0 L1646.0 154.0" /><polygon style="fill:#000000; stroke:#000000;" points=" 1656 159 1646 154 1656 149 1654 154" /><path style="fill:none; stroke:#000000;stroke-width:1" d="M1736.0 437.0 L1849.0 437.0" /><polygon style="fill:#000000; stroke:#000000;" points=" 1839 432 1849 437 1839 442 1841 437" /><path style="fill:none; stroke:#000000;stroke-width:1" d="M1910.0 437.0 L2019.0 437.0" /><polygon style="fill:#000000; stroke:#000000;" points=" 2009 432 2019 437 2009 442 2011 437" /><path style="fill:none; stroke:#000000;stroke-width:1" d="M1127.0 495.0 L1127.0 549.0" /><polygon style="fill:#000000; stroke:#000000;" points=" 1132 539 1127 549 1122 539 1127 541" /><path style="fill:none; stroke:#000000;stroke-width:1" d="M1056.0 437.0 L1096.0 437.0" /><polygon style="fill:#000000; stroke:#000000;" points=" 1086 432 1096 437 1086 442 1088 437" /><defs><linearGradient xmlns:xlink="http://www.w3.org/1999/xlink" xlink:href="#linearGradient66FF6696FF96B6FFB6" id="linearGradient66FF6696FF96B6FFB6_5740887" x1="0" y1="30.0" x2="0" y2="65.0" gradientUnits="userSpaceOnUse" xlink:type="simple" xlink:actuate="onLoad" xlink:show="other" /><linearGradient id="linearGradient66FF6696FF96B6FFB6"><stop style="stop-color:#66FF66;stop-opacity:1;" offset="0.0" id="stop66FF66" /><stop style="stop-color:#96FF96;stop-opacity:1;" offset="0.5" id="stop96FF96" /><stop style="stop-color:#B6FFB6;stop-opacity:1;" offset="1.0" id="stopB6FFB6" /></linearGradient><linearGradient xmlns:xlink="http://www.w3.org/1999/xlink" xlink:href="#linearGradientF8FBFEEDF5FCDEEDFAD4E7F8E2E5E9" id="linearGradientF8FBFEEDF5FCDEEDFAD4E7F8E2E5E9_9465261" x1="0" y1="402.0" x2="0" y2="508.0" gradientUnits="userSpaceOnUse" xlink:type="simple" xlink:actuate="onLoad" xlink:show="other" /><linearGradient id="linearGradientF8FBFEEDF5FCDEEDFAD4E7F8E2E5E9"><stop style="stop-color:#F8FBFE;stop-opacity:1;" offset="0.0" id="stopF8FBFE" /><stop style="stop-color:#EDF5FC;stop-opacity:1;" offset="0.25" id="stopEDF5FC" /><stop style="stop-color:#DEEDFA;stop-opacity:1;" offset="0.5" id="stopDEEDFA" /><stop style="stop-color:#D4E7F8;stop-opacity:1;" offset="0.75" id="stopD4E7F8" /><stop style="stop-color:#E2E5E9;stop-opacity:1;" offset="1.0" id="stopE2E5E9" /></linearGradient><linearGradient xmlns:xlink="http://www.w3.org/1999/xlink" xlink:href="#linearGradientFAFBFCFFFFCC" id="linearGradientFAFBFCFFFFCC_11530791" x1="0" y1="97.0" x2="0" y2="157.0" gradientUnits="userSpaceOnUse" xlink:type="simple" xlink:actuate="onLoad" xlink:show="other" /><linearGradient id="linearGradientFAFBFCFFFFCC"><stop style="stop-color:#FAFBFC;stop-opacity:1;" offset="0.0" id="stopFAFBFC" /><stop style="stop-color:#FFFFCC;stop-opacity:1;" offset="1.0" id="stopFFFFCC" /></linearGradient><linearGradient xmlns:xlink="http://www.w3.org/1999/xlink" xlink:href="#linearGradientFAFBFCFFFFCC" id="linearGradientFAFBFCFFFFCC_28141462" x1="0" y1="509.0" x2="0" y2="569.0" gradientUnits="userSpaceOnUse" xlink:type="simple" xlink:actuate="onLoad" xlink:show="other" /><linearGradient xmlns:xlink="http://www.w3.org/1999/xlink" xlink:href="#linearGradientFF6666FF9696FFB6B6" id="linearGradientFF6666FF9696FFB6B6_30984341" x1="0" y1="550.0" x2="0" y2="585.0" gradientUnits="userSpaceOnUse" xlink:type="simple" xlink:actuate="onLoad" xlink:show="other" /><linearGradient id="linearGradientFF6666FF9696FFB6B6"><stop style="stop-color:#FF6666;stop-opacity:1;" offset="0.0" id="stopFF6666" /><stop style="stop-color:#FF9696;stop-opacity:1;" offset="0.5" id="stopFF9696" /><stop style="stop-color:#FFB6B6;stop-opacity:1;" offset="1.0" id="stopFFB6B6" /></linearGradient><linearGradient xmlns:xlink="http://www.w3.org/1999/xlink" xlink:href="#linearGradientF8FBFEEDF5FCDEEDFAD4E7F8E2E5E9" id="linearGradientF8FBFEEDF5FCDEEDFAD4E7F8E2E5E9_8142406" x1="0" y1="395.0" x2="0" y2="501.0" gradientUnits="userSpaceOnUse" xlink:type="simple" xlink:actuate="onLoad" xlink:show="other" /><linearGradient xmlns:xlink="http://www.w3.org/1999/xlink" xlink:href="#linearGradientF8FBFEEDF5FCDEEDFAD4E7F8E2E5E9" id="linearGradientF8FBFEEDF5FCDEEDFAD4E7F8E2E5E9_31707108" x1="0" y1="381.0" x2="0" y2="487.0" gradientUnits="userSpaceOnUse" xlink:type="simple" xlink:actuate="onLoad" xlink:show="other" /><linearGradient xmlns:xlink="http://www.w3.org/1999/xlink" xlink:href="#linearGradientF8FBFEEDF5FCDEEDFAD4E7F8E2E5E9" id="linearGradientF8FBFEEDF5FCDEEDFAD4E7F8E2E5E9_25336025" x1="0" y1="381.0" x2="0" y2="487.0" gradientUnits="userSpaceOnUse" xlink:type="simple" xlink:actuate="onLoad" xlink:show="other" /><linearGradient xmlns:xlink="http://www.w3.org/1999/xlink" xlink:href="#linearGradientF8FBFEEDF5FCDEEDFAD4E7F8E2E5E9" id="linearGradientF8FBFEEDF5FCDEEDFAD4E7F8E2E5E9_11234140" x1="0" y1="395.0" x2="0" y2="501.0" gradientUnits="userSpaceOnUse" xlink:type="simple" xlink:actuate="onLoad" xlink:show="other" /><linearGradient xmlns:xlink="http://www.w3.org/1999/xlink" xlink:href="#linearGradientF8FBFEEDF5FCDEEDFAD4E7F8E2E5E9" id="linearGradientF8FBFEEDF5FCDEEDFAD4E7F8E2E5E9_32436929" x1="0" y1="395.0" x2="0" y2="501.0" gradientUnits="userSpaceOnUse" xlink:type="simple" xlink:actuate="onLoad" xlink:show="other" /><linearGradient xmlns:xlink="http://www.w3.org/1999/xlink" xlink:href="#linearGradientF8FBFEEDF5FCDEEDFAD4E7F8E2E5E9" id="linearGradientF8FBFEEDF5FCDEEDFAD4E7F8E2E5E9_15171959" x1="0" y1="120.0" x2="0" y2="226.0" gradientUnits="userSpaceOnUse" xlink:type="simple" xlink:actuate="onLoad" xlink:show="other" /><linearGradient xmlns:xlink="http://www.w3.org/1999/xlink" xlink:href="#linearGradientF8FBFEEDF5FCDEEDFAD4E7F8E2E5E9" id="linearGradientF8FBFEEDF5FCDEEDFAD4E7F8E2E5E9_30181346" x1="0" y1="388.0" x2="0" y2="494.0" gradientUnits="userSpaceOnUse" xlink:type="simple" xlink:actuate="onLoad" xlink:show="other" /><linearGradient xmlns:xlink="http://www.w3.org/1999/xlink" xlink:href="#linearGradientFAFBFCFFFFCC" id="linearGradientFAFBFCFFFFCC_11068108" x1="0" y1="379.0" x2="0" y2="439.0" gradientUnits="userSpaceOnUse" xlink:type="simple" xlink:actuate="onLoad" xlink:show="other" /><linearGradient xmlns:xlink="http://www.w3.org/1999/xlink" xlink:href="#linearGradientFF6666FF9696FFB6B6" id="linearGradientFF6666FF9696FFB6B6_10644898" x1="0" y1="420.0" x2="0" y2="455.0" gradientUnits="userSpaceOnUse" xlink:type="simple" xlink:actuate="onLoad" xlink:show="other" /><linearGradient xmlns:xlink="http://www.w3.org/1999/xlink" xlink:href="#linearGradientF8FBFEEDF5FCDEEDFAD4E7F8E2E5E9" id="linearGradientF8FBFEEDF5FCDEEDFAD4E7F8E2E5E9_14859256" x1="0" y1="525.0" x2="0" y2="631.0" gradientUnits="userSpaceOnUse" xlink:type="simple" xlink:actuate="onLoad" xlink:show="other" /><linearGradient xmlns:xlink="http://www.w3.org/1999/xlink" xlink:href="#linearGradientFAFBFCFFFFCC" id="linearGradientFAFBFCFFFFCC_25872657" x1="0" y1="379.0" x2="0" y2="439.0" gradientUnits="userSpaceOnUse" xlink:type="simple" xlink:actuate="onLoad" xlink:show="other" /><linearGradient xmlns:xlink="http://www.w3.org/1999/xlink" xlink:href="#linearGradientFAFBFCFFFFCC" id="linearGradientFAFBFCFFFFCC_1700014" x1="0" y1="379.0" x2="0" y2="439.0" gradientUnits="userSpaceOnUse" xlink:type="simple" xlink:actuate="onLoad" xlink:show="other" /><linearGradient xmlns:xlink="http://www.w3.org/1999/xlink" xlink:href="#linearGradientFF6666FF9696FFB6B6" id="linearGradientFF6666FF9696FFB6B6_31277618" x1="0" y1="550.0" x2="0" y2="585.0" gradientUnits="userSpaceOnUse" xlink:type="simple" xlink:actuate="onLoad" xlink:show="other" /><linearGradient xmlns:xlink="http://www.w3.org/1999/xlink" xlink:href="#linearGradientF8FBFEEDF5FCDEEDFAD4E7F8E2E5E9" id="linearGradientF8FBFEEDF5FCDEEDFAD4E7F8E2E5E9_4261258" x1="0" y1="409.0" x2="0" y2="515.0" gradientUnits="userSpaceOnUse" xlink:type="simple" xlink:actuate="onLoad" xlink:show="other" /></defs></svg>
