<?xml version="1.0" encoding="UTF-8"?>
<svg xmlns="http://www.w3.org/2000/svg" style="stroke-dasharray:none; shape-rendering:auto; font-family:'Arial'; text-rendering:auto; fill-opacity:1; color-interpolation:auto; color-rendering:auto; font-size:12; fill:black; stroke:black; image-rendering:auto; stroke-miterlimit:10; stroke-linecap:square; stroke-linejoin:miter; font-style:normal; stroke-width:1; stroke-dashoffset:0; font-weight:normal; stroke-opacity:1;" contentScriptType="text/ecmascript" preserveAspectRatio="xMidYMid meet" zoomAndPan="magnify" version="1.0" contentStyleType="text/css" xml:xlink="http://www.w3.org/1999/xlink" width="905" height="671"><rect x="10" y="10" width="771" height="661" ry="0" rx="0" style="stroke:#000000; fill:#FFFFFF" /><rect x="40" y="340" width="741" height="110" ry="0" rx="0" style="stroke:#000000; fill:#82B0B7" /><g componentSequence="7"><text x="-395" y="46" transform="rotate(270)" text-anchor="middle" style="font-weight:bold;font-size:13px;stroke:none; fill:#434343"><tspan dy="14" x="-395">Mantenedora</tspan></text></g><rect x="40" y="450" width="741" height="110" ry="0" rx="0" style="stroke:#000000; fill:#C9C3AC" /><g componentSequence="6"><text x="-505" y="46" transform="rotate(270)" text-anchor="middle" style="font-weight:bold;font-size:13px;stroke:none; fill:#434343"><tspan dy="14" x="-505">RM Nucleus</tspan></text></g><rect x="40" y="120" width="741" height="110" ry="0" rx="0" style="stroke:#000000; fill:#D6E0D0" /><g componentSequence="5"><text x="-175" y="46" transform="rotate(270)" text-anchor="middle" style="font-weight:bold;font-size:13px;stroke:none; fill:#434343"><tspan dy="14" x="-175">Dir Financeiro</tspan></text></g><rect x="40" y="230" width="741" height="110" ry="0" rx="0" style="stroke:#000000; fill:#D0DAAE" /><g componentSequence="4"><text x="-285" y="240" transform="rotate(270)" text-anchor="middle" style="font-weight:bold;font-size:13px;stroke:none; fill:#434343"><tspan dy="14" x="-285">Aprov.Centro</tspan><tspan dy="14" x="-285">Custo</tspan></text></g><rect x="40" y="560" width="741" height="111" ry="0" rx="0" style="stroke:#000000; fill:#ADC9AC" /><g componentSequence="3"><text x="-615" y="46" transform="rotate(270)" text-anchor="middle" style="font-weight:bold;font-size:13px;stroke:none; fill:#434343"><tspan dy="14" x="-615">Suprimentos</tspan></text></g><rect x="40" y="10" width="741" height="110" ry="0" rx="0" style="stroke:#000000; fill:#0080C0" /><g componentSequence="2"><text x="-65" y="46" transform="rotate(270)" text-anchor="middle" style="font-weight:bold;font-size:13px;stroke:none; fill:#434343"><tspan dy="14" x="-65">Requisitantes</tspan></text></g><g componentSequence="1"><text x="-340" y="16" transform="rotate(270)" text-anchor="middle" style="font-weight:bold;font-size:13px;stroke:none; fill:#434343"><tspan dy="14" x="-340">Requisição Compras</tspan></text></g><g sequence="4"><ellipse cx="197" cy="66" rx="17" ry="17" stroke-width="1" style="fill:url(#linearGradient66FF6696FF96B6FFB6_939804715);" stroke="336633" /></g><g sequence="5"><rect x="90" y="142" width="106" height="65" ry="5" rx="5" style="fill:url(#linearGradientF8FBFEEDF5FCDEEDFAD4E7F8E2E5E9_918794587);" stroke="191970" /></g><g componentSequence="5"><text x="143" y="157" text-anchor="middle" style="font-weight:bold;font-size:13px;stroke:none; fill:#333399"><tspan dy="14" x="143">Analise de</tspan><tspan dy="14" x="143">Necessidade</tspan></text></g><g sequence="15"><polygon points=" 340 163 370 133 400 163 370 193 340 163" style="fill:url(#linearGradientFAFBFCFFFFCC_855384923);" stroke="000000" /></g><g componentSequence="15"><text x="370" y="194" text-anchor="middle" style="font-weight:bold;font-size:13px;stroke:none; fill:#333399"><tspan dy="14" x="370">Aprova?</tspan></text></g><g sequence="20"><rect x="400" y="240" width="106" height="65" ry="5" rx="5" style="fill:url(#linearGradientF8FBFEEDF5FCDEEDFAD4E7F8E2E5E9_2013182816);" stroke="191970" /></g><g componentSequence="20"><text x="453" y="255" text-anchor="middle" style="font-weight:bold;font-size:13px;stroke:none; fill:#333399"><tspan dy="14" x="453">Analise</tspan><tspan dy="14" x="453">Compras</tspan></text></g><g sequence="32"><rect x="460" y="34" width="106" height="65" ry="5" rx="5" style="fill:url(#linearGradientF8FBFEEDF5FCDEEDFAD4E7F8E2E5E9_1839329444);" stroke="191970" /></g><g componentSequence="32"><text x="513" y="49" text-anchor="middle" style="font-weight:bold;font-size:13px;stroke:none; fill:#333399"><tspan dy="14" x="513">Revisão do</tspan><tspan dy="14" x="513">Requisitante</tspan></text></g><g sequence="46"><rect x="130" y="348" width="106" height="65" ry="5" rx="5" style="fill:url(#linearGradientF8FBFEEDF5FCDEEDFAD4E7F8E2E5E9_1178848546);" stroke="191970" /></g><g componentSequence="46"><text x="183" y="363" text-anchor="middle" style="font-weight:bold;font-size:13px;stroke:none; fill:#333399"><tspan dy="14" x="183">CD/PC: Apr</tspan><tspan dy="14" x="183">Financeiro</tspan></text></g><g sequence="63"><ellipse cx="437" cy="627" rx="17" ry="17" stroke-width="3" style="fill:url(#linearGradientFF6666FF9696FFB6B6_368498762);" stroke="993333" /></g><g sequence="69"><rect x="130" y="458" width="106" height="65" ry="5" rx="5" style="fill:url(#linearGradientF8FBFEEDF5FCDEEDFAD4E7F8E2E5E9_399590447);" stroke="191970" /></g><g componentSequence="69"><text x="183" y="473" text-anchor="middle" style="font-weight:bold;font-size:13px;stroke:none; fill:#333399"><tspan dy="14" x="183">CD/PC: Apr</tspan><tspan dy="14" x="183">Mantenedora</tspan></text></g><g sequence="77"><polygon points=" 560 383 590 353 620 383 590 413 560 383" style="fill:url(#linearGradientFAFBFCFFFFCC_1964487329);" stroke="000000" /></g><g componentSequence="77"><text x="590" y="414" text-anchor="middle" style="font-weight:bold;font-size:13px;stroke:none; fill:#333399"><tspan dy="14" x="590">Aprova?</tspan></text></g><g sequence="79"><polygon points=" 690 493 720 463 750 493 720 523 690 493" style="fill:url(#linearGradientFAFBFCFFFFCC_761617404);" stroke="000000" /></g><g componentSequence="79"><text x="720" y="524" text-anchor="middle" style="font-weight:bold;font-size:13px;stroke:none; fill:#333399"><tspan dy="14" x="720">Aprova?</tspan></text></g><g sequence="87"><polygon points=" 660 266 690 236 720 266 690 296 660 266" style="fill:url(#linearGradientFAFBFCFFFFCC_250802834);" stroke="000000" /></g><g componentSequence="87"><text x="690" y="306" text-anchor="middle" style="font-weight:bold;font-size:13px;stroke:none; fill:#333399"><tspan dy="14" x="690">Gestor</tspan><tspan dy="14" x="690">Compra</tspan><tspan dy="14" x="690">s</tspan></text></g><g sequence="90"><ellipse cx="682" cy="625" rx="17" ry="17" stroke-width="3" style="fill:url(#linearGradientFF6666FF9696FFB6B6_329203551);" stroke="993333" /></g><g sequence="92"><polygon points=" 70 48 100 18 130 48 100 78 70 48" style="fill:url(#linearGradientFAFBFCFFFFCC_1532302647);" stroke="000000" /></g><g componentSequence="92"><text x="100" y="79" text-anchor="middle" style="font-weight:bold;font-size:13px;stroke:none; fill:#333399"><tspan dy="14" x="100">Série</tspan></text></g><rect x="800" y="395" width="105" height="199" ry="5" rx="5" style="stroke:none; fill:#FFFFE0" /><g componentSequence="66"><text x="810" y="418" text-anchor="left" style="font-weight:bold;font-size:13px;stroke:none; fill:#000000"><tspan dy="14" x="810">Gera</tspan><tspan dy="14" x="810">Movimentos: 1)</tspan><tspan dy="14" x="810">Atender pelo</tspan><tspan dy="14" x="810">Estoque (WK</tspan><tspan dy="14" x="810">T0002) - 2)</tspan><tspan dy="14" x="810">Gerar</tspan><tspan dy="14" x="810">Solicitação de</tspan><tspan dy="14" x="810">Compras - 3)</tspan><tspan dy="14" x="810">Movimento de</tspan><tspan dy="14" x="810">Faturamento de</tspan><tspan dy="14" x="810">Contrato - 4)</tspan><tspan dy="14" x="810">Movimento de</tspan><tspan dy="14" x="810">Pedido</tspan><tspan dy="14" x="810">Aprovado</tspan></text></g><path style="fill:none; stroke-width:1; stroke:#000000;" d="M820.0 395.0 L800.0 395.0 L800.0 594.0 L820.0 594.0" /><g componentSequence="21"><text x="423" y="225" style="font-size:10px;font-weight:none;stroke:none; fill:#333399" text-anchor="left" /></g><g componentSequence="33"><text x="445" y="126" style="font-size:10px;font-weight:none;stroke:none; fill:#333399" text-anchor="left" /></g><g componentSequence="34"><text x="338" y="120" style="font-size:10px;font-weight:none;stroke:none; fill:#333399" text-anchor="left" /></g><g componentSequence="38"><text x="278" y="175" style="font-size:10px;font-weight:none;stroke:none; fill:#333399" text-anchor="left" /></g><g componentSequence="47"><text x="286" y="278" style="font-size:10px;font-weight:none;stroke:none; fill:#333399" text-anchor="left" /></g><g componentSequence="78"><text x="408" y="388" style="font-size:10px;font-weight:none;stroke:none; fill:#333399" text-anchor="left" /></g><g componentSequence="80"><text x="473" y="498" style="font-size:10px;font-weight:none;stroke:none; fill:#333399" text-anchor="left" /></g><g componentSequence="81"><text x="560" y="226" style="font-size:10px;font-weight:none;stroke:none; fill:#333399" text-anchor="left" /></g><g componentSequence="82"><text x="624" y="281" style="font-size:10px;font-weight:none;stroke:none; fill:#333399" text-anchor="left" /></g><g componentSequence="83"><text x="582" y="569" style="font-size:10px;font-weight:none;stroke:none; fill:#333399" text-anchor="left" /></g><g componentSequence="84"><text x="515" y="524" style="font-size:10px;font-weight:none;stroke:none; fill:#333399" text-anchor="left" /></g><g componentSequence="85"><text x="408" y="440" style="font-size:10px;font-weight:none;stroke:none; fill:#333399" text-anchor="left" /></g><g componentSequence="86"><text x="415" y="414" style="font-size:10px;font-weight:none;stroke:none; fill:#333399" text-anchor="left" /></g><g componentSequence="88"><text x="593" y="282" style="font-size:10px;font-weight:none;stroke:none; fill:#333399" text-anchor="left" /></g><g componentSequence="89"><text x="565" y="470" style="font-size:10px;font-weight:none;stroke:none; fill:#333399" text-anchor="left" /></g><g componentSequence="91"><text x="695" y="477" style="font-size:10px;font-weight:none;stroke:none; fill:#333399" text-anchor="left" /></g><g componentSequence="93"><text x="165" y="64" style="font-size:10px;font-weight:none;stroke:none; fill:#333399" text-anchor="left" /></g><g componentSequence="94"><text x="83" y="269" style="font-size:10px;font-weight:none;stroke:none; fill:#333399" text-anchor="left" /></g><g componentSequence="95"><text x="133" y="122" style="font-size:10px;font-weight:none;stroke:none; fill:#333399" text-anchor="left" /></g><g componentSequence="67"><text x="637" y="566" style="font-size:10px;font-weight:none;stroke:none; fill:#333399" text-anchor="left" /></g><path style="fill:none; stroke:#000000;stroke-width:1" d="M180.0 65.0 L130.0 62.0" /><polygon style="fill:#000000; stroke:#000000;" points=" 140 68 130 62 140 58 138 62" /><path style="fill:none; stroke:#000000;stroke-width:1" d="M196.0 174.0 L339.0 175.0" /><polygon style="fill:#000000; stroke:#000000;" points=" 329 170 339 175 329 180 331 175" /><path style="fill:none; stroke:#000000;stroke-width:1" d="M459.0 82.0 L196.0 158.0" /><polygon style="fill:#000000; stroke:#000000;" points=" 207 160 196 158 204 150 204 156" /><path style="fill:none; stroke:#000000;stroke-width:1" d="M116.0 103.0 L130.0 141.0" /><polygon style="fill:#000000; stroke:#000000;" points=" 131 130 130 141 122 133 127 133" /><path style="fill:none; stroke:#000000;stroke-width:1" d="M400.0 210.0 L424.0 239.0" /><polygon style="fill:#000000; stroke:#000000;" points=" 421 228 424 239 414 234 419 233" /><path style="fill:none; stroke:#000000;stroke-width:1" d="M400.0 152.0 L469.0 99.0" /><polygon style="fill:#000000; stroke:#000000;" points=" 458 101 469 99 464 109 463 104" /><path style="fill:none; stroke:#000000;stroke-width:1" d="M339.0 209.0 L213.0 347.0" /><polygon style="fill:#000000; stroke:#000000;" points=" 223 343 213 347 216 336 218 341" /><path style="fill:none; stroke:#000000;stroke-width:1" d="M376.0 218.0 L435.0 610.0" /><polygon style="fill:#000000; stroke:#000000;" points=" 438 599 435 610 429 601 434 602" /><path style="fill:none; stroke:#000000;stroke-width:1" d="M506.0 276.0 L659.0 288.0" /><polygon style="fill:#000000; stroke:#000000;" points=" 649 282 659 288 649 292 651 287" /><path style="fill:none; stroke:#000000;stroke-width:1" d="M580.0 352.0 L520.0 99.0" /><polygon style="fill:#000000; stroke:#000000;" points=" 517 110 520 99 527 108 522 107" /><path style="fill:none; stroke:#000000;stroke-width:1" d="M699.0 462.0 L528.0 99.0" /><polygon style="fill:#000000; stroke:#000000;" points=" 528 110 528 99 537 106 531 106" /><path style="fill:none; stroke:#000000;stroke-width:1" d="M236.0 382.0 L559.0 394.0" /><polygon style="fill:#000000; stroke:#000000;" points=" 549 389 559 394 549 399 551 394" /><path style="fill:none; stroke:#000000;stroke-width:1" d="M79.0 103.0 L73.0 115.0 L73.0 380.0 L129.0 380.0" /><polygon style="fill:#000000; stroke:#000000;" points=" 119 375 129 380 119 385 121 380" /><path style="fill:none; stroke:#000000;stroke-width:1" d="M689.0 518.0 L453.0 620.0" /><polygon style="fill:#000000; stroke:#000000;" points=" 464 621 453 620 460 611 460 617" /><path style="fill:none; stroke:#000000;stroke-width:1" d="M561.0 438.0 L446.0 612.0" /><polygon style="fill:#000000; stroke:#000000;" points=" 456 606 446 612 447 601 450 605" /><path style="fill:none; stroke:#000000;stroke-width:1" d="M659.0 331.0 L447.0 613.0" /><polygon style="fill:#000000; stroke:#000000;" points=" 457 608 447 613 449 602 452 607" /><path style="fill:none; stroke:#000000;stroke-dasharray:2" d="M799.0 511.0 L454.0 622.0" /><path style="fill:none; stroke:#000000;stroke-width:1" d="M236.0 491.0 L689.0 504.0" /><polygon style="fill:#000000; stroke:#000000;" points=" 679 499 689 504 679 509 681 504" /><path style="fill:none; stroke:#000000;stroke-width:1" d="M559.0 402.0 L236.0 478.0" /><polygon style="fill:#000000; stroke:#000000;" points=" 247 481 236 478 245 471 244 476" /><path style="fill:none; stroke:#000000;stroke-width:1" d="M688.0 346.0 L682.0 608.0" /><polygon style="fill:#000000; stroke:#000000;" points=" 687 598 682 608 677 598 682 600" /><defs><linearGradient xmlns:xlink="http://www.w3.org/1999/xlink" xlink:href="#linearGradient66FF6696FF96B6FFB6" id="linearGradient66FF6696FF96B6FFB6_939804715" x1="0" y1="49.0" x2="0" y2="84.0" gradientUnits="userSpaceOnUse" xlink:type="simple" xlink:actuate="onLoad" xlink:show="other" /><linearGradient id="linearGradient66FF6696FF96B6FFB6"><stop style="stop-color:#66FF66;stop-opacity:1;" offset="0.0" id="stop66FF66" /><stop style="stop-color:#96FF96;stop-opacity:1;" offset="0.5" id="stop96FF96" /><stop style="stop-color:#B6FFB6;stop-opacity:1;" offset="1.0" id="stopB6FFB6" /></linearGradient><linearGradient xmlns:xlink="http://www.w3.org/1999/xlink" xlink:href="#linearGradientF8FBFEEDF5FCDEEDFAD4E7F8E2E5E9" id="linearGradientF8FBFEEDF5FCDEEDFAD4E7F8E2E5E9_918794587" x1="0" y1="142.0" x2="0" y2="248.0" gradientUnits="userSpaceOnUse" xlink:type="simple" xlink:actuate="onLoad" xlink:show="other" /><linearGradient id="linearGradientF8FBFEEDF5FCDEEDFAD4E7F8E2E5E9"><stop style="stop-color:#F8FBFE;stop-opacity:1;" offset="0.0" id="stopF8FBFE" /><stop style="stop-color:#EDF5FC;stop-opacity:1;" offset="0.25" id="stopEDF5FC" /><stop style="stop-color:#DEEDFA;stop-opacity:1;" offset="0.5" id="stopDEEDFA" /><stop style="stop-color:#D4E7F8;stop-opacity:1;" offset="0.75" id="stopD4E7F8" /><stop style="stop-color:#E2E5E9;stop-opacity:1;" offset="1.0" id="stopE2E5E9" /></linearGradient><linearGradient xmlns:xlink="http://www.w3.org/1999/xlink" xlink:href="#linearGradientFAFBFCFFFFCC" id="linearGradientFAFBFCFFFFCC_855384923" x1="0" y1="133.0" x2="0" y2="193.0" gradientUnits="userSpaceOnUse" xlink:type="simple" xlink:actuate="onLoad" xlink:show="other" /><linearGradient id="linearGradientFAFBFCFFFFCC"><stop style="stop-color:#FAFBFC;stop-opacity:1;" offset="0.0" id="stopFAFBFC" /><stop style="stop-color:#FFFFCC;stop-opacity:1;" offset="1.0" id="stopFFFFCC" /></linearGradient><linearGradient xmlns:xlink="http://www.w3.org/1999/xlink" xlink:href="#linearGradientF8FBFEEDF5FCDEEDFAD4E7F8E2E5E9" id="linearGradientF8FBFEEDF5FCDEEDFAD4E7F8E2E5E9_2013182816" x1="0" y1="240.0" x2="0" y2="346.0" gradientUnits="userSpaceOnUse" xlink:type="simple" xlink:actuate="onLoad" xlink:show="other" /><linearGradient xmlns:xlink="http://www.w3.org/1999/xlink" xlink:href="#linearGradientF8FBFEEDF5FCDEEDFAD4E7F8E2E5E9" id="linearGradientF8FBFEEDF5FCDEEDFAD4E7F8E2E5E9_1839329444" x1="0" y1="34.0" x2="0" y2="140.0" gradientUnits="userSpaceOnUse" xlink:type="simple" xlink:actuate="onLoad" xlink:show="other" /><linearGradient xmlns:xlink="http://www.w3.org/1999/xlink" xlink:href="#linearGradientF8FBFEEDF5FCDEEDFAD4E7F8E2E5E9" id="linearGradientF8FBFEEDF5FCDEEDFAD4E7F8E2E5E9_1178848546" x1="0" y1="348.0" x2="0" y2="454.0" gradientUnits="userSpaceOnUse" xlink:type="simple" xlink:actuate="onLoad" xlink:show="other" /><linearGradient xmlns:xlink="http://www.w3.org/1999/xlink" xlink:href="#linearGradientFF6666FF9696FFB6B6" id="linearGradientFF6666FF9696FFB6B6_368498762" x1="0" y1="610.0" x2="0" y2="645.0" gradientUnits="userSpaceOnUse" xlink:type="simple" xlink:actuate="onLoad" xlink:show="other" /><linearGradient id="linearGradientFF6666FF9696FFB6B6"><stop style="stop-color:#FF6666;stop-opacity:1;" offset="0.0" id="stopFF6666" /><stop style="stop-color:#FF9696;stop-opacity:1;" offset="0.5" id="stopFF9696" /><stop style="stop-color:#FFB6B6;stop-opacity:1;" offset="1.0" id="stopFFB6B6" /></linearGradient><linearGradient xmlns:xlink="http://www.w3.org/1999/xlink" xlink:href="#linearGradientF8FBFEEDF5FCDEEDFAD4E7F8E2E5E9" id="linearGradientF8FBFEEDF5FCDEEDFAD4E7F8E2E5E9_399590447" x1="0" y1="458.0" x2="0" y2="564.0" gradientUnits="userSpaceOnUse" xlink:type="simple" xlink:actuate="onLoad" xlink:show="other" /><linearGradient xmlns:xlink="http://www.w3.org/1999/xlink" xlink:href="#linearGradientFAFBFCFFFFCC" id="linearGradientFAFBFCFFFFCC_1964487329" x1="0" y1="353.0" x2="0" y2="413.0" gradientUnits="userSpaceOnUse" xlink:type="simple" xlink:actuate="onLoad" xlink:show="other" /><linearGradient xmlns:xlink="http://www.w3.org/1999/xlink" xlink:href="#linearGradientFAFBFCFFFFCC" id="linearGradientFAFBFCFFFFCC_761617404" x1="0" y1="463.0" x2="0" y2="523.0" gradientUnits="userSpaceOnUse" xlink:type="simple" xlink:actuate="onLoad" xlink:show="other" /><linearGradient xmlns:xlink="http://www.w3.org/1999/xlink" xlink:href="#linearGradientFAFBFCFFFFCC" id="linearGradientFAFBFCFFFFCC_250802834" x1="0" y1="236.0" x2="0" y2="296.0" gradientUnits="userSpaceOnUse" xlink:type="simple" xlink:actuate="onLoad" xlink:show="other" /><linearGradient xmlns:xlink="http://www.w3.org/1999/xlink" xlink:href="#linearGradientFF6666FF9696FFB6B6" id="linearGradientFF6666FF9696FFB6B6_329203551" x1="0" y1="608.0" x2="0" y2="643.0" gradientUnits="userSpaceOnUse" xlink:type="simple" xlink:actuate="onLoad" xlink:show="other" /><linearGradient xmlns:xlink="http://www.w3.org/1999/xlink" xlink:href="#linearGradientFAFBFCFFFFCC" id="linearGradientFAFBFCFFFFCC_1532302647" x1="0" y1="18.0" x2="0" y2="78.0" gradientUnits="userSpaceOnUse" xlink:type="simple" xlink:actuate="onLoad" xlink:show="other" /></defs></svg>
