<?xml version="1.0" encoding="UTF-8"?>
<svg xmlns="http://www.w3.org/2000/svg" style="stroke-dasharray:none; shape-rendering:auto; font-family:'Arial'; text-rendering:auto; fill-opacity:1; color-interpolation:auto; color-rendering:auto; font-size:12; fill:black; stroke:black; image-rendering:auto; stroke-miterlimit:10; stroke-linecap:square; stroke-linejoin:miter; font-style:normal; stroke-width:1; stroke-dashoffset:0; font-weight:normal; stroke-opacity:1;" contentScriptType="text/ecmascript" preserveAspectRatio="xMidYMid meet" zoomAndPan="magnify" version="1.0" contentStyleType="text/css" xml:xlink="http://www.w3.org/1999/xlink" width="701" height="621"><g sequence="1"><ellipse cx="173" cy="77" rx="17" ry="17" stroke-width="1" style="fill:url(#linearGradient66FF6696FF96B6FFB6_24610087);" stroke="336633" /></g><g sequence="2"><rect x="288" y="43" width="106" height="70" ry="5" rx="5" style="fill:url(#linearGradientF8FBFEEDF5FCDEEDFAD4E7F8E2E5E9_28343545);" stroke="191970" /></g><g componentSequence="2"><text x="341" y="67" text-anchor="middle" style="font-weight:bold;font-size:10px;stroke:none; fill:#333399"><tspan dy="14" x="341">Abrir Solicitação</tspan></text></g><g sequence="4"><rect x="288" y="168" width="106" height="70" ry="5" rx="5" style="fill:url(#linearGradientF8FBFEEDF5FCDEEDFAD4E7F8E2E5E9_26209879);" stroke="191970" /></g><g componentSequence="4"><text x="341" y="183" text-anchor="middle" style="font-weight:bold;font-size:10px;stroke:none; fill:#333399"><tspan dy="14" x="341">Análise</tspan><tspan dy="14" x="341">Documentos</tspan></text></g><g sequence="6"><rect x="288" y="288" width="106" height="56" ry="5" rx="5" style="fill:url(#linearGradientF8FBFEEDF5FCDEEDFAD4E7F8E2E5E9_9270978);" stroke="191970" /></g><g componentSequence="6"><text x="341" y="305" text-anchor="middle" style="font-weight:bold;font-size:10px;stroke:none; fill:#333399"><tspan dy="14" x="341">Gerar Minuta</tspan></text></g><g sequence="8"><rect x="595" y="281" width="106" height="70" ry="5" rx="5" style="fill:url(#linearGradientF8FBFEEDF5FCDEEDFAD4E7F8E2E5E9_22186761);" stroke="191970" /></g><g componentSequence="8"><text x="648" y="305" text-anchor="middle" style="font-weight:bold;font-size:10px;stroke:none; fill:#333399"><tspan dy="14" x="648">Preenche Minuta</tspan></text></g><g sequence="13"><rect x="288" y="420" width="106" height="56" ry="5" rx="5" style="fill:url(#linearGradientF8FBFEEDF5FCDEEDFAD4E7F8E2E5E9_20276782);" stroke="191970" /></g><g componentSequence="13"><text x="341" y="437" text-anchor="middle" style="font-weight:bold;font-size:10px;stroke:none; fill:#333399"><tspan dy="14" x="341">Valida Minuta</tspan></text></g><g sequence="15"><rect x="288" y="551" width="106" height="70" ry="5" rx="5" style="fill:url(#linearGradientF8FBFEEDF5FCDEEDFAD4E7F8E2E5E9_16827721);" stroke="191970" /></g><g componentSequence="15"><text x="341" y="566" text-anchor="middle" style="font-weight:bold;font-size:10px;stroke:none; fill:#333399"><tspan dy="14" x="341">Gera Minuta</tspan><tspan dy="14" x="341">Final</tspan></text></g><g sequence="17"><rect x="480" y="551" width="106" height="70" ry="5" rx="5" style="fill:url(#linearGradientF8FBFEEDF5FCDEEDFAD4E7F8E2E5E9_10652045);" stroke="191970" /></g><g componentSequence="17"><text x="533" y="575" text-anchor="middle" style="font-weight:bold;font-size:10px;stroke:none; fill:#333399"><tspan dy="14" x="533">Finaliza Contrato</tspan></text></g><g sequence="19"><ellipse cx="532" cy="492" rx="17" ry="17" stroke-width="3" style="fill:url(#linearGradientFF6666FF9696FFB6B6_21971475);" stroke="993333" /></g><g sequence="21"><rect x="490" y="168" width="106" height="70" ry="5" rx="5" style="fill:url(#linearGradientF8FBFEEDF5FCDEEDFAD4E7F8E2E5E9_27479682);" stroke="191970" /></g><g componentSequence="21"><text x="543" y="183" text-anchor="middle" style="font-weight:bold;font-size:10px;stroke:none; fill:#333399"><tspan dy="14" x="543">Revisar</tspan><tspan dy="14" x="543">Documentos</tspan></text></g><g sequence="25"><ellipse cx="665" cy="202" rx="17" ry="17" stroke-width="3" style="fill:url(#linearGradientFF6666FF9696FFB6B6_322290);" stroke="993333" /></g><g sequence="25"><polygon points=" 656 198 661 193 666 198 671 193 676 198 671 203 676 208 671 213 666 208 661 213 656 208 661 203" style="stroke:none; fill:#993333" /></g><g sequence="29"><ellipse cx="221" cy="447" rx="17" ry="17" stroke-width="3" style="fill:url(#linearGradientFF6666FF9696FFB6B6_15529886);" stroke="993333" /></g><g sequence="29"><polygon points=" 212 443 217 438 222 443 227 438 232 443 227 448 232 453 227 458 222 453 217 458 212 453 217 448" style="stroke:none; fill:#993333" /></g><g componentSequence="3"><text x="249" y="77" style="font-size:10px;font-weight:none;stroke:none; fill:#333399" text-anchor="left" /></g><g componentSequence="5"><text x="351" y="140" style="font-size:10px;font-weight:none;stroke:none; fill:#333399" text-anchor="left" /></g><g componentSequence="7"><text x="351" y="263" style="font-size:10px;font-weight:none;stroke:none; fill:#333399" text-anchor="left" /></g><g componentSequence="16"><text x="351" y="513" style="font-size:10px;font-weight:none;stroke:none; fill:#333399" text-anchor="left" /></g><g componentSequence="18"><text x="447" y="586" style="font-size:10px;font-weight:none;stroke:none; fill:#333399" text-anchor="left" /></g><g componentSequence="20"><text x="542" y="530" style="font-size:10px;font-weight:none;stroke:none; fill:#333399" text-anchor="left" /></g><g componentSequence="22"><text x="452" y="203" style="font-size:10px;font-weight:none;stroke:none; fill:#333399" text-anchor="left" /></g><g componentSequence="24"><text x="632" y="202" style="font-size:10px;font-weight:none;stroke:none; fill:#333399" text-anchor="left" /></g><g componentSequence="26"><text x="504" y="326" style="font-size:10px;font-weight:none;stroke:none; fill:#333399" text-anchor="left"><tspan dy="14" x="504">Se não houver minuta</tspan><tspan dy="14" x="504">automática</tspan></text></g><g componentSequence="27"><text x="351" y="382" style="font-size:10px;font-weight:none;stroke:none; fill:#333399" text-anchor="left" /></g><g componentSequence="28"><text x="580" y="448" style="font-size:10px;font-weight:none;stroke:none; fill:#333399" text-anchor="left" /></g><g componentSequence="30"><text x="273" y="447" style="font-size:10px;font-weight:none;stroke:none; fill:#333399" text-anchor="left" /></g><path style="fill:none; stroke:#000000;stroke-width:1" d="M190.0 77.0 L287.0 77.0" /><polygon style="fill:#000000; stroke:#000000;" points=" 277 72 287 77 277 82 279 77" /><path style="fill:none; stroke:#000000;stroke-width:1" d="M341.0 113.0 L341.0 167.0" /><polygon style="fill:#000000; stroke:#000000;" points=" 346 157 341 167 336 157 341 159" /><path style="fill:none; stroke:#000000;stroke-width:1" d="M341.0 238.0 L341.0 287.0" /><polygon style="fill:#000000; stroke:#000000;" points=" 346 277 341 287 336 277 341 279" /><path style="fill:none; stroke:#F00000;stroke-width:1" d="M394.0 203.0 L489.0 203.0" /><polygon style="fill:#F00000; stroke:#F00000;" points=" 479 198 489 203 479 208 481 203" /><polygon style="fill:#F00000; stroke:#F00000;" points=" 404 208 394 203 404 198 402 203" /><path style="fill:none; stroke:#000000;stroke-width:1" d="M394.0 316.0 L594.0 316.0" /><polygon style="fill:#000000; stroke:#000000;" points=" 584 311 594 316 584 321 586 316" /><path style="fill:none; stroke:#000000;stroke-width:1" d="M341.0 344.0 L341.0 419.0" /><polygon style="fill:#000000; stroke:#000000;" points=" 346 409 341 419 336 409 341 411" /><path style="fill:none; stroke:#000000;stroke-width:1" d="M648.0 351.0 L648.0 448.0 L394.0 448.0" /><polygon style="fill:#000000; stroke:#000000;" points=" 404 453 394 448 404 443 402 448" /><path style="fill:none; stroke:#F00000;stroke-width:1" d="M341.0 476.0 L341.0 550.0" /><polygon style="fill:#F00000; stroke:#F00000;" points=" 346 540 341 550 336 540 341 542" /><polygon style="fill:#F00000; stroke:#F00000;" points=" 336 486 341 476 346 486 341 484" /><path style="fill:none; stroke:#000000;stroke-width:1" d="M287.0 447.0 L238.0 447.0" /><polygon style="fill:#000000; stroke:#000000;" points=" 248 452 238 447 248 442 246 447" /><path style="fill:none; stroke:#000000;stroke-width:1" d="M394.0 586.0 L479.0 586.0" /><polygon style="fill:#000000; stroke:#000000;" points=" 469 581 479 586 469 591 471 586" /><path style="fill:none; stroke:#000000;stroke-width:1" d="M532.0 550.0 L532.0 509.0" /><polygon style="fill:#000000; stroke:#000000;" points=" 527 519 532 509 537 519 532 517" /><path style="fill:none; stroke:#000000;stroke-width:1" d="M596.0 202.0 L648.0 202.0" /><polygon style="fill:#000000; stroke:#000000;" points=" 638 197 648 202 638 207 640 202" /><defs><linearGradient xmlns:xlink="http://www.w3.org/1999/xlink" xlink:href="#linearGradient66FF6696FF96B6FFB6" id="linearGradient66FF6696FF96B6FFB6_24610087" x1="0" y1="60.0" x2="0" y2="95.0" gradientUnits="userSpaceOnUse" xlink:type="simple" xlink:actuate="onLoad" xlink:show="other" /><linearGradient id="linearGradient66FF6696FF96B6FFB6"><stop style="stop-color:#66FF66;stop-opacity:1;" offset="0.0" id="stop66FF66" /><stop style="stop-color:#96FF96;stop-opacity:1;" offset="0.5" id="stop96FF96" /><stop style="stop-color:#B6FFB6;stop-opacity:1;" offset="1.0" id="stopB6FFB6" /></linearGradient><linearGradient xmlns:xlink="http://www.w3.org/1999/xlink" xlink:href="#linearGradientF8FBFEEDF5FCDEEDFAD4E7F8E2E5E9" id="linearGradientF8FBFEEDF5FCDEEDFAD4E7F8E2E5E9_28343545" x1="0" y1="43.0" x2="0" y2="149.0" gradientUnits="userSpaceOnUse" xlink:type="simple" xlink:actuate="onLoad" xlink:show="other" /><linearGradient id="linearGradientF8FBFEEDF5FCDEEDFAD4E7F8E2E5E9"><stop style="stop-color:#F8FBFE;stop-opacity:1;" offset="0.0" id="stopF8FBFE" /><stop style="stop-color:#EDF5FC;stop-opacity:1;" offset="0.25" id="stopEDF5FC" /><stop style="stop-color:#DEEDFA;stop-opacity:1;" offset="0.5" id="stopDEEDFA" /><stop style="stop-color:#D4E7F8;stop-opacity:1;" offset="0.75" id="stopD4E7F8" /><stop style="stop-color:#E2E5E9;stop-opacity:1;" offset="1.0" id="stopE2E5E9" /></linearGradient><linearGradient xmlns:xlink="http://www.w3.org/1999/xlink" xlink:href="#linearGradientF8FBFEEDF5FCDEEDFAD4E7F8E2E5E9" id="linearGradientF8FBFEEDF5FCDEEDFAD4E7F8E2E5E9_26209879" x1="0" y1="168.0" x2="0" y2="274.0" gradientUnits="userSpaceOnUse" xlink:type="simple" xlink:actuate="onLoad" xlink:show="other" /><linearGradient xmlns:xlink="http://www.w3.org/1999/xlink" xlink:href="#linearGradientF8FBFEEDF5FCDEEDFAD4E7F8E2E5E9" id="linearGradientF8FBFEEDF5FCDEEDFAD4E7F8E2E5E9_9270978" x1="0" y1="288.0" x2="0" y2="394.0" gradientUnits="userSpaceOnUse" xlink:type="simple" xlink:actuate="onLoad" xlink:show="other" /><linearGradient xmlns:xlink="http://www.w3.org/1999/xlink" xlink:href="#linearGradientF8FBFEEDF5FCDEEDFAD4E7F8E2E5E9" id="linearGradientF8FBFEEDF5FCDEEDFAD4E7F8E2E5E9_22186761" x1="0" y1="281.0" x2="0" y2="387.0" gradientUnits="userSpaceOnUse" xlink:type="simple" xlink:actuate="onLoad" xlink:show="other" /><linearGradient xmlns:xlink="http://www.w3.org/1999/xlink" xlink:href="#linearGradientF8FBFEEDF5FCDEEDFAD4E7F8E2E5E9" id="linearGradientF8FBFEEDF5FCDEEDFAD4E7F8E2E5E9_20276782" x1="0" y1="420.0" x2="0" y2="526.0" gradientUnits="userSpaceOnUse" xlink:type="simple" xlink:actuate="onLoad" xlink:show="other" /><linearGradient xmlns:xlink="http://www.w3.org/1999/xlink" xlink:href="#linearGradientF8FBFEEDF5FCDEEDFAD4E7F8E2E5E9" id="linearGradientF8FBFEEDF5FCDEEDFAD4E7F8E2E5E9_16827721" x1="0" y1="551.0" x2="0" y2="657.0" gradientUnits="userSpaceOnUse" xlink:type="simple" xlink:actuate="onLoad" xlink:show="other" /><linearGradient xmlns:xlink="http://www.w3.org/1999/xlink" xlink:href="#linearGradientF8FBFEEDF5FCDEEDFAD4E7F8E2E5E9" id="linearGradientF8FBFEEDF5FCDEEDFAD4E7F8E2E5E9_10652045" x1="0" y1="551.0" x2="0" y2="657.0" gradientUnits="userSpaceOnUse" xlink:type="simple" xlink:actuate="onLoad" xlink:show="other" /><linearGradient xmlns:xlink="http://www.w3.org/1999/xlink" xlink:href="#linearGradientFF6666FF9696FFB6B6" id="linearGradientFF6666FF9696FFB6B6_21971475" x1="0" y1="475.0" x2="0" y2="510.0" gradientUnits="userSpaceOnUse" xlink:type="simple" xlink:actuate="onLoad" xlink:show="other" /><linearGradient id="linearGradientFF6666FF9696FFB6B6"><stop style="stop-color:#FF6666;stop-opacity:1;" offset="0.0" id="stopFF6666" /><stop style="stop-color:#FF9696;stop-opacity:1;" offset="0.5" id="stopFF9696" /><stop style="stop-color:#FFB6B6;stop-opacity:1;" offset="1.0" id="stopFFB6B6" /></linearGradient><linearGradient xmlns:xlink="http://www.w3.org/1999/xlink" xlink:href="#linearGradientF8FBFEEDF5FCDEEDFAD4E7F8E2E5E9" id="linearGradientF8FBFEEDF5FCDEEDFAD4E7F8E2E5E9_27479682" x1="0" y1="168.0" x2="0" y2="274.0" gradientUnits="userSpaceOnUse" xlink:type="simple" xlink:actuate="onLoad" xlink:show="other" /><linearGradient xmlns:xlink="http://www.w3.org/1999/xlink" xlink:href="#linearGradientFF6666FF9696FFB6B6" id="linearGradientFF6666FF9696FFB6B6_322290" x1="0" y1="185.0" x2="0" y2="220.0" gradientUnits="userSpaceOnUse" xlink:type="simple" xlink:actuate="onLoad" xlink:show="other" /><linearGradient xmlns:xlink="http://www.w3.org/1999/xlink" xlink:href="#linearGradientFF6666FF9696FFB6B6" id="linearGradientFF6666FF9696FFB6B6_15529886" x1="0" y1="430.0" x2="0" y2="465.0" gradientUnits="userSpaceOnUse" xlink:type="simple" xlink:actuate="onLoad" xlink:show="other" /></defs></svg>
