<?xml version="1.0" encoding="UTF-8"?>
<svg xmlns="http://www.w3.org/2000/svg" style="stroke-dasharray:none; shape-rendering:auto; font-family:'Arial'; text-rendering:auto; fill-opacity:1; color-interpolation:auto; color-rendering:auto; font-size:12; fill:black; stroke:black; image-rendering:auto; stroke-miterlimit:10; stroke-linecap:square; stroke-linejoin:miter; font-style:normal; stroke-width:1; stroke-dashoffset:0; font-weight:normal; stroke-opacity:1;" contentScriptType="text/ecmascript" preserveAspectRatio="xMidYMid meet" zoomAndPan="magnify" version="1.0" contentStyleType="text/css" xml:xlink="http://www.w3.org/1999/xlink" width="925" height="765"><rect x="10" y="10" width="771" height="751" ry="0" rx="0" style="stroke:#000000; fill:#FFFFFF" /><rect x="40" y="652" width="741" height="109" ry="0" rx="0" style="stroke:#000000; fill:#9FC1C6" /><g componentSequence="109"><text x="-706" y="46" transform="rotate(270)" text-anchor="middle" style="font-weight:bold;font-size:13px;stroke:none; fill:#434343"><tspan dy="14" x="-706">SwimLane</tspan></text></g><rect x="40" y="331" width="741" height="107" ry="0" rx="0" style="stroke:#000000; fill:#82B0B7" /><g componentSequence="7"><text x="-384" y="46" transform="rotate(270)" text-anchor="middle" style="font-weight:bold;font-size:13px;stroke:none; fill:#434343"><tspan dy="14" x="-384">Mantenedora</tspan></text></g><rect x="40" y="438" width="741" height="107" ry="0" rx="0" style="stroke:#000000; fill:#C9C3AC" /><g componentSequence="6"><text x="-491" y="46" transform="rotate(270)" text-anchor="middle" style="font-weight:bold;font-size:13px;stroke:none; fill:#434343"><tspan dy="14" x="-491">RM Nucleus</tspan></text></g><rect x="40" y="117" width="741" height="107" ry="0" rx="0" style="stroke:#000000; fill:#D6E0D0" /><g componentSequence="5"><text x="-170" y="46" transform="rotate(270)" text-anchor="middle" style="font-weight:bold;font-size:13px;stroke:none; fill:#434343"><tspan dy="14" x="-170">Dir Financeiro</tspan></text></g><rect x="40" y="224" width="741" height="107" ry="0" rx="0" style="stroke:#000000; fill:#D0DAAE" /><g componentSequence="4"><text x="-277" y="234" transform="rotate(270)" text-anchor="middle" style="font-weight:bold;font-size:13px;stroke:none; fill:#434343"><tspan dy="14" x="-277">Aprov.Centro</tspan><tspan dy="14" x="-277">Custo</tspan></text></g><rect x="40" y="545" width="741" height="107" ry="0" rx="0" style="stroke:#000000; fill:#ADC9AC" /><g componentSequence="3"><text x="-598" y="46" transform="rotate(270)" text-anchor="middle" style="font-weight:bold;font-size:13px;stroke:none; fill:#434343"><tspan dy="14" x="-598">Suprimentos</tspan></text></g><rect x="40" y="10" width="741" height="107" ry="0" rx="0" style="stroke:#000000; fill:#0080C0" /><g componentSequence="2"><text x="-63" y="46" transform="rotate(270)" text-anchor="middle" style="font-weight:bold;font-size:13px;stroke:none; fill:#434343"><tspan dy="14" x="-63">Requisitantes</tspan></text></g><g componentSequence="1"><text x="-385" y="16" transform="rotate(270)" text-anchor="middle" style="font-weight:bold;font-size:13px;stroke:none; fill:#434343"><tspan dy="14" x="-385">Requisição Compras</tspan></text></g><g sequence="4"><ellipse cx="187" cy="66" rx="17" ry="17" stroke-width="1" style="fill:url(#linearGradient66FF6696FF96B6FFB6_1678464188);" stroke="336633" /></g><g sequence="5"><rect x="90" y="142" width="106" height="65" ry="5" rx="5" style="fill:url(#linearGradientF8FBFEEDF5FCDEEDFAD4E7F8E2E5E9_1791796813);" stroke="191970" /></g><g componentSequence="5"><text x="143" y="157" text-anchor="middle" style="font-weight:bold;font-size:13px;stroke:none; fill:#333399"><tspan dy="14" x="143">Analise de</tspan><tspan dy="14" x="143">Necessidade</tspan></text></g><g sequence="15"><polygon points=" 340 163 370 133 400 163 370 193 340 163" style="fill:url(#linearGradientFAFBFCFFFFCC_1861435340);" stroke="000000" /></g><g componentSequence="15"><text x="370" y="194" text-anchor="middle" style="font-weight:bold;font-size:13px;stroke:none; fill:#333399"><tspan dy="14" x="370">Aprova?</tspan></text></g><g sequence="20"><rect x="430" y="240" width="106" height="65" ry="5" rx="5" style="fill:url(#linearGradientF8FBFEEDF5FCDEEDFAD4E7F8E2E5E9_737258614);" stroke="191970" /></g><g componentSequence="20"><text x="483" y="255" text-anchor="middle" style="font-weight:bold;font-size:13px;stroke:none; fill:#333399"><tspan dy="14" x="483">Analise</tspan><tspan dy="14" x="483">Compras</tspan></text></g><g sequence="32"><rect x="460" y="34" width="106" height="65" ry="5" rx="5" style="fill:url(#linearGradientF8FBFEEDF5FCDEEDFAD4E7F8E2E5E9_358720256);" stroke="191970" /></g><g componentSequence="32"><text x="513" y="49" text-anchor="middle" style="font-weight:bold;font-size:13px;stroke:none; fill:#333399"><tspan dy="14" x="513">Revisão do</tspan><tspan dy="14" x="513">Requisitante</tspan></text></g><g sequence="46"><rect x="130" y="348" width="106" height="65" ry="5" rx="5" style="fill:url(#linearGradientF8FBFEEDF5FCDEEDFAD4E7F8E2E5E9_437289263);" stroke="191970" /></g><g componentSequence="46"><text x="183" y="363" text-anchor="middle" style="font-weight:bold;font-size:13px;stroke:none; fill:#333399"><tspan dy="14" x="183">CD/PC: Apr</tspan><tspan dy="14" x="183">Financeiro</tspan></text></g><g sequence="63"><ellipse cx="567" cy="599" rx="17" ry="17" stroke-width="3" style="fill:url(#linearGradientFF6666FF9696FFB6B6_1835716862);" stroke="993333" /></g><g sequence="69"><rect x="130" y="458" width="106" height="65" ry="5" rx="5" style="fill:url(#linearGradientF8FBFEEDF5FCDEEDFAD4E7F8E2E5E9_1272861497);" stroke="191970" /></g><g componentSequence="69"><text x="183" y="473" text-anchor="middle" style="font-weight:bold;font-size:13px;stroke:none; fill:#333399"><tspan dy="14" x="183">CD/PC: Apr</tspan><tspan dy="14" x="183">Mantenedora</tspan></text></g><g sequence="77"><polygon points=" 560 383 590 353 620 383 590 413 560 383" style="fill:url(#linearGradientFAFBFCFFFFCC_1396670689);" stroke="000000" /></g><g componentSequence="77"><text x="590" y="414" text-anchor="middle" style="font-weight:bold;font-size:13px;stroke:none; fill:#333399"><tspan dy="14" x="590">Aprova?</tspan></text></g><g sequence="79"><polygon points=" 690 493 720 463 750 493 720 523 690 493" style="fill:url(#linearGradientFAFBFCFFFFCC_1303935568);" stroke="000000" /></g><g componentSequence="79"><text x="720" y="524" text-anchor="middle" style="font-weight:bold;font-size:13px;stroke:none; fill:#333399"><tspan dy="14" x="720">Aprova?</tspan></text></g><g sequence="88"><ellipse cx="657" cy="599" rx="17" ry="17" stroke-width="3" style="fill:url(#linearGradientFF6666FF9696FFB6B6_1986969145);" stroke="993333" /></g><g sequence="89"><polygon points=" 620 260 650 230 680 260 650 290 620 260" style="fill:url(#linearGradientFAFBFCFFFFCC_1334864982);" stroke="000000" /></g><g componentSequence="89"><text x="650" y="291" text-anchor="middle" style="font-weight:bold;font-size:13px;stroke:none; fill:#333399"><tspan dy="14" x="650">Cancela</tspan></text></g><rect x="820" y="500" width="105" height="199" ry="5" rx="5" style="stroke:none; fill:#FFFFE0" /><g componentSequence="66"><text x="830" y="523" text-anchor="left" style="font-weight:bold;font-size:13px;stroke:none; fill:#000000"><tspan dy="14" x="830">Gera</tspan><tspan dy="14" x="830">Movimentos: 1)</tspan><tspan dy="14" x="830">Atender pelo</tspan><tspan dy="14" x="830">Estoque (WK</tspan><tspan dy="14" x="830">T0002) - 2)</tspan><tspan dy="14" x="830">Gerar</tspan><tspan dy="14" x="830">Solicitação de</tspan><tspan dy="14" x="830">Compras - 3)</tspan><tspan dy="14" x="830">Movimento de</tspan><tspan dy="14" x="830">Faturamento de</tspan><tspan dy="14" x="830">Contrato - 4)</tspan><tspan dy="14" x="830">Movimento de</tspan><tspan dy="14" x="830">Pedido</tspan><tspan dy="14" x="830">Aprovado</tspan></text></g><path style="fill:none; stroke-width:1; stroke:#000000;" d="M840.0 500.0 L820.0 500.0 L820.0 699.0 L840.0 699.0" /><g sequence="93"><polygon points=" 70 48 100 18 130 48 100 78 70 48" style="fill:url(#linearGradientFAFBFCFFFFCC_1619510733);" stroke="000000" /></g><g componentSequence="93"><text x="100" y="79" text-anchor="middle" style="font-weight:bold;font-size:13px;stroke:none; fill:#333399"><tspan dy="14" x="100">Série</tspan></text></g><g sequence="108"><rect x="610" y="681" width="106" height="53" ry="5" rx="5" style="fill:url(#linearGradientF8FBFEEDF5FCDEEDFAD4E7F8E2E5E9_1852000631);" stroke="191970" /></g><g componentSequence="108"><text x="663" y="696" text-anchor="middle" style="font-weight:bold;font-size:13px;stroke:none; fill:#333399"><tspan dy="14" x="663">Tecnologia e B.I</tspan></text></g><g sequence="128"><polygon points=" 100 698 130 668 160 698 130 728 100 698" style="fill:url(#linearGradientFAFBFCFFFFCC_1845472756);" stroke="000000" /></g><g componentSequence="128"><text x="130" y="738" text-anchor="middle" style="font-weight:bold;font-size:13px;stroke:none; fill:#333399"><tspan dy="14" x="130">Integraç</tspan><tspan dy="14" x="130">ão</tspan></text></g><g sequence="137"><rect x="80" y="573" width="106" height="53" ry="5" rx="5" style="fill:url(#linearGradientF8FBFEEDF5FCDEEDFAD4E7F8E2E5E9_557944513);" stroke="191970" /></g><g componentSequence="137"><text x="133" y="588" text-anchor="middle" style="font-weight:bold;font-size:13px;stroke:none; fill:#333399"><tspan dy="14" x="133">Sistema</tspan></text></g><g sequence="145"><rect x="340" y="670" width="106" height="53" ry="5" rx="5" style="fill:url(#linearGradientF8FBFEEDF5FCDEEDFAD4E7F8E2E5E9_2134281865);" stroke="191970" /></g><g componentSequence="145"><text x="393" y="685" text-anchor="middle" style="font-weight:bold;font-size:13px;stroke:none; fill:#333399"><tspan dy="14" x="393">Sistema</tspan></text></g><g componentSequence="21"><text x="432" y="220" style="font-size:10px;font-weight:none;stroke:none; fill:#333399" text-anchor="left" /></g><g componentSequence="33"><text x="445" y="126" style="font-size:10px;font-weight:none;stroke:none; fill:#333399" text-anchor="left" /></g><g componentSequence="34"><text x="338" y="120" style="font-size:10px;font-weight:none;stroke:none; fill:#333399" text-anchor="left" /></g><g componentSequence="38"><text x="278" y="175" style="font-size:10px;font-weight:none;stroke:none; fill:#333399" text-anchor="left" /></g><g componentSequence="47"><text x="233" y="244" style="font-size:10px;font-weight:none;stroke:none; fill:#333399" text-anchor="left" /></g><g componentSequence="78"><text x="408" y="388" style="font-size:10px;font-weight:none;stroke:none; fill:#333399" text-anchor="left" /></g><g componentSequence="80"><text x="473" y="498" style="font-size:10px;font-weight:none;stroke:none; fill:#333399" text-anchor="left" /></g><g componentSequence="81"><text x="560" y="226" style="font-size:10px;font-weight:none;stroke:none; fill:#333399" text-anchor="left" /></g><g componentSequence="82"><text x="624" y="281" style="font-size:10px;font-weight:none;stroke:none; fill:#333399" text-anchor="left" /></g><g componentSequence="85"><text x="408" y="440" style="font-size:10px;font-weight:none;stroke:none; fill:#333399" text-anchor="left" /></g><g componentSequence="90"><text x="588" y="272" style="font-size:10px;font-weight:none;stroke:none; fill:#333399" text-anchor="left" /></g><g componentSequence="92"><text x="664" y="448" style="font-size:10px;font-weight:none;stroke:none; fill:#333399" text-anchor="left" /></g><g componentSequence="67"><text x="712" y="599" style="font-size:10px;font-weight:none;stroke:none; fill:#333399" text-anchor="left" /></g><g componentSequence="94"><text x="160" y="64" style="font-size:10px;font-weight:none;stroke:none; fill:#333399" text-anchor="left" /></g><g componentSequence="95"><text x="75" y="272" style="font-size:10px;font-weight:none;stroke:none; fill:#333399" text-anchor="left" /></g><g componentSequence="96"><text x="133" y="122" style="font-size:10px;font-weight:none;stroke:none; fill:#333399" text-anchor="left" /></g><g componentSequence="133"><text x="394" y="748" style="font-size:10px;font-weight:none;stroke:none; fill:#333399" text-anchor="left" /></g><g componentSequence="135"><text x="346" y="599" style="font-size:10px;font-weight:none;stroke:none; fill:#333399" text-anchor="left" /></g><g componentSequence="136"><text x="485" y="400" style="font-size:10px;font-weight:none;stroke:none; fill:#333399" text-anchor="left" /></g><g componentSequence="139"><text x="257" y="395" style="font-size:10px;font-weight:none;stroke:none; fill:#333399" text-anchor="left" /></g><g componentSequence="140"><text x="407" y="432" style="font-size:10px;font-weight:none;stroke:none; fill:#333399" text-anchor="left" /></g><g componentSequence="141"><text x="383" y="492" style="font-size:10px;font-weight:none;stroke:none; fill:#333399" text-anchor="left" /></g><g componentSequence="142"><text x="448" y="550" style="font-size:10px;font-weight:none;stroke:none; fill:#333399" text-anchor="left" /></g><g componentSequence="143"><text x="125" y="646" style="font-size:10px;font-weight:none;stroke:none; fill:#333399" text-anchor="left" /></g><g componentSequence="144"><text x="149" y="646" style="font-size:10px;font-weight:none;stroke:none; fill:#333399" text-anchor="left" /></g><g componentSequence="146"><text x="538" y="696" style="font-size:10px;font-weight:none;stroke:none; fill:#333399" text-anchor="left" /></g><g componentSequence="147"><text x="259" y="696" style="font-size:10px;font-weight:none;stroke:none; fill:#333399" text-anchor="left" /></g><g componentSequence="148"><text x="260" y="717" style="font-size:10px;font-weight:none;stroke:none; fill:#333399" text-anchor="left" /></g><path style="fill:none; stroke:#000000;stroke-width:1" d="M170.0 65.0 L130.0 62.0" /><polygon style="fill:#000000; stroke:#000000;" points=" 140 68 130 62 140 58 138 63" /><path style="fill:none; stroke:#000000;stroke-width:1" d="M196.0 174.0 L339.0 175.0" /><polygon style="fill:#000000; stroke:#000000;" points=" 329 170 339 175 329 180 331 175" /><path style="fill:none; stroke:#000000;stroke-width:1" d="M459.0 82.0 L196.0 158.0" /><polygon style="fill:#000000; stroke:#000000;" points=" 207 160 196 158 204 150 204 156" /><path style="fill:none; stroke:#000000;stroke-width:1" d="M116.0 103.0 L130.0 141.0" /><polygon style="fill:#000000; stroke:#000000;" points=" 131 130 130 141 122 133 127 133" /><path style="fill:none; stroke:#000000;stroke-width:1" d="M400.0 201.0 L444.0 239.0" /><polygon style="fill:#000000; stroke:#000000;" points=" 440 229 444 239 433 236 438 234" /><path style="fill:none; stroke:#000000;stroke-width:1" d="M400.0 152.0 L469.0 99.0" /><polygon style="fill:#000000; stroke:#000000;" points=" 458 101 469 99 464 109 463 104" /><path style="fill:none; stroke:#000000;stroke-width:1" d="M339.0 189.0 L183.0 262.0 L183.0 347.0" /><polygon style="fill:#000000; stroke:#000000;" points=" 188 337 183 347 178 337 183 339" /><path style="fill:none; stroke:#000000;stroke-width:1" d="M390.0 218.0 L560.0 583.0" /><polygon style="fill:#000000; stroke:#000000;" points=" 560 572 560 583 551 576 557 576" /><path style="fill:none; stroke:#000000;stroke-width:1" d="M346.0 218.0 L148.0 572.0" /><polygon style="fill:#000000; stroke:#000000;" points=" 157 566 148 572 149 561 152 565" /><path style="fill:none; stroke:#000000;stroke-width:1" d="M536.0 272.0 L619.0 272.0" /><polygon style="fill:#000000; stroke:#000000;" points=" 609 267 619 272 609 277 611 272" /><path style="fill:none; stroke:#000000;stroke-width:1" d="M580.0 352.0 L520.0 99.0" /><polygon style="fill:#000000; stroke:#000000;" points=" 517 110 520 99 527 108 522 107" /><path style="fill:none; stroke:#000000;stroke-width:1" d="M699.0 462.0 L528.0 99.0" /><polygon style="fill:#000000; stroke:#000000;" points=" 528 110 528 99 537 106 531 106" /><path style="fill:none; stroke:#000000;stroke-width:1" d="M236.0 382.0 L559.0 394.0" /><polygon style="fill:#000000; stroke:#000000;" points=" 549 389 559 394 549 399 551 394" /><path style="fill:none; stroke:#000000;stroke-width:1" d="M80.0 103.0 L65.0 138.0 L65.0 380.0 L129.0 380.0" /><polygon style="fill:#000000; stroke:#000000;" points=" 119 375 129 380 119 385 121 380" /><path style="fill:none; stroke:#000000;stroke-dasharray:2" d="M819.0 599.0 L585.0 599.0" /><path style="fill:none; stroke:#000000;stroke-width:1" d="M160.0 679.0 L227.0 599.0 L549.0 599.0" /><polygon style="fill:#000000; stroke:#000000;" points=" 539 594 549 599 539 604 541 599" /><path style="fill:none; stroke:#000000;stroke-width:1" d="M236.0 491.0 L689.0 504.0" /><polygon style="fill:#000000; stroke:#000000;" points=" 679 499 689 504 679 509 681 504" /><path style="fill:none; stroke:#000000;stroke-width:1" d="M559.0 402.0 L236.0 478.0" /><polygon style="fill:#000000; stroke:#000000;" points=" 247 481 236 478 245 471 244 476" /><path style="fill:none; stroke:#000000;stroke-width:1" d="M559.0 409.0 L186.0 575.0" /><polygon style="fill:#000000; stroke:#000000;" points=" 197 576 186 575 193 566 193 572" /><path style="fill:none; stroke:#000000;stroke-width:1" d="M689.0 510.0 L186.0 590.0" /><polygon style="fill:#000000; stroke:#000000;" points=" 197 593 186 590 195 583 194 589" /><path style="fill:none; stroke:#000000;stroke-width:1" d="M650.0 315.0 L657.0 582.0" /><polygon style="fill:#000000; stroke:#000000;" points=" 662 572 657 582 652 572 657 574" /><path style="fill:none; stroke:#000000;stroke-width:1" d="M619.0 291.0 L175.0 572.0" /><polygon style="fill:#000000; stroke:#000000;" points=" 186 571 175 572 181 562 182 568" /><path style="fill:none; stroke:#000000;stroke-width:1" d="M609.0 702.0 L539.0 696.0 L446.0 696.0" /><polygon style="fill:#000000; stroke:#000000;" points=" 456 701 446 696 456 691 454 696" /><path style="fill:none; stroke:#000000;stroke-width:1" d="M160.0 730.0 L199.0 748.0 L559.0 748.0 L609.0 728.0" /><polygon style="fill:#000000; stroke:#000000;" points=" 598 727 609 728 602 736 602 731" /><path style="fill:none; stroke:#009600;stroke-width:1" d="M122.0 626.0 L115.0 645.0 L119.0 667.0" /><polygon style="fill:#009600; stroke:#009600;" points=" 122 656 119 667 112 658 118 659" /><path style="fill:none; stroke:#000000;stroke-width:1" d="M136.0 626.0 L139.0 646.0 L136.0 667.0" /><polygon style="fill:#000000; stroke:#000000;" points=" 142 658 136 667 132 656 137 659" /><path style="fill:none; stroke:#009600;stroke-width:1" d="M339.0 696.0 L200.0 696.0 L160.0 707.0" /><polygon style="fill:#009600; stroke:#009600;" points=" 171 709 160 707 168 700 168 705" /><path style="fill:none; stroke:#000000;stroke-width:1" d="M339.0 704.0 L220.0 721.0 L160.0 718.0" /><polygon style="fill:#000000; stroke:#000000;" points=" 170 723 160 718 170 714 168 718" /><defs><linearGradient xmlns:xlink="http://www.w3.org/1999/xlink" xlink:href="#linearGradient66FF6696FF96B6FFB6" id="linearGradient66FF6696FF96B6FFB6_1678464188" x1="0" y1="49.0" x2="0" y2="84.0" gradientUnits="userSpaceOnUse" xlink:type="simple" xlink:actuate="onLoad" xlink:show="other" /><linearGradient id="linearGradient66FF6696FF96B6FFB6"><stop style="stop-color:#66FF66;stop-opacity:1;" offset="0.0" id="stop66FF66" /><stop style="stop-color:#96FF96;stop-opacity:1;" offset="0.5" id="stop96FF96" /><stop style="stop-color:#B6FFB6;stop-opacity:1;" offset="1.0" id="stopB6FFB6" /></linearGradient><linearGradient xmlns:xlink="http://www.w3.org/1999/xlink" xlink:href="#linearGradientF8FBFEEDF5FCDEEDFAD4E7F8E2E5E9" id="linearGradientF8FBFEEDF5FCDEEDFAD4E7F8E2E5E9_1791796813" x1="0" y1="142.0" x2="0" y2="248.0" gradientUnits="userSpaceOnUse" xlink:type="simple" xlink:actuate="onLoad" xlink:show="other" /><linearGradient id="linearGradientF8FBFEEDF5FCDEEDFAD4E7F8E2E5E9"><stop style="stop-color:#F8FBFE;stop-opacity:1;" offset="0.0" id="stopF8FBFE" /><stop style="stop-color:#EDF5FC;stop-opacity:1;" offset="0.25" id="stopEDF5FC" /><stop style="stop-color:#DEEDFA;stop-opacity:1;" offset="0.5" id="stopDEEDFA" /><stop style="stop-color:#D4E7F8;stop-opacity:1;" offset="0.75" id="stopD4E7F8" /><stop style="stop-color:#E2E5E9;stop-opacity:1;" offset="1.0" id="stopE2E5E9" /></linearGradient><linearGradient xmlns:xlink="http://www.w3.org/1999/xlink" xlink:href="#linearGradientFAFBFCFFFFCC" id="linearGradientFAFBFCFFFFCC_1861435340" x1="0" y1="133.0" x2="0" y2="193.0" gradientUnits="userSpaceOnUse" xlink:type="simple" xlink:actuate="onLoad" xlink:show="other" /><linearGradient id="linearGradientFAFBFCFFFFCC"><stop style="stop-color:#FAFBFC;stop-opacity:1;" offset="0.0" id="stopFAFBFC" /><stop style="stop-color:#FFFFCC;stop-opacity:1;" offset="1.0" id="stopFFFFCC" /></linearGradient><linearGradient xmlns:xlink="http://www.w3.org/1999/xlink" xlink:href="#linearGradientF8FBFEEDF5FCDEEDFAD4E7F8E2E5E9" id="linearGradientF8FBFEEDF5FCDEEDFAD4E7F8E2E5E9_737258614" x1="0" y1="240.0" x2="0" y2="346.0" gradientUnits="userSpaceOnUse" xlink:type="simple" xlink:actuate="onLoad" xlink:show="other" /><linearGradient xmlns:xlink="http://www.w3.org/1999/xlink" xlink:href="#linearGradientF8FBFEEDF5FCDEEDFAD4E7F8E2E5E9" id="linearGradientF8FBFEEDF5FCDEEDFAD4E7F8E2E5E9_358720256" x1="0" y1="34.0" x2="0" y2="140.0" gradientUnits="userSpaceOnUse" xlink:type="simple" xlink:actuate="onLoad" xlink:show="other" /><linearGradient xmlns:xlink="http://www.w3.org/1999/xlink" xlink:href="#linearGradientF8FBFEEDF5FCDEEDFAD4E7F8E2E5E9" id="linearGradientF8FBFEEDF5FCDEEDFAD4E7F8E2E5E9_437289263" x1="0" y1="348.0" x2="0" y2="454.0" gradientUnits="userSpaceOnUse" xlink:type="simple" xlink:actuate="onLoad" xlink:show="other" /><linearGradient xmlns:xlink="http://www.w3.org/1999/xlink" xlink:href="#linearGradientFF6666FF9696FFB6B6" id="linearGradientFF6666FF9696FFB6B6_1835716862" x1="0" y1="582.0" x2="0" y2="617.0" gradientUnits="userSpaceOnUse" xlink:type="simple" xlink:actuate="onLoad" xlink:show="other" /><linearGradient id="linearGradientFF6666FF9696FFB6B6"><stop style="stop-color:#FF6666;stop-opacity:1;" offset="0.0" id="stopFF6666" /><stop style="stop-color:#FF9696;stop-opacity:1;" offset="0.5" id="stopFF9696" /><stop style="stop-color:#FFB6B6;stop-opacity:1;" offset="1.0" id="stopFFB6B6" /></linearGradient><linearGradient xmlns:xlink="http://www.w3.org/1999/xlink" xlink:href="#linearGradientF8FBFEEDF5FCDEEDFAD4E7F8E2E5E9" id="linearGradientF8FBFEEDF5FCDEEDFAD4E7F8E2E5E9_1272861497" x1="0" y1="458.0" x2="0" y2="564.0" gradientUnits="userSpaceOnUse" xlink:type="simple" xlink:actuate="onLoad" xlink:show="other" /><linearGradient xmlns:xlink="http://www.w3.org/1999/xlink" xlink:href="#linearGradientFAFBFCFFFFCC" id="linearGradientFAFBFCFFFFCC_1396670689" x1="0" y1="353.0" x2="0" y2="413.0" gradientUnits="userSpaceOnUse" xlink:type="simple" xlink:actuate="onLoad" xlink:show="other" /><linearGradient xmlns:xlink="http://www.w3.org/1999/xlink" xlink:href="#linearGradientFAFBFCFFFFCC" id="linearGradientFAFBFCFFFFCC_1303935568" x1="0" y1="463.0" x2="0" y2="523.0" gradientUnits="userSpaceOnUse" xlink:type="simple" xlink:actuate="onLoad" xlink:show="other" /><linearGradient xmlns:xlink="http://www.w3.org/1999/xlink" xlink:href="#linearGradientFF6666FF9696FFB6B6" id="linearGradientFF6666FF9696FFB6B6_1986969145" x1="0" y1="582.0" x2="0" y2="617.0" gradientUnits="userSpaceOnUse" xlink:type="simple" xlink:actuate="onLoad" xlink:show="other" /><linearGradient xmlns:xlink="http://www.w3.org/1999/xlink" xlink:href="#linearGradientFAFBFCFFFFCC" id="linearGradientFAFBFCFFFFCC_1334864982" x1="0" y1="230.0" x2="0" y2="290.0" gradientUnits="userSpaceOnUse" xlink:type="simple" xlink:actuate="onLoad" xlink:show="other" /><linearGradient xmlns:xlink="http://www.w3.org/1999/xlink" xlink:href="#linearGradientFAFBFCFFFFCC" id="linearGradientFAFBFCFFFFCC_1619510733" x1="0" y1="18.0" x2="0" y2="78.0" gradientUnits="userSpaceOnUse" xlink:type="simple" xlink:actuate="onLoad" xlink:show="other" /><linearGradient xmlns:xlink="http://www.w3.org/1999/xlink" xlink:href="#linearGradientF8FBFEEDF5FCDEEDFAD4E7F8E2E5E9" id="linearGradientF8FBFEEDF5FCDEEDFAD4E7F8E2E5E9_1852000631" x1="0" y1="681.0" x2="0" y2="787.0" gradientUnits="userSpaceOnUse" xlink:type="simple" xlink:actuate="onLoad" xlink:show="other" /><linearGradient xmlns:xlink="http://www.w3.org/1999/xlink" xlink:href="#linearGradientFAFBFCFFFFCC" id="linearGradientFAFBFCFFFFCC_1845472756" x1="0" y1="668.0" x2="0" y2="728.0" gradientUnits="userSpaceOnUse" xlink:type="simple" xlink:actuate="onLoad" xlink:show="other" /><linearGradient xmlns:xlink="http://www.w3.org/1999/xlink" xlink:href="#linearGradientF8FBFEEDF5FCDEEDFAD4E7F8E2E5E9" id="linearGradientF8FBFEEDF5FCDEEDFAD4E7F8E2E5E9_557944513" x1="0" y1="573.0" x2="0" y2="679.0" gradientUnits="userSpaceOnUse" xlink:type="simple" xlink:actuate="onLoad" xlink:show="other" /><linearGradient xmlns:xlink="http://www.w3.org/1999/xlink" xlink:href="#linearGradientF8FBFEEDF5FCDEEDFAD4E7F8E2E5E9" id="linearGradientF8FBFEEDF5FCDEEDFAD4E7F8E2E5E9_2134281865" x1="0" y1="670.0" x2="0" y2="776.0" gradientUnits="userSpaceOnUse" xlink:type="simple" xlink:actuate="onLoad" xlink:show="other" /></defs></svg>
