<?xml version="1.0" encoding="UTF-8"?>
<svg xmlns="http://www.w3.org/2000/svg" style="stroke-dasharray:none; shape-rendering:auto; font-family:'Arial'; text-rendering:auto; fill-opacity:1; color-interpolation:auto; color-rendering:auto; font-size:12; fill:black; stroke:black; image-rendering:auto; stroke-miterlimit:10; stroke-linecap:square; stroke-linejoin:miter; font-style:normal; stroke-width:1; stroke-dashoffset:0; font-weight:normal; stroke-opacity:1;" contentScriptType="text/ecmascript" preserveAspectRatio="xMidYMid meet" zoomAndPan="magnify" version="1.0" contentStyleType="text/css" xml:xlink="http://www.w3.org/1999/xlink" width="841" height="1050"><rect x="10" y="10" width="831" height="1040" ry="0" rx="0" style="stroke:#000000; fill:#FFFFFF" /><rect x="40" y="946" width="801" height="104" ry="0" rx="0" style="stroke:#000000; fill:#D6E0D0" /><g componentSequence="55"><text x="-998" y="46" transform="rotate(270)" text-anchor="middle" style="font-weight:bold;font-size:13px;stroke:none; fill:#434343"><tspan dy="14" x="-998">SwimLane</tspan></text></g><rect x="40" y="738" width="801" height="104" ry="0" rx="0" style="stroke:#000000; fill:#D0DAAE" /><g componentSequence="35"><text x="-790" y="46" transform="rotate(270)" text-anchor="middle" style="font-weight:bold;font-size:13px;stroke:none; fill:#434343"><tspan dy="14" x="-790">SwimLane</tspan></text></g><rect x="40" y="634" width="801" height="104" ry="0" rx="0" style="stroke:#000000; fill:#ADC9AC" /><g componentSequence="26"><text x="-686" y="46" transform="rotate(270)" text-anchor="middle" style="font-weight:bold;font-size:13px;stroke:none; fill:#434343"><tspan dy="14" x="-686">SwimLane</tspan></text></g><rect x="40" y="842" width="801" height="104" ry="0" rx="0" style="stroke:#000000; fill:#82B0B7" /><g componentSequence="25"><text x="-894" y="46" transform="rotate(270)" text-anchor="middle" style="font-weight:bold;font-size:13px;stroke:none; fill:#434343"><tspan dy="14" x="-894">SwimLane</tspan></text></g><rect x="40" y="530" width="801" height="104" ry="0" rx="0" style="stroke:#000000; fill:#9FC1C6" /><g componentSequence="24"><text x="-582" y="46" transform="rotate(270)" text-anchor="middle" style="font-weight:bold;font-size:13px;stroke:none; fill:#434343"><tspan dy="14" x="-582">SwimLane</tspan></text></g><rect x="40" y="426" width="801" height="104" ry="0" rx="0" style="stroke:#000000; fill:#C9C3AC" /><g componentSequence="19"><text x="-478" y="46" transform="rotate(270)" text-anchor="middle" style="font-weight:bold;font-size:13px;stroke:none; fill:#434343"><tspan dy="14" x="-478">SwimLane</tspan></text></g><rect x="40" y="218" width="801" height="104" ry="0" rx="0" style="stroke:#000000; fill:#D6E0D0" /><g componentSequence="12"><text x="-270" y="46" transform="rotate(270)" text-anchor="middle" style="font-weight:bold;font-size:13px;stroke:none; fill:#434343"><tspan dy="14" x="-270">SwimLane</tspan></text></g><rect x="40" y="322" width="801" height="104" ry="0" rx="0" style="stroke:#000000; fill:#D0DAAE" /><g componentSequence="11"><text x="-374" y="46" transform="rotate(270)" text-anchor="middle" style="font-weight:bold;font-size:13px;stroke:none; fill:#434343"><tspan dy="14" x="-374">SwimLane</tspan></text></g><rect x="40" y="114" width="801" height="104" ry="0" rx="0" style="stroke:#000000; fill:#ADC9AC" /><g componentSequence="10"><text x="-166" y="46" transform="rotate(270)" text-anchor="middle" style="font-weight:bold;font-size:13px;stroke:none; fill:#434343"><tspan dy="14" x="-166">SwimLane</tspan></text></g><rect x="40" y="10" width="801" height="104" ry="0" rx="0" style="stroke:#000000; fill:#82B0B7" /><g componentSequence="9"><text x="-62" y="46" transform="rotate(270)" text-anchor="middle" style="font-weight:bold;font-size:13px;stroke:none; fill:#434343"><tspan dy="14" x="-62">Solicitante</tspan></text></g><g componentSequence="1"><text x="-530" y="15" transform="rotate(270)" text-anchor="middle" style="font-weight:bold;font-size:10px;stroke:none; fill:#434343"><tspan dy="14" x="-530">Emissão de Certificados</tspan></text></g><g sequence="4"><ellipse cx="97" cy="67" rx="17" ry="17" stroke-width="1" style="fill:url(#linearGradient66FF6696FF96B6FFB6_1642869053);" stroke="336633" /></g><g sequence="13"><polygon points=" 200 49 230 19 260 49 230 79 200 49" style="fill:url(#linearGradientFAFBFCFFFFCC_1865143152);" stroke="000000" /></g><g componentSequence="13"><text x="230" y="89" text-anchor="middle" style="font-weight:bold;font-size:13px;stroke:none; fill:#333399"><tspan dy="14" x="230">Exclusiv</tspan><tspan dy="14" x="230">o</tspan></text></g><g sequence="15"><polygon points=" 350 161 380 131 410 161 380 191 350 161" style="fill:url(#linearGradientFAFBFCFFFFCC_1796495949);" stroke="000000" /></g><path style="fill:none; stroke-width:6; stroke:#000000;" d="M370.0 161.0 L390.0 161.0" /><path style="fill:none; stroke-width:6; stroke:#000000;" d="M380.0 151.0 L380.0 171.0" /><g componentSequence="15"><text x="380" y="192" text-anchor="middle" style="font-weight:bold;font-size:13px;stroke:none; fill:#333399"><tspan dy="14" x="380">Paralelo</tspan></text></g><g sequence="20"><rect x="177" y="259" width="106" height="53" ry="5" rx="5" style="fill:url(#linearGradientF8FBFEEDF5FCDEEDFAD4E7F8E2E5E9_773249355);" stroke="191970" /></g><g componentSequence="20"><text x="230" y="274" text-anchor="middle" style="font-weight:bold;font-size:13px;stroke:none; fill:#333399"><tspan dy="14" x="230">Prontuário</tspan></text></g><g sequence="21"><rect x="180" y="360" width="106" height="65" ry="5" rx="5" style="fill:url(#linearGradientF8FBFEEDF5FCDEEDFAD4E7F8E2E5E9_787701869);" stroke="191970" /></g><g componentSequence="21"><text x="233" y="375" text-anchor="middle" style="font-weight:bold;font-size:13px;stroke:none; fill:#333399"><tspan dy="14" x="233">Departamento</tspan><tspan dy="14" x="233">Financeiro</tspan></text></g><g sequence="22"><rect x="180" y="439" width="106" height="90" ry="5" rx="5" style="fill:url(#linearGradientF8FBFEEDF5FCDEEDFAD4E7F8E2E5E9_527603344);" stroke="191970" /></g><g componentSequence="22"><text x="233" y="454" text-anchor="middle" style="font-weight:bold;font-size:13px;stroke:none; fill:#333399"><tspan dy="14" x="233">Comitê de Ética</tspan><tspan dy="14" x="233">em</tspan><tspan dy="14" x="233">Pesquisas/Post</tspan><tspan dy="14" x="233">er</tspan></text></g><g sequence="23"><rect x="177" y="569" width="106" height="53" ry="5" rx="5" style="fill:url(#linearGradientF8FBFEEDF5FCDEEDFAD4E7F8E2E5E9_1451061505);" stroke="191970" /></g><g componentSequence="23"><text x="230" y="584" text-anchor="middle" style="font-weight:bold;font-size:13px;stroke:none; fill:#333399"><tspan dy="14" x="230">Acadêmico</tspan></text></g><g sequence="27"><rect x="180" y="655" width="106" height="78" ry="5" rx="5" style="fill:url(#linearGradientF8FBFEEDF5FCDEEDFAD4E7F8E2E5E9_1312368132);" stroke="191970" /></g><g componentSequence="27"><text x="233" y="670" text-anchor="middle" style="font-weight:bold;font-size:13px;stroke:none; fill:#333399"><tspan dy="14" x="233">Empréstimos de</tspan><tspan dy="14" x="233">armários</tspan><tspan dy="14" x="233">(Clínica)</tspan></text></g><g sequence="28"><rect x="180" y="748" width="106" height="102" ry="5" rx="5" style="fill:url(#linearGradientF8FBFEEDF5FCDEEDFAD4E7F8E2E5E9_2080163750);" stroke="191970" /></g><g componentSequence="28"><text x="233" y="763" text-anchor="middle" style="font-weight:bold;font-size:13px;stroke:none; fill:#333399"><tspan dy="14" x="233">Depto.</tspan><tspan dy="14" x="233">Financeiro</tspan><tspan dy="14" x="233">Liberação para</tspan><tspan dy="14" x="233">Qualificação e</tspan><tspan dy="14" x="233">Defesa</tspan></text></g><g sequence="36"><polygon points=" 420 883 450 853 480 883 450 913 420 883" style="fill:url(#linearGradientFAFBFCFFFFCC_1882261599);" stroke="000000" /></g><path style="fill:none; stroke-width:6; stroke:#000000;" d="M440.0 883.0 L460.0 883.0" /><path style="fill:none; stroke-width:6; stroke:#000000;" d="M450.0 873.0 L450.0 893.0" /><g componentSequence="36"><text x="450" y="914" text-anchor="middle" style="font-weight:bold;font-size:13px;stroke:none; fill:#333399"><tspan dy="14" x="450">Join</tspan></text></g><g sequence="43"><ellipse cx="449" cy="1017" rx="17" ry="17" stroke-width="3" style="fill:url(#linearGradientFF6666FF9696FFB6B6_1299814945);" stroke="993333" /></g><g sequence="45"><polygon points=" 580 161 610 131 640 161 610 191 580 161" style="fill:url(#linearGradientFAFBFCFFFFCC_1249352844);" stroke="000000" /></g><path style="fill:none; stroke-width:6; stroke:#000000;" d="M600.0 161.0 L620.0 161.0" /><path style="fill:none; stroke-width:6; stroke:#000000;" d="M610.0 151.0 L610.0 171.0" /><g componentSequence="45"><text x="610" y="192" text-anchor="middle" style="font-weight:bold;font-size:13px;stroke:none; fill:#333399"><tspan dy="14" x="610">Paralelo</tspan></text></g><g sequence="47"><rect x="700" y="868" width="106" height="53" ry="5" rx="5" style="fill:url(#linearGradientF8FBFEEDF5FCDEEDFAD4E7F8E2E5E9_1470866323);" stroke="191970" /></g><g componentSequence="47"><text x="753" y="883" text-anchor="middle" style="font-weight:bold;font-size:13px;stroke:none; fill:#333399"><tspan dy="14" x="753">Biblioteca</tspan></text></g><rect x="150" y="146" width="105" height="62" ry="5" rx="5" style="stroke:none; fill:#FFFFE0" /><g componentSequence="57"><text x="160" y="169" text-anchor="left" style="font-weight:bold;font-size:13px;stroke:none; fill:#000000"><tspan dy="14" x="160">*Certificação</tspan><tspan dy="14" x="160">*Diploma</tspan></text></g><path style="fill:none; stroke-width:1; stroke:#000000;" d="M170.0 146.0 L150.0 146.0 L150.0 208.0 L170.0 208.0" /><rect x="660" y="36" width="105" height="55" ry="5" rx="5" style="stroke:none; fill:#FFFFE0" /><g componentSequence="59"><text x="670" y="59" text-anchor="left" style="font-weight:bold;font-size:13px;stroke:none; fill:#000000"><tspan dy="14" x="670">Qualificação /</tspan><tspan dy="14" x="670">Defesa</tspan></text></g><path style="fill:none; stroke-width:1; stroke:#000000;" d="M680.0 36.0 L660.0 36.0 L660.0 91.0 L680.0 91.0" /><g componentSequence="14"><text x="167" y="67" style="font-size:10px;font-weight:none;stroke:none; fill:#333399" text-anchor="left" /></g><g componentSequence="17"><text x="362" y="65" style="font-size:10px;font-weight:none;stroke:none; fill:#333399" text-anchor="left" /></g><g componentSequence="29"><text x="375" y="284" style="font-size:10px;font-weight:none;stroke:none; fill:#333399" text-anchor="left" /></g><g componentSequence="30"><text x="387" y="350" style="font-size:10px;font-weight:none;stroke:none; fill:#333399" text-anchor="left" /></g><g componentSequence="31"><text x="388" y="395" style="font-size:10px;font-weight:none;stroke:none; fill:#333399" text-anchor="left" /></g><g componentSequence="32"><text x="388" y="453" style="font-size:10px;font-weight:none;stroke:none; fill:#333399" text-anchor="left" /></g><g componentSequence="33"><text x="388" y="500" style="font-size:10px;font-weight:none;stroke:none; fill:#333399" text-anchor="left" /></g><g componentSequence="34"><text x="388" y="552" style="font-size:10px;font-weight:none;stroke:none; fill:#333399" text-anchor="left" /></g><g componentSequence="37"><text x="103" y="714" style="font-size:10px;font-weight:none;stroke:none; fill:#333399" text-anchor="left" /></g><g componentSequence="38"><text x="102" y="767" style="font-size:10px;font-weight:none;stroke:none; fill:#333399" text-anchor="left" /></g><g componentSequence="39"><text x="106" y="813" style="font-size:10px;font-weight:none;stroke:none; fill:#333399" text-anchor="left" /></g><g componentSequence="40"><text x="102" y="870" style="font-size:10px;font-weight:none;stroke:none; fill:#333399" text-anchor="left" /></g><g componentSequence="41"><text x="116" y="896" style="font-size:10px;font-weight:none;stroke:none; fill:#333399" text-anchor="left" /></g><g componentSequence="42"><text x="174" y="900" style="font-size:10px;font-weight:none;stroke:none; fill:#333399" text-anchor="left" /></g><g componentSequence="44"><text x="459" y="969" style="font-size:10px;font-weight:none;stroke:none; fill:#333399" text-anchor="left" /></g><g componentSequence="46"><text x="477" y="66" style="font-size:10px;font-weight:none;stroke:none; fill:#333399" text-anchor="left" /></g><g componentSequence="48"><text x="762" y="463" style="font-size:10px;font-weight:none;stroke:none; fill:#333399" text-anchor="left" /></g><g componentSequence="49"><text x="490" y="284" style="font-size:10px;font-weight:none;stroke:none; fill:#333399" text-anchor="left" /></g><g componentSequence="50"><text x="545" y="392" style="font-size:10px;font-weight:none;stroke:none; fill:#333399" text-anchor="left" /></g><g componentSequence="51"><text x="591" y="484" style="font-size:10px;font-weight:none;stroke:none; fill:#333399" text-anchor="left" /></g><g componentSequence="52"><text x="618" y="569" style="font-size:10px;font-weight:none;stroke:none; fill:#333399" text-anchor="left" /></g><g componentSequence="53"><text x="618" y="615" style="font-size:10px;font-weight:none;stroke:none; fill:#333399" text-anchor="left" /></g><g componentSequence="54"><text x="618" y="668" style="font-size:10px;font-weight:none;stroke:none; fill:#333399" text-anchor="left" /></g><g componentSequence="56"><text x="600" y="895" style="font-size:10px;font-weight:none;stroke:none; fill:#333399" text-anchor="left" /></g><g componentSequence="58"><text x="312" y="174" style="font-size:10px;font-weight:none;stroke:none; fill:#333399" text-anchor="left" /></g><g componentSequence="60"><text x="673" y="116" style="font-size:10px;font-weight:none;stroke:none; fill:#333399" text-anchor="left" /></g><path style="fill:none; stroke:#000000;stroke-width:1" d="M115.0 67.0 L199.0 67.0" /><polygon style="fill:#000000; stroke:#000000;" points=" 189 62 199 67 189 72 191 67" /><path style="fill:none; stroke:#000000;stroke-width:1" d="M260.0 67.0 L380.0 65.0 L380.0 130.0" /><polygon style="fill:#000000; stroke:#000000;" points=" 385 120 380 130 375 120 380 122" /><path style="fill:none; stroke:#000000;stroke-width:1" d="M260.0 67.0 L608.0 65.0 L609.0 130.0" /><polygon style="fill:#000000; stroke:#000000;" points=" 614 120 609 130 604 120 609 122" /><path style="fill:none; stroke:#000000;stroke-width:1" d="M380.0 216.0 L380.0 284.0 L283.0 285.0" /><polygon style="fill:#000000; stroke:#000000;" points=" 293 290 283 285 293 280 291 285" /><path style="fill:none; stroke:#000000;stroke-width:1" d="M379.0 216.0 L377.0 393.0 L286.0 392.0" /><polygon style="fill:#000000; stroke:#000000;" points=" 296 397 286 392 296 387 294 392" /><path style="fill:none; stroke:#000000;stroke-width:1" d="M379.0 216.0 L377.0 484.0 L286.0 484.0" /><polygon style="fill:#000000; stroke:#000000;" points=" 296 489 286 484 296 479 294 484" /><path style="fill:none; stroke:#000000;stroke-width:1" d="M379.0 216.0 L377.0 596.0 L283.0 595.0" /><polygon style="fill:#000000; stroke:#000000;" points=" 293 600 283 595 293 590 291 595" /><path style="fill:none; stroke:#000000;stroke-width:1" d="M379.0 216.0 L377.0 692.0 L286.0 693.0" /><polygon style="fill:#000000; stroke:#000000;" points=" 296 698 286 693 296 688 294 693" /><path style="fill:none; stroke:#000000;stroke-width:1" d="M379.0 216.0 L377.0 796.0 L286.0 798.0" /><polygon style="fill:#000000; stroke:#000000;" points=" 296 803 286 798 296 793 294 798" /><path style="fill:none; stroke:#000000;stroke-dasharray:2" d="M255.0 175.0 L349.0 174.0" /><path style="fill:none; stroke:#000000;stroke-width:1" d="M176.0 285.0 L94.0 284.0 L93.0 900.0 L419.0 895.0" /><polygon style="fill:#000000; stroke:#000000;" points=" 409 890 419 895 409 900 411 895" /><path style="fill:none; stroke:#000000;stroke-width:1" d="M609.0 216.0 L608.0 284.0 L283.0 285.0" /><polygon style="fill:#000000; stroke:#000000;" points=" 293 290 283 285 293 280 291 285" /><path style="fill:none; stroke:#000000;stroke-width:1" d="M179.0 392.0 L92.0 393.0 L92.0 900.0 L419.0 895.0" /><polygon style="fill:#000000; stroke:#000000;" points=" 409 890 419 895 409 900 411 895" /><path style="fill:none; stroke:#000000;stroke-width:1" d="M609.0 216.0 L608.0 392.0 L286.0 392.0" /><polygon style="fill:#000000; stroke:#000000;" points=" 296 397 286 392 296 387 294 392" /><path style="fill:none; stroke:#000000;stroke-width:1" d="M179.0 484.0 L96.0 485.0 L96.0 900.0 L419.0 895.0" /><polygon style="fill:#000000; stroke:#000000;" points=" 409 890 419 895 409 900 411 895" /><path style="fill:none; stroke:#000000;stroke-width:1" d="M609.0 216.0 L608.0 484.0 L286.0 484.0" /><polygon style="fill:#000000; stroke:#000000;" points=" 296 489 286 484 296 479 294 484" /><path style="fill:none; stroke:#000000;stroke-width:1" d="M176.0 595.0 L92.0 596.0 L92.0 900.0 L419.0 895.0" /><polygon style="fill:#000000; stroke:#000000;" points=" 409 890 419 895 409 900 411 895" /><path style="fill:none; stroke:#000000;stroke-width:1" d="M609.0 216.0 L608.0 596.0 L283.0 595.0" /><polygon style="fill:#000000; stroke:#000000;" points=" 293 600 283 595 293 590 291 595" /><path style="fill:none; stroke:#000000;stroke-width:1" d="M179.0 693.0 L88.0 692.0 L88.0 896.0 L419.0 895.0" /><polygon style="fill:#000000; stroke:#000000;" points=" 409 890 419 895 409 900 411 895" /><path style="fill:none; stroke:#000000;stroke-width:1" d="M609.0 216.0 L608.0 692.0 L286.0 693.0" /><polygon style="fill:#000000; stroke:#000000;" points=" 296 698 286 693 296 688 294 693" /><path style="fill:none; stroke:#000000;stroke-width:1" d="M179.0 798.0 L96.0 797.0 L96.0 901.0 L419.0 896.0" /><polygon style="fill:#000000; stroke:#000000;" points=" 409 891 419 896 409 901 411 896" /><path style="fill:none; stroke:#000000;stroke-width:1" d="M609.0 216.0 L608.0 797.0 L286.0 798.0" /><polygon style="fill:#000000; stroke:#000000;" points=" 296 803 286 798 296 793 294 798" /><path style="fill:none; stroke:#000000;stroke-width:1" d="M449.0 938.0 L449.0 1000.0" /><polygon style="fill:#000000; stroke:#000000;" points=" 454 990 449 1000 444 990 449 992" /><path style="fill:none; stroke:#000000;stroke-width:1" d="M699.0 894.0 L480.0 895.0" /><polygon style="fill:#000000; stroke:#000000;" points=" 490 900 480 895 490 890 488 895" /><path style="fill:none; stroke:#000000;stroke-width:1" d="M640.0 173.0 L752.0 172.0 L752.0 867.0" /><polygon style="fill:#000000; stroke:#000000;" points=" 757 857 752 867 747 857 752 859" /><path style="fill:none; stroke:#000000;stroke-dasharray:2" d="M686.0 91.0 L640.0 140.0" /><defs><linearGradient xmlns:xlink="http://www.w3.org/1999/xlink" xlink:href="#linearGradient66FF6696FF96B6FFB6" id="linearGradient66FF6696FF96B6FFB6_1642869053" x1="0" y1="50.0" x2="0" y2="85.0" gradientUnits="userSpaceOnUse" xlink:type="simple" xlink:actuate="onLoad" xlink:show="other" /><linearGradient id="linearGradient66FF6696FF96B6FFB6"><stop style="stop-color:#66FF66;stop-opacity:1;" offset="0.0" id="stop66FF66" /><stop style="stop-color:#96FF96;stop-opacity:1;" offset="0.5" id="stop96FF96" /><stop style="stop-color:#B6FFB6;stop-opacity:1;" offset="1.0" id="stopB6FFB6" /></linearGradient><linearGradient xmlns:xlink="http://www.w3.org/1999/xlink" xlink:href="#linearGradientFAFBFCFFFFCC" id="linearGradientFAFBFCFFFFCC_1865143152" x1="0" y1="19.0" x2="0" y2="79.0" gradientUnits="userSpaceOnUse" xlink:type="simple" xlink:actuate="onLoad" xlink:show="other" /><linearGradient id="linearGradientFAFBFCFFFFCC"><stop style="stop-color:#FAFBFC;stop-opacity:1;" offset="0.0" id="stopFAFBFC" /><stop style="stop-color:#FFFFCC;stop-opacity:1;" offset="1.0" id="stopFFFFCC" /></linearGradient><linearGradient xmlns:xlink="http://www.w3.org/1999/xlink" xlink:href="#linearGradientFAFBFCFFFFCC" id="linearGradientFAFBFCFFFFCC_1796495949" x1="0" y1="131.0" x2="0" y2="191.0" gradientUnits="userSpaceOnUse" xlink:type="simple" xlink:actuate="onLoad" xlink:show="other" /><linearGradient xmlns:xlink="http://www.w3.org/1999/xlink" xlink:href="#linearGradientF8FBFEEDF5FCDEEDFAD4E7F8E2E5E9" id="linearGradientF8FBFEEDF5FCDEEDFAD4E7F8E2E5E9_773249355" x1="0" y1="259.0" x2="0" y2="365.0" gradientUnits="userSpaceOnUse" xlink:type="simple" xlink:actuate="onLoad" xlink:show="other" /><linearGradient id="linearGradientF8FBFEEDF5FCDEEDFAD4E7F8E2E5E9"><stop style="stop-color:#F8FBFE;stop-opacity:1;" offset="0.0" id="stopF8FBFE" /><stop style="stop-color:#EDF5FC;stop-opacity:1;" offset="0.25" id="stopEDF5FC" /><stop style="stop-color:#DEEDFA;stop-opacity:1;" offset="0.5" id="stopDEEDFA" /><stop style="stop-color:#D4E7F8;stop-opacity:1;" offset="0.75" id="stopD4E7F8" /><stop style="stop-color:#E2E5E9;stop-opacity:1;" offset="1.0" id="stopE2E5E9" /></linearGradient><linearGradient xmlns:xlink="http://www.w3.org/1999/xlink" xlink:href="#linearGradientF8FBFEEDF5FCDEEDFAD4E7F8E2E5E9" id="linearGradientF8FBFEEDF5FCDEEDFAD4E7F8E2E5E9_787701869" x1="0" y1="360.0" x2="0" y2="466.0" gradientUnits="userSpaceOnUse" xlink:type="simple" xlink:actuate="onLoad" xlink:show="other" /><linearGradient xmlns:xlink="http://www.w3.org/1999/xlink" xlink:href="#linearGradientF8FBFEEDF5FCDEEDFAD4E7F8E2E5E9" id="linearGradientF8FBFEEDF5FCDEEDFAD4E7F8E2E5E9_527603344" x1="0" y1="439.0" x2="0" y2="545.0" gradientUnits="userSpaceOnUse" xlink:type="simple" xlink:actuate="onLoad" xlink:show="other" /><linearGradient xmlns:xlink="http://www.w3.org/1999/xlink" xlink:href="#linearGradientF8FBFEEDF5FCDEEDFAD4E7F8E2E5E9" id="linearGradientF8FBFEEDF5FCDEEDFAD4E7F8E2E5E9_1451061505" x1="0" y1="569.0" x2="0" y2="675.0" gradientUnits="userSpaceOnUse" xlink:type="simple" xlink:actuate="onLoad" xlink:show="other" /><linearGradient xmlns:xlink="http://www.w3.org/1999/xlink" xlink:href="#linearGradientF8FBFEEDF5FCDEEDFAD4E7F8E2E5E9" id="linearGradientF8FBFEEDF5FCDEEDFAD4E7F8E2E5E9_1312368132" x1="0" y1="655.0" x2="0" y2="761.0" gradientUnits="userSpaceOnUse" xlink:type="simple" xlink:actuate="onLoad" xlink:show="other" /><linearGradient xmlns:xlink="http://www.w3.org/1999/xlink" xlink:href="#linearGradientF8FBFEEDF5FCDEEDFAD4E7F8E2E5E9" id="linearGradientF8FBFEEDF5FCDEEDFAD4E7F8E2E5E9_2080163750" x1="0" y1="748.0" x2="0" y2="854.0" gradientUnits="userSpaceOnUse" xlink:type="simple" xlink:actuate="onLoad" xlink:show="other" /><linearGradient xmlns:xlink="http://www.w3.org/1999/xlink" xlink:href="#linearGradientFAFBFCFFFFCC" id="linearGradientFAFBFCFFFFCC_1882261599" x1="0" y1="853.0" x2="0" y2="913.0" gradientUnits="userSpaceOnUse" xlink:type="simple" xlink:actuate="onLoad" xlink:show="other" /><linearGradient xmlns:xlink="http://www.w3.org/1999/xlink" xlink:href="#linearGradientFF6666FF9696FFB6B6" id="linearGradientFF6666FF9696FFB6B6_1299814945" x1="0" y1="1000.0" x2="0" y2="1035.0" gradientUnits="userSpaceOnUse" xlink:type="simple" xlink:actuate="onLoad" xlink:show="other" /><linearGradient id="linearGradientFF6666FF9696FFB6B6"><stop style="stop-color:#FF6666;stop-opacity:1;" offset="0.0" id="stopFF6666" /><stop style="stop-color:#FF9696;stop-opacity:1;" offset="0.5" id="stopFF9696" /><stop style="stop-color:#FFB6B6;stop-opacity:1;" offset="1.0" id="stopFFB6B6" /></linearGradient><linearGradient xmlns:xlink="http://www.w3.org/1999/xlink" xlink:href="#linearGradientFAFBFCFFFFCC" id="linearGradientFAFBFCFFFFCC_1249352844" x1="0" y1="131.0" x2="0" y2="191.0" gradientUnits="userSpaceOnUse" xlink:type="simple" xlink:actuate="onLoad" xlink:show="other" /><linearGradient xmlns:xlink="http://www.w3.org/1999/xlink" xlink:href="#linearGradientF8FBFEEDF5FCDEEDFAD4E7F8E2E5E9" id="linearGradientF8FBFEEDF5FCDEEDFAD4E7F8E2E5E9_1470866323" x1="0" y1="868.0" x2="0" y2="974.0" gradientUnits="userSpaceOnUse" xlink:type="simple" xlink:actuate="onLoad" xlink:show="other" /></defs></svg>
