<?xml version="1.0" encoding="UTF-8"?>
<svg xmlns="http://www.w3.org/2000/svg" style="stroke-dasharray:none; shape-rendering:auto; font-family:'Arial'; text-rendering:auto; fill-opacity:1; color-interpolation:auto; color-rendering:auto; font-size:12; fill:black; stroke:black; image-rendering:auto; stroke-miterlimit:10; stroke-linecap:square; stroke-linejoin:miter; font-style:normal; stroke-width:1; stroke-dashoffset:0; font-weight:normal; stroke-opacity:1;" contentScriptType="text/ecmascript" preserveAspectRatio="xMidYMid meet" zoomAndPan="magnify" version="1.0" contentStyleType="text/css" xml:xlink="http://www.w3.org/1999/xlink" width="1279" height="1661"><rect x="179" y="576" width="920" height="145" ry="0" rx="0" style="stroke:#000000; fill:#FFFFFF" /><g componentSequence="10"><text x="-648" y="185" transform="rotate(270)" text-anchor="middle" style="font-weight:bold;font-size:13px;stroke:none; fill:#434343"><tspan dy="14" x="-648">Diretor Presidente</tspan></text></g><rect x="1099" y="0" width="180" height="720" ry="0" rx="0" style="stroke:#000000; fill:#C1C4C3" /><g componentSequence="1"><text x="-360" y="1105" transform="rotate(270)" text-anchor="middle" style="font-weight:bold;font-size:13px;stroke:none; fill:#434343"><tspan dy="14" x="-360">Aprovado</tspan></text></g><rect x="179" y="288" width="920" height="145" ry="0" rx="0" style="stroke:#000000; fill:#FFFFFF" /><g componentSequence="6"><text x="-360" y="185" transform="rotate(270)" text-anchor="middle" style="font-weight:bold;font-size:13px;stroke:none; fill:#434343"><tspan dy="14" x="-360">Gerente Regional</tspan></text></g><rect x="0" y="0" width="180" height="1660" ry="0" rx="0" style="stroke:#000000; fill:#C1C5C3" /><g componentSequence="7"><text x="-830" y="6" transform="rotate(270)" text-anchor="middle" style="font-weight:bold;font-size:13px;stroke:none; fill:#434343"><tspan dy="14" x="-830">Reprovar</tspan></text></g><rect x="123" y="720" width="1156" height="941" ry="0" rx="0" style="stroke:#000000; fill:#FFFFFF" /><g componentSequence="2"><text x="-1190" y="129" transform="rotate(270)" text-anchor="middle" style="font-weight:bold;font-size:13px;stroke:none; fill:#434343"><tspan dy="14" x="-1190">Logística</tspan></text></g><rect x="57" y="860" width="981" height="145" ry="0" rx="0" style="stroke:#000000; fill:#C0C0C0" /><g componentSequence="5"><text x="-932" y="63" transform="rotate(270)" text-anchor="middle" style="font-weight:bold;font-size:13px;stroke:none; fill:#434343"><tspan dy="14" x="-932">Diretor Presidente</tspan></text></g><rect x="299" y="144" width="801" height="145" ry="0" rx="0" style="stroke:#000000; fill:#C0C0C0" /><g componentSequence="8"><text x="-216" y="305" transform="rotate(270)" text-anchor="middle" style="font-weight:bold;font-size:13px;stroke:none; fill:#434343"><tspan dy="14" x="-216">Supervisor vendas</tspan></text></g><rect x="179" y="144" width="920" height="145" ry="0" rx="0" style="stroke:#000000; fill:#FFFFFF" /><g componentSequence="3"><text x="-216" y="185" transform="rotate(270)" text-anchor="middle" style="font-weight:bold;font-size:13px;stroke:none; fill:#434343"><tspan dy="14" x="-216">Supervisor vendas</tspan></text></g><rect x="179" y="0" width="920" height="145" ry="0" rx="0" style="stroke:#000000; fill:#FFFFFF" /><g componentSequence="9"><text x="-72" y="185" transform="rotate(270)" text-anchor="middle" style="font-weight:bold;font-size:13px;stroke:none; fill:#434343"><tspan dy="14" x="-72">Solicitante</tspan></text></g><rect x="179" y="432" width="920" height="145" ry="0" rx="0" style="stroke:#000000; fill:#FFFFFF" /><g componentSequence="4"><text x="-504" y="185" transform="rotate(270)" text-anchor="middle" style="font-weight:bold;font-size:13px;stroke:none; fill:#434343"><tspan dy="14" x="-504">Diretor Vendas</tspan></text></g><g sequence="4"><ellipse cx="441" cy="56" rx="17" ry="17" stroke-width="1" style="fill:url(#linearGradient66FF6696FF96B6FFB6_334345601);" stroke="336633" /></g><g sequence="5"><rect x="389" y="200" width="106" height="76" ry="5" rx="5" style="fill:url(#linearGradientF8FBFEEDF5FCDEEDFAD4E7F8E2E5E9_489314700);" stroke="191970" /></g><g componentSequence="5"><text x="442" y="215" text-anchor="middle" style="font-weight:bold;font-size:13px;stroke:none; fill:#333399"><tspan dy="14" x="442">Aprovação</tspan><tspan dy="14" x="442">Supervisor</tspan><tspan dy="14" x="442">Vendas</tspan></text></g><g sequence="12"><rect x="389" y="333" width="106" height="76" ry="5" rx="5" style="fill:url(#linearGradientF8FBFEEDF5FCDEEDFAD4E7F8E2E5E9_420863729);" stroke="191970" /></g><g componentSequence="12"><text x="442" y="348" text-anchor="middle" style="font-weight:bold;font-size:13px;stroke:none; fill:#333399"><tspan dy="14" x="442">Aprovação</tspan><tspan dy="14" x="442">Gerente</tspan><tspan dy="14" x="442">Regional</tspan></text></g><g sequence="13"><rect x="389" y="468" width="106" height="64" ry="5" rx="5" style="fill:url(#linearGradientF8FBFEEDF5FCDEEDFAD4E7F8E2E5E9_1545032631);" stroke="191970" /></g><g componentSequence="13"><text x="442" y="483" text-anchor="middle" style="font-weight:bold;font-size:13px;stroke:none; fill:#333399"><tspan dy="14" x="442">Aprovação</tspan><tspan dy="14" x="442">Diretor Vendas</tspan></text></g><g sequence="15"><rect x="389" y="618" width="106" height="76" ry="5" rx="5" style="fill:url(#linearGradientF8FBFEEDF5FCDEEDFAD4E7F8E2E5E9_581477385);" stroke="191970" /></g><g componentSequence="15"><text x="442" y="633" text-anchor="middle" style="font-weight:bold;font-size:13px;stroke:none; fill:#333399"><tspan dy="14" x="442">Aprovação</tspan><tspan dy="14" x="442">Diretor ou</tspan><tspan dy="14" x="442">Presidente</tspan></text></g><g sequence="16"><polygon points=" 829 220 859 190 889 220 859 250 829 220" style="fill:url(#linearGradientFAFBFCFFFFCC_1828810729);" stroke="000000" /></g><g componentSequence="16"><text x="859" y="260" text-anchor="middle" style="font-weight:bold;font-size:13px;stroke:none; fill:#333399"><tspan dy="14" x="859">Aprovaç</tspan><tspan dy="14" x="859">ão</tspan></text></g><g sequence="18"><polygon points=" 829 353 859 323 889 353 859 383 829 353" style="fill:url(#linearGradientFAFBFCFFFFCC_1515505390);" stroke="000000" /></g><g componentSequence="18"><text x="859" y="393" text-anchor="middle" style="font-weight:bold;font-size:13px;stroke:none; fill:#333399"><tspan dy="14" x="859">Aprovaç</tspan><tspan dy="14" x="859">ão</tspan></text></g><g sequence="20"><polygon points=" 829 482 859 452 889 482 859 512 829 482" style="fill:url(#linearGradientFAFBFCFFFFCC_1010347256);" stroke="000000" /></g><g componentSequence="20"><text x="859" y="522" text-anchor="middle" style="font-weight:bold;font-size:13px;stroke:none; fill:#333399"><tspan dy="14" x="859">Aprovaç</tspan><tspan dy="14" x="859">ão</tspan></text></g><g sequence="22"><polygon points=" 829 638 859 608 889 638 859 668 829 638" style="fill:url(#linearGradientFAFBFCFFFFCC_1532485530);" stroke="000000" /></g><g componentSequence="22"><text x="859" y="678" text-anchor="middle" style="font-weight:bold;font-size:13px;stroke:none; fill:#333399"><tspan dy="14" x="859">Aprovaç</tspan><tspan dy="14" x="859">ão</tspan></text></g><g sequence="33"><polygon points=" 1176 359 1206 329 1236 359 1206 389 1176 359" style="fill:url(#linearGradientFAFBFCFFFFCC_1037012286);" stroke="000000" /></g><path style="fill:none; stroke-width:6; stroke:#000000;" d="M1196.0 359.0 L1216.0 359.0" /><path style="fill:none; stroke-width:6; stroke:#000000;" d="M1206.0 349.0 L1206.0 369.0" /><g componentSequence="33"><text x="1206" y="390" text-anchor="middle" style="font-weight:bold;font-size:13px;stroke:none; fill:#333399"><tspan dy="14" x="1206">Join</tspan></text></g><g sequence="39"><polygon points=" 769 760 799 730 829 760 799 790 769 760" style="fill:url(#linearGradientFAFBFCFFFFCC_1095782367);" stroke="000000" /></g><g componentSequence="39"><text x="799" y="800" text-anchor="middle" style="font-weight:bold;font-size:13px;stroke:none; fill:#333399"><tspan dy="14" x="799">Doc.</tspan><tspan dy="14" x="799">Versão 1</tspan><tspan dy="14" x="799">?</tspan></text></g><g sequence="42"><rect x="399" y="904" width="106" height="64" ry="5" rx="5" style="fill:url(#linearGradientF8FBFEEDF5FCDEEDFAD4E7F8E2E5E9_947287137);" stroke="191970" /></g><g componentSequence="42"><text x="452" y="919" text-anchor="middle" style="font-weight:bold;font-size:13px;stroke:none; fill:#333399"><tspan dy="14" x="452">Comparar</tspan><tspan dy="14" x="452">Descritivo</tspan></text></g><g sequence="44"><rect x="746" y="904" width="106" height="64" ry="5" rx="5" style="fill:url(#linearGradientF8FBFEEDF5FCDEEDFAD4E7F8E2E5E9_1564006394);" stroke="191970" /></g><g componentSequence="44"><text x="799" y="919" text-anchor="middle" style="font-weight:bold;font-size:13px;stroke:none; fill:#333399"><tspan dy="14" x="799">Encontro de</tspan><tspan dy="14" x="799">Notas</tspan></text></g><g sequence="46"><ellipse cx="1206" cy="1217" rx="17" ry="17" stroke-width="3" style="fill:url(#linearGradientFF6666FF9696FFB6B6_475993886);" stroke="993333" /></g><g sequence="50"><rect x="1154" y="910" width="106" height="52" ry="5" rx="5" style="fill:url(#linearGradientF8FBFEEDF5FCDEEDFAD4E7F8E2E5E9_1605537277);" stroke="191970" /></g><g componentSequence="50"><text x="1207" y="925" text-anchor="middle" style="font-weight:bold;font-size:13px;stroke:none; fill:#333399"><tspan dy="14" x="1207">Suspenso</tspan></text></g><g sequence="57"><polygon points=" 421 1349 451 1319 481 1349 451 1379 421 1349" style="fill:url(#linearGradientFAFBFCFFFFCC_1424768790);" stroke="000000" /></g><g componentSequence="57"><text x="451" y="1389" text-anchor="middle" style="font-weight:bold;font-size:13px;stroke:none; fill:#333399"><tspan dy="14" x="451">Possui</tspan><tspan dy="14" x="451">Diferenç</tspan><tspan dy="14" x="451">a ?</tspan></text></g><g sequence="59"><rect x="747" y="1347" width="106" height="52" ry="5" rx="5" style="fill:url(#linearGradientF8FBFEEDF5FCDEEDFAD4E7F8E2E5E9_1332786550);" stroke="191970" /></g><g componentSequence="59"><text x="800" y="1362" text-anchor="middle" style="font-weight:bold;font-size:13px;stroke:none; fill:#333399"><tspan dy="14" x="800">Logística</tspan></text></g><g sequence="61"><polygon points=" 1048 1349 1078 1319 1108 1349 1078 1379 1048 1349" style="fill:url(#linearGradientFAFBFCFFFFCC_729005153);" stroke="000000" /></g><g componentSequence="61"><text x="1078" y="1389" text-anchor="middle" style="font-weight:bold;font-size:13px;stroke:none; fill:#333399"><tspan dy="14" x="1078">Retirar</tspan><tspan dy="14" x="1078">Destruir</tspan><tspan dy="14" x="1078">?</tspan></text></g><g sequence="63"><rect x="1153" y="1460" width="106" height="64" ry="5" rx="5" style="fill:url(#linearGradientF8FBFEEDF5FCDEEDFAD4E7F8E2E5E9_1625624983);" stroke="191970" /></g><g componentSequence="63"><text x="1206" y="1475" text-anchor="middle" style="font-weight:bold;font-size:13px;stroke:none; fill:#333399"><tspan dy="14" x="1206">Agendar</tspan><tspan dy="14" x="1206">Retirada</tspan></text></g><g sequence="65"><ellipse cx="1078" cy="1601" rx="17" ry="17" stroke-width="3" style="fill:url(#linearGradientFF6666FF9696FFB6B6_1438946834);" stroke="993333" /></g><g sequence="68"><rect x="209" y="1329" width="106" height="88" ry="5" rx="5" style="fill:url(#linearGradientF8FBFEEDF5FCDEEDFAD4E7F8E2E5E9_534074073);" stroke="191970" /></g><g componentSequence="68"><text x="262" y="1344" text-anchor="middle" style="font-weight:bold;font-size:13px;stroke:none; fill:#333399"><tspan dy="14" x="262">Aprovação</tspan><tspan dy="14" x="262">Diferença</tspan><tspan dy="14" x="262">Supervisor</tspan><tspan dy="14" x="262">Logística</tspan></text></g><g sequence="74"><polygon points=" 50 1530 80 1500 110 1530 80 1560 50 1530" style="fill:url(#linearGradientFAFBFCFFFFCC_695432694);" stroke="000000" /></g><g componentSequence="74"><text x="80" y="1570" text-anchor="middle" style="font-weight:bold;font-size:13px;stroke:none; fill:#333399"><tspan dy="14" x="80">Aprovad</tspan><tspan dy="14" x="80">o</tspan></text></g><g sequence="93"><polygon points=" 210 226 240 196 270 226 240 256 210 226" style="fill:url(#linearGradientFAFBFCFFFFCC_1641197798);" stroke="000000" /></g><g componentSequence="93"><text x="240" y="257" text-anchor="middle" style="font-weight:bold;font-size:13px;stroke:none; fill:#333399"><tspan dy="14" x="240">Sup ?</tspan></text></g><g sequence="98"><polygon points=" 230 940 260 910 290 940 260 970 230 940" style="fill:url(#linearGradientFAFBFCFFFFCC_274194120);" stroke="000000" /></g><g componentSequence="98"><text x="260" y="980" text-anchor="middle" style="font-weight:bold;font-size:13px;stroke:none; fill:#333399"><tspan dy="14" x="260">Retornar</tspan><tspan dy="14" x="260">Avaliaçã</tspan><tspan dy="14" x="260">o</tspan></text></g><g sequence="107"><polygon points=" 1176 1590 1206 1560 1236 1590 1206 1620 1176 1590" style="fill:url(#linearGradientFAFBFCFFFFCC_631309697);" stroke="000000" /></g><path style="fill:none; stroke-width:6; stroke:#000000;" d="M1196.0 1590.0 L1216.0 1590.0" /><path style="fill:none; stroke-width:6; stroke:#000000;" d="M1206.0 1580.0 L1206.0 1600.0" /><g componentSequence="107"><text x="1206" y="1630" text-anchor="middle" style="font-weight:bold;font-size:13px;stroke:none; fill:#333399"><tspan dy="14" x="1206">Email</tspan><tspan dy="14" x="1206">Retirada</tspan></text></g><g sequence="110"><polygon points=" 1048 1500 1078 1470 1108 1500 1078 1530 1048 1500" style="fill:url(#linearGradientFAFBFCFFFFCC_399443974);" stroke="000000" /></g><path style="fill:none; stroke-width:6; stroke:#000000;" d="M1068.0 1500.0 L1088.0 1500.0" /><path style="fill:none; stroke-width:6; stroke:#000000;" d="M1078.0 1490.0 L1078.0 1510.0" /><g componentSequence="110"><text x="1078" y="1540" text-anchor="middle" style="font-weight:bold;font-size:13px;stroke:none; fill:#333399"><tspan dy="14" x="1078">Email</tspan><tspan dy="14" x="1078">Destr.</tspan></text></g><rect x="599" y="20" width="105" height="73" ry="5" rx="5" style="stroke:none; fill:#FFFFE0" /><g componentSequence="79"><text x="609" y="43" text-anchor="left" style="font-weight:bold;font-size:13px;stroke:none; fill:#000000"><tspan dy="14" x="609">Vendedor ou</tspan><tspan dy="14" x="609">supervisor</tspan><tspan dy="14" x="609">Preenche</tspan><tspan dy="14" x="609">Descritivo</tspan></text></g><path style="fill:none; stroke-width:1; stroke:#000000;" d="M619.0 20.0 L599.0 20.0 L599.0 93.0 L619.0 93.0" /><rect x="1153" y="50" width="105" height="193" ry="5" rx="5" style="stroke:none; fill:#FFFFE0" /><g componentSequence="81"><text x="1163" y="73" text-anchor="left" style="font-weight:bold;font-size:13px;stroke:none; fill:#000000"><tspan dy="14" x="1163">Após</tspan><tspan dy="14" x="1163">aprovação</tspan><tspan dy="14" x="1163">Sistema</tspan><tspan dy="14" x="1163">Dispara Email</tspan><tspan dy="14" x="1163">para o cliente</tspan><tspan dy="14" x="1163">dando Aval</tspan><tspan dy="14" x="1163">para emissão</tspan><tspan dy="14" x="1163">de Nota Fiscal</tspan><tspan dy="14" x="1163">de Devolução</tspan><tspan dy="14" x="1163">com prazo</tspan><tspan dy="14" x="1163">estipulado em</tspan><tspan dy="14" x="1163">60 dias para</tspan><tspan dy="14" x="1163">emissão da</tspan><tspan dy="14" x="1163">NFD</tspan></text></g><path style="fill:none; stroke-width:1; stroke:#000000;" d="M1173.0 50.0 L1153.0 50.0 L1153.0 243.0 L1173.0 243.0" /><rect x="160" y="680" width="105" height="241" ry="5" rx="5" style="stroke:none; fill:#FFFFE0" /><g componentSequence="83"><text x="170" y="703" text-anchor="left" style="font-weight:bold;font-size:13px;stroke:none; fill:#000000"><tspan dy="14" x="170">Logística/Rece</tspan><tspan dy="14" x="170">bimento</tspan><tspan dy="14" x="170">informa Chaves</tspan><tspan dy="14" x="170">NFD + valores,</tspan><tspan dy="14" x="170">em caso de</tspan><tspan dy="14" x="170">identificação de</tspan><tspan dy="14" x="170">produtos a</tspan><tspan dy="14" x="170">mais na NFD do</tspan><tspan dy="14" x="170">cliente deve</tspan><tspan dy="14" x="170">ser</tspan><tspan dy="14" x="170">encaminhada</tspan><tspan dy="14" x="170">para revisão</tspan><tspan dy="14" x="170">para Emissor</tspan><tspan dy="14" x="170">do Descritivo</tspan><tspan dy="14" x="170">complementar</tspan><tspan dy="14" x="170">informações,</tspan><tspan dy="14" x="170">gerando Docto.</tspan><tspan dy="14" x="170">versão 2</tspan></text></g><path style="fill:none; stroke-width:1; stroke:#000000;" d="M180.0 680.0 L160.0 680.0 L160.0 921.0 L180.0 921.0" /><rect x="549" y="1160" width="105" height="157" ry="5" rx="5" style="stroke:none; fill:#FFFFE0" /><g componentSequence="85"><text x="559" y="1183" text-anchor="left" style="font-weight:bold;font-size:13px;stroke:none; fill:#000000"><tspan dy="14" x="559">O critério para</tspan><tspan dy="14" x="559">encaminhamen</tspan><tspan dy="14" x="559">to de</tspan><tspan dy="14" x="559">aprovação de</tspan><tspan dy="14" x="559">diferenças</tspan><tspan dy="14" x="559">levará em</tspan><tspan dy="14" x="559">consideração</tspan><tspan dy="14" x="559">parâmetros de</tspan><tspan dy="14" x="559">tolerância por</tspan><tspan dy="14" x="559">percentual e/ou</tspan><tspan dy="14" x="559">valor mínimo.</tspan></text></g><path style="fill:none; stroke-width:1; stroke:#000000;" d="M569.0 1160.0 L549.0 1160.0 L549.0 1317.0 L569.0 1317.0" /><rect x="599" y="1420" width="105" height="85" ry="5" rx="5" style="stroke:none; fill:#FFFFE0" /><g componentSequence="87"><text x="609" y="1443" text-anchor="left" style="font-weight:bold;font-size:13px;stroke:none; fill:#000000"><tspan dy="14" x="609">Responsável</tspan><tspan dy="14" x="609">informa se</tspan><tspan dy="14" x="609">agenda retirada</tspan><tspan dy="14" x="609">ou destroi</tspan><tspan dy="14" x="609">demanda</tspan></text></g><path style="fill:none; stroke-width:1; stroke:#000000;" d="M619.0 1420.0 L599.0 1420.0 L599.0 1505.0 L619.0 1505.0" /><rect x="869" y="1450" width="105" height="145" ry="5" rx="5" style="stroke:none; fill:#FFFFE0" /><g componentSequence="89"><text x="879" y="1473" text-anchor="left" style="font-weight:bold;font-size:13px;stroke:none; fill:#000000"><tspan dy="14" x="879">Sistema dispara</tspan><tspan dy="14" x="879">E-mail para o</tspan><tspan dy="14" x="879">Cliente</tspan><tspan dy="14" x="879">indormando</tspan><tspan dy="14" x="879">que a</tspan><tspan dy="14" x="879">mercadoria</tspan><tspan dy="14" x="879">deve ser</tspan><tspan dy="14" x="879">destruida ou</tspan><tspan dy="14" x="879">com a Data de</tspan><tspan dy="14" x="879">retirada</tspan></text></g><path style="fill:none; stroke-width:1; stroke:#000000;" d="M889.0 1450.0 L869.0 1450.0 L869.0 1595.0 L889.0 1595.0" /><rect x="859" y="990" width="105" height="109" ry="5" rx="5" style="stroke:none; fill:#FFFFE0" /><g componentSequence="91"><text x="869" y="1013" text-anchor="left" style="font-weight:bold;font-size:13px;stroke:none; fill:#000000"><tspan dy="14" x="869">Logística/Rece</tspan><tspan dy="14" x="869">bimento</tspan><tspan dy="14" x="869">monitora</tspan><tspan dy="14" x="869">emissão NFD</tspan><tspan dy="14" x="869">do cliente</tspan><tspan dy="14" x="869">através do</tspan><tspan dy="14" x="869">'receiver'</tspan></text></g><path style="fill:none; stroke-width:1; stroke:#000000;" d="M879.0 990.0 L859.0 990.0 L859.0 1099.0 L879.0 1099.0" /><g componentSequence="17"><text x="672" y="238" style="font-size:10px;font-weight:none;stroke:none; fill:#333399" text-anchor="left" /></g><g componentSequence="19"><text x="672" y="371" style="font-size:10px;font-weight:none;stroke:none; fill:#333399" text-anchor="left" /></g><g componentSequence="21"><text x="672" y="500" style="font-size:10px;font-weight:none;stroke:none; fill:#333399" text-anchor="left" /></g><g componentSequence="23"><text x="672" y="656" style="font-size:10px;font-weight:none;stroke:none; fill:#333399" text-anchor="left" /></g><g componentSequence="24"><text x="654" y="144" style="font-size:10px;font-weight:none;stroke:none; fill:#333399" text-anchor="left" /></g><g componentSequence="25"><text x="654" y="209" style="font-size:10px;font-weight:none;stroke:none; fill:#333399" text-anchor="left" /></g><g componentSequence="26"><text x="653" y="271" style="font-size:10px;font-weight:none;stroke:none; fill:#333399" text-anchor="left" /></g><g componentSequence="27"><text x="651" y="343" style="font-size:10px;font-weight:none;stroke:none; fill:#333399" text-anchor="left" /></g><g componentSequence="28"><text x="672" y="300" style="font-size:10px;font-weight:none;stroke:none; fill:#333399" text-anchor="left" /></g><g componentSequence="29"><text x="672" y="432" style="font-size:10px;font-weight:none;stroke:none; fill:#333399" text-anchor="left" /></g><g componentSequence="31"><text x="672" y="573" style="font-size:10px;font-weight:none;stroke:none; fill:#333399" text-anchor="left" /></g><g componentSequence="34"><text x="1042" y="304" style="font-size:10px;font-weight:none;stroke:none; fill:#333399" text-anchor="left" /></g><g componentSequence="35"><text x="1042" y="371" style="font-size:10px;font-weight:none;stroke:none; fill:#333399" text-anchor="left" /></g><g componentSequence="36"><text x="1042" y="435" style="font-size:10px;font-weight:none;stroke:none; fill:#333399" text-anchor="left" /></g><g componentSequence="37"><text x="1042" y="514" style="font-size:10px;font-weight:none;stroke:none; fill:#333399" text-anchor="left" /></g><g componentSequence="40"><text x="1211" y="781" style="font-size:10px;font-weight:none;stroke:none; fill:#333399" text-anchor="left" /></g><g componentSequence="43"><text x="558" y="782" style="font-size:10px;font-weight:none;stroke:none; fill:#333399" text-anchor="left"><tspan dy="14" x="558">Não</tspan></text></g><g componentSequence="45"><text x="809" y="871" style="font-size:10px;font-weight:none;stroke:none; fill:#333399" text-anchor="left"><tspan dy="14" x="809">Sim</tspan></text></g><g componentSequence="55"><text x="635" y="936" style="font-size:10px;font-weight:none;stroke:none; fill:#333399" text-anchor="left" /></g><g componentSequence="56"><text x="824" y="1121" style="font-size:10px;font-weight:none;stroke:none; fill:#333399" text-anchor="left" /></g><g componentSequence="60"><text x="624" y="1373" style="font-size:10px;font-weight:none;stroke:none; fill:#333399" text-anchor="left" /></g><g componentSequence="62"><text x="960" y="1373" style="font-size:10px;font-weight:none;stroke:none; fill:#333399" text-anchor="left" /></g><g componentSequence="64"><text x="1210" y="1373" style="font-size:10px;font-weight:none;stroke:none; fill:#333399" text-anchor="left"><tspan dy="14" x="1210">Retirar</tspan></text></g><g componentSequence="69"><text x="378" y="1373" style="font-size:10px;font-weight:none;stroke:none; fill:#333399" text-anchor="left" /></g><g componentSequence="75"><text x="173" y="1468" style="font-size:10px;font-weight:none;stroke:none; fill:#333399" text-anchor="left" /></g><g componentSequence="77"><text x="533" y="1541" style="font-size:10px;font-weight:none;stroke:none; fill:#333399" text-anchor="left" /></g><g componentSequence="95"><text x="339" y="237" style="font-size:10px;font-weight:none;stroke:none; fill:#333399" text-anchor="left"><tspan dy="14" x="339">Não</tspan></text></g><g componentSequence="96"><text x="279" y="371" style="font-size:10px;font-weight:none;stroke:none; fill:#333399" text-anchor="left"><tspan dy="14" x="279">Sim</tspan></text></g><g componentSequence="99"><text x="354" y="951" style="font-size:10px;font-weight:none;stroke:none; fill:#333399" text-anchor="left" /></g><g componentSequence="101"><text x="460" y="1079" style="font-size:10px;font-weight:none;stroke:none; fill:#333399" text-anchor="left" /></g><g componentSequence="106"><text x="452" y="575" style="font-size:10px;font-weight:none;stroke:none; fill:#333399" text-anchor="left" /></g><g componentSequence="108"><text x="1216" y="1542" style="font-size:10px;font-weight:none;stroke:none; fill:#333399" text-anchor="left" /></g><g componentSequence="109"><text x="1146" y="1604" style="font-size:10px;font-weight:none;stroke:none; fill:#333399" text-anchor="left" /></g><g componentSequence="111"><text x="1088" y="1448" style="font-size:10px;font-weight:none;stroke:none; fill:#333399" text-anchor="left" /></g><g componentSequence="112"><text x="1088" y="1575" style="font-size:10px;font-weight:none;stroke:none; fill:#333399" text-anchor="left" /></g><g componentSequence="113"><text x="1013" y="936" style="font-size:10px;font-weight:none;stroke:none; fill:#333399" text-anchor="left" /></g><g componentSequence="114"><text x="130" y="397" style="font-size:10px;font-weight:none;stroke:none; fill:#333399" text-anchor="left" /></g><g componentSequence="115"><text x="69" y="590" style="font-size:10px;font-weight:none;stroke:none; fill:#333399" text-anchor="left" /></g><g componentSequence="116"><text x="1216" y="1081" style="font-size:10px;font-weight:none;stroke:none; fill:#333399" text-anchor="left" /></g><g componentSequence="117"><text x="272" y="56" style="font-size:10px;font-weight:none;stroke:none; fill:#333399" text-anchor="left" /></g><g componentSequence="80"><text x="539" y="56" style="font-size:10px;font-weight:none;stroke:none; fill:#333399" text-anchor="left" /></g><g componentSequence="82"><text x="1215" y="286" style="font-size:10px;font-weight:none;stroke:none; fill:#333399" text-anchor="left" /></g><g componentSequence="84"><text x="342" y="868" style="font-size:10px;font-weight:none;stroke:none; fill:#333399" text-anchor="left" /></g><g componentSequence="86"><text x="525" y="1316" style="font-size:10px;font-weight:none;stroke:none; fill:#333399" text-anchor="left" /></g><g componentSequence="88"><text x="740" y="1415" style="font-size:10px;font-weight:none;stroke:none; fill:#333399" text-anchor="left" /></g><g componentSequence="90"><text x="1016" y="1598" style="font-size:10px;font-weight:none;stroke:none; fill:#333399" text-anchor="left" /></g><g componentSequence="92"><text x="855" y="981" style="font-size:10px;font-weight:none;stroke:none; fill:#333399" text-anchor="left" /></g><g componentSequence="118"><text x="721" y="5" style="font-size:10px;font-weight:none;stroke:none; fill:#333399" text-anchor="left" /></g><path style="fill:none; stroke:#000000;stroke-width:1" d="M423.0 56.0 L241.0 56.0 L240.0 195.0" /><polygon style="fill:#000000; stroke:#000000;" points=" 245 185 240 195 235 185 240 187" /><path style="fill:none; stroke:#000000;stroke-width:1" d="M828.0 224.0 L457.0 63.0" /><polygon style="fill:#000000; stroke:#000000;" points=" 464 72 457 63 468 62 464 66" /><path style="fill:none; stroke:#000000;stroke-width:1" d="M828.0 348.0 L455.0 66.0" /><polygon style="fill:#000000; stroke:#000000;" points=" 460 76 455 66 466 68 461 71" /><path style="fill:none; stroke:#000000;stroke-width:1" d="M828.0 467.0 L453.0 69.0" /><polygon style="fill:#000000; stroke:#000000;" points=" 456 80 453 69 463 73 458 75" /><path style="fill:none; stroke:#000000;stroke-width:1" d="M828.0 612.0 L451.0 70.0" /><polygon style="fill:#000000; stroke:#000000;" points=" 453 81 451 70 461 75 456 77" /><path style="fill:none; stroke:#000000;stroke-width:1" d="M229.0 963.0 L138.0 960.0 L109.0 56.0 L423.0 56.0" /><polygon style="fill:#000000; stroke:#000000;" points=" 413 51 423 56 413 61 415 56" /><path style="fill:none; stroke:#000000;stroke-width:1" d="M78.0 1499.0 L48.0 56.0 L423.0 56.0" /><polygon style="fill:#000000; stroke:#000000;" points=" 413 51 423 56 413 61 415 56" /><path style="fill:none; stroke:#000000;stroke-dasharray:2" d="M598.0 56.0 L459.0 56.0" /><path style="fill:none; stroke:#000000;stroke-width:1" d="M495.0 238.0 L828.0 238.0" /><polygon style="fill:#000000; stroke:#000000;" points=" 818 233 828 238 818 243 820 238" /><path style="fill:none; stroke:#000000;stroke-width:1" d="M270.0 237.0 L309.0 237.0 L388.0 237.0" /><polygon style="fill:#000000; stroke:#000000;" points=" 378 232 388 237 378 242 380 237" /><path style="fill:none; stroke:#000000;stroke-width:1" d="M495.0 371.0 L828.0 371.0" /><polygon style="fill:#000000; stroke:#000000;" points=" 818 366 828 371 818 376 820 371" /><path style="fill:none; stroke:#000000;stroke-width:1" d="M828.0 247.0 L495.0 354.0" /><polygon style="fill:#000000; stroke:#000000;" points=" 506 356 495 354 503 346 503 352" /><path style="fill:none; stroke:#000000;stroke-width:1" d="M240.0 280.0 L240.0 371.0 L388.0 371.0" /><polygon style="fill:#000000; stroke:#000000;" points=" 378 366 388 371 378 376 380 371" /><path style="fill:none; stroke:#000000;stroke-width:1" d="M495.0 500.0 L828.0 500.0" /><polygon style="fill:#000000; stroke:#000000;" points=" 818 495 828 500 818 505 820 500" /><path style="fill:none; stroke:#000000;stroke-width:1" d="M828.0 380.0 L495.0 483.0" /><polygon style="fill:#000000; stroke:#000000;" points=" 506 485 495 483 503 475 503 481" /><path style="fill:none; stroke:#000000;stroke-width:1" d="M442.0 617.0 L442.0 532.0" /><polygon style="fill:#000000; stroke:#000000;" points=" 437 542 442 532 447 542 442 540" /><path style="fill:none; stroke:#000000;stroke-width:1" d="M495.0 656.0 L828.0 656.0" /><polygon style="fill:#000000; stroke:#000000;" points=" 818 651 828 656 818 661 820 656" /><path style="fill:none; stroke:#000000;stroke-width:1" d="M828.0 511.0 L495.0 636.0" /><polygon style="fill:#000000; stroke:#000000;" points=" 506 637 495 636 503 628 502 633" /><path style="fill:none; stroke:#000000;stroke-width:1" d="M889.0 249.0 L1175.0 359.0" /><polygon style="fill:#000000; stroke:#000000;" points=" 1167 351 1175 359 1164 360 1168 356" /><path style="fill:none; stroke:#000000;stroke-width:1" d="M889.0 371.0 L1175.0 371.0" /><polygon style="fill:#000000; stroke:#000000;" points=" 1165 366 1175 371 1165 376 1167 371" /><path style="fill:none; stroke:#000000;stroke-width:1" d="M889.0 488.0 L1175.0 382.0" /><polygon style="fill:#000000; stroke:#000000;" points=" 1164 381 1175 382 1167 390 1167 385" /><path style="fill:none; stroke:#000000;stroke-width:1" d="M889.0 631.0 L1175.0 396.0" /><polygon style="fill:#000000; stroke:#000000;" points=" 1164 398 1175 396 1170 406 1169 401" /><path style="fill:none; stroke:#000000;stroke-width:1" d="M1205.0 413.0 L1205.0 781.0 L829.0 783.0" /><polygon style="fill:#000000; stroke:#000000;" points=" 839 788 829 783 839 778 837 783" /><path style="fill:none; stroke:#000000;stroke-dasharray:2" d="M1205.0 243.0 L1205.0 328.0" /><path style="fill:none; stroke:#000000;stroke-width:1" d="M240.0 195.0 L241.0 5.0 L1001.0 5.0 L1182.0 328.0" /><polygon style="fill:#000000; stroke:#000000;" points=" 1181 317 1182 328 1173 322 1178 321" /><path style="fill:none; stroke:#000000;stroke-width:1" d="M768.0 783.0 L450.0 781.0 L451.0 903.0" /><polygon style="fill:#000000; stroke:#000000;" points=" 456 893 451 903 446 893 451 895" /><path style="fill:none; stroke:#000000;stroke-width:1" d="M799.0 838.0 L799.0 903.0" /><polygon style="fill:#000000; stroke:#000000;" points=" 804 893 799 903 794 893 799 895" /><path style="fill:none; stroke:#000000;stroke-width:1" d="M398.0 943.0 L290.0 959.0" /><polygon style="fill:#000000; stroke:#000000;" points=" 301 962 290 959 299 953 298 958" /><path style="fill:none; stroke:#000000;stroke-width:1" d="M745.0 936.0 L505.0 936.0" /><polygon style="fill:#000000; stroke:#000000;" points=" 515 941 505 936 515 931 513 936" /><path style="fill:none; stroke:#000000;stroke-width:1" d="M1177.0 962.0 L1001.0 1121.0 L571.0 1120.0 L473.0 968.0" /><polygon style="fill:#000000; stroke:#000000;" points=" 474 979 473 968 483 974 477 975" /><path style="fill:none; stroke:#000000;stroke-dasharray:2" d="M265.0 830.0 L398.0 905.0" /><path style="fill:none; stroke:#009600;stroke-width:1" d="M852.0 936.0 L1153.0 936.0" /><polygon style="fill:#009600; stroke:#009600;" points=" 1143 931 1153 936 1143 941 1145 936" /><path style="fill:none; stroke:#000000;stroke-dasharray:2" d="M858.0 993.0 L832.0 968.0" /><path style="fill:none; stroke:#009600;stroke-width:1" d="M1206.0 962.0 L1206.0 1200.0" /><polygon style="fill:#009600; stroke:#009600;" points=" 1211 1190 1206 1200 1201 1190 1206 1192" /><path style="fill:none; stroke:#000000;stroke-width:1" d="M481.0 1373.0 L746.0 1373.0" /><polygon style="fill:#000000; stroke:#000000;" points=" 736 1368 746 1373 736 1378 738 1373" /><path style="fill:none; stroke:#000000;stroke-width:1" d="M420.0 1373.0 L315.0 1373.0" /><polygon style="fill:#000000; stroke:#000000;" points=" 325 1378 315 1373 325 1368 323 1373" /><path style="fill:none; stroke:#000000;stroke-width:1" d="M290.0 983.0 L329.0 1008.0 L450.0 1008.0 L450.0 1318.0" /><polygon style="fill:#000000; stroke:#000000;" points=" 455 1308 450 1318 445 1308 450 1310" /><path style="fill:none; stroke:#000000;stroke-dasharray:2" d="M548.0 1286.0 L481.0 1345.0" /><path style="fill:none; stroke:#000000;stroke-width:1" d="M853.0 1373.0 L1047.0 1373.0" /><polygon style="fill:#000000; stroke:#000000;" points=" 1037 1368 1047 1373 1037 1378 1039 1373" /><path style="fill:none; stroke:#000000;stroke-width:1" d="M110.0 1547.0 L799.0 1537.0 L799.0 1399.0" /><polygon style="fill:#000000; stroke:#000000;" points=" 794 1409 799 1399 804 1409 799 1407" /><path style="fill:none; stroke:#000000;stroke-dasharray:2" d="M704.0 1430.0 L756.0 1399.0" /><path style="fill:none; stroke:#000000;stroke-width:1" d="M1108.0 1373.0 L1206.0 1373.0 L1206.0 1459.0" /><polygon style="fill:#000000; stroke:#000000;" points=" 1211 1449 1206 1459 1201 1449 1206 1451" /><path style="fill:none; stroke:#000000;stroke-width:1" d="M1078.0 1427.0 L1078.0 1469.0" /><polygon style="fill:#000000; stroke:#000000;" points=" 1083 1459 1078 1469 1073 1459 1078 1461" /><path style="fill:none; stroke:#000000;stroke-width:1" d="M1206.0 1524.0 L1206.0 1559.0" /><polygon style="fill:#000000; stroke:#000000;" points=" 1211 1549 1206 1559 1201 1549 1206 1551" /><path style="fill:none; stroke:#000000;stroke-width:1" d="M1175.0 1606.0 L1095.0 1601.0" /><polygon style="fill:#000000; stroke:#000000;" points=" 1105 1607 1095 1601 1105 1597 1103 1601" /><path style="fill:none; stroke:#000000;stroke-width:1" d="M1078.0 1566.0 L1078.0 1583.0" /><polygon style="fill:#000000; stroke:#000000;" points=" 1083 1573 1078 1583 1073 1573 1078 1575" /><path style="fill:none; stroke:#000000;stroke-dasharray:2" d="M952.0 1595.0 L952.0 1595.0 L1061.0 1601.0" /><path style="fill:none; stroke:#000000;stroke-width:1" d="M215.0 1417.0 L110.0 1518.0" /><polygon style="fill:#000000; stroke:#000000;" points=" 121 1515 110 1518 114 1507 116 1512" /><defs><linearGradient xmlns:xlink="http://www.w3.org/1999/xlink" xlink:href="#linearGradient66FF6696FF96B6FFB6" id="linearGradient66FF6696FF96B6FFB6_334345601" x1="0" y1="39.0" x2="0" y2="74.0" gradientUnits="userSpaceOnUse" xlink:type="simple" xlink:actuate="onLoad" xlink:show="other" /><linearGradient id="linearGradient66FF6696FF96B6FFB6"><stop style="stop-color:#66FF66;stop-opacity:1;" offset="0.0" id="stop66FF66" /><stop style="stop-color:#96FF96;stop-opacity:1;" offset="0.5" id="stop96FF96" /><stop style="stop-color:#B6FFB6;stop-opacity:1;" offset="1.0" id="stopB6FFB6" /></linearGradient><linearGradient xmlns:xlink="http://www.w3.org/1999/xlink" xlink:href="#linearGradientF8FBFEEDF5FCDEEDFAD4E7F8E2E5E9" id="linearGradientF8FBFEEDF5FCDEEDFAD4E7F8E2E5E9_489314700" x1="0" y1="200.0" x2="0" y2="306.0" gradientUnits="userSpaceOnUse" xlink:type="simple" xlink:actuate="onLoad" xlink:show="other" /><linearGradient id="linearGradientF8FBFEEDF5FCDEEDFAD4E7F8E2E5E9"><stop style="stop-color:#F8FBFE;stop-opacity:1;" offset="0.0" id="stopF8FBFE" /><stop style="stop-color:#EDF5FC;stop-opacity:1;" offset="0.25" id="stopEDF5FC" /><stop style="stop-color:#DEEDFA;stop-opacity:1;" offset="0.5" id="stopDEEDFA" /><stop style="stop-color:#D4E7F8;stop-opacity:1;" offset="0.75" id="stopD4E7F8" /><stop style="stop-color:#E2E5E9;stop-opacity:1;" offset="1.0" id="stopE2E5E9" /></linearGradient><linearGradient xmlns:xlink="http://www.w3.org/1999/xlink" xlink:href="#linearGradientF8FBFEEDF5FCDEEDFAD4E7F8E2E5E9" id="linearGradientF8FBFEEDF5FCDEEDFAD4E7F8E2E5E9_420863729" x1="0" y1="333.0" x2="0" y2="439.0" gradientUnits="userSpaceOnUse" xlink:type="simple" xlink:actuate="onLoad" xlink:show="other" /><linearGradient xmlns:xlink="http://www.w3.org/1999/xlink" xlink:href="#linearGradientF8FBFEEDF5FCDEEDFAD4E7F8E2E5E9" id="linearGradientF8FBFEEDF5FCDEEDFAD4E7F8E2E5E9_1545032631" x1="0" y1="468.0" x2="0" y2="574.0" gradientUnits="userSpaceOnUse" xlink:type="simple" xlink:actuate="onLoad" xlink:show="other" /><linearGradient xmlns:xlink="http://www.w3.org/1999/xlink" xlink:href="#linearGradientF8FBFEEDF5FCDEEDFAD4E7F8E2E5E9" id="linearGradientF8FBFEEDF5FCDEEDFAD4E7F8E2E5E9_581477385" x1="0" y1="618.0" x2="0" y2="724.0" gradientUnits="userSpaceOnUse" xlink:type="simple" xlink:actuate="onLoad" xlink:show="other" /><linearGradient xmlns:xlink="http://www.w3.org/1999/xlink" xlink:href="#linearGradientFAFBFCFFFFCC" id="linearGradientFAFBFCFFFFCC_1828810729" x1="0" y1="190.0" x2="0" y2="250.0" gradientUnits="userSpaceOnUse" xlink:type="simple" xlink:actuate="onLoad" xlink:show="other" /><linearGradient id="linearGradientFAFBFCFFFFCC"><stop style="stop-color:#FAFBFC;stop-opacity:1;" offset="0.0" id="stopFAFBFC" /><stop style="stop-color:#FFFFCC;stop-opacity:1;" offset="1.0" id="stopFFFFCC" /></linearGradient><linearGradient xmlns:xlink="http://www.w3.org/1999/xlink" xlink:href="#linearGradientFAFBFCFFFFCC" id="linearGradientFAFBFCFFFFCC_1515505390" x1="0" y1="323.0" x2="0" y2="383.0" gradientUnits="userSpaceOnUse" xlink:type="simple" xlink:actuate="onLoad" xlink:show="other" /><linearGradient xmlns:xlink="http://www.w3.org/1999/xlink" xlink:href="#linearGradientFAFBFCFFFFCC" id="linearGradientFAFBFCFFFFCC_1010347256" x1="0" y1="452.0" x2="0" y2="512.0" gradientUnits="userSpaceOnUse" xlink:type="simple" xlink:actuate="onLoad" xlink:show="other" /><linearGradient xmlns:xlink="http://www.w3.org/1999/xlink" xlink:href="#linearGradientFAFBFCFFFFCC" id="linearGradientFAFBFCFFFFCC_1532485530" x1="0" y1="608.0" x2="0" y2="668.0" gradientUnits="userSpaceOnUse" xlink:type="simple" xlink:actuate="onLoad" xlink:show="other" /><linearGradient xmlns:xlink="http://www.w3.org/1999/xlink" xlink:href="#linearGradientFAFBFCFFFFCC" id="linearGradientFAFBFCFFFFCC_1037012286" x1="0" y1="329.0" x2="0" y2="389.0" gradientUnits="userSpaceOnUse" xlink:type="simple" xlink:actuate="onLoad" xlink:show="other" /><linearGradient xmlns:xlink="http://www.w3.org/1999/xlink" xlink:href="#linearGradientFAFBFCFFFFCC" id="linearGradientFAFBFCFFFFCC_1095782367" x1="0" y1="730.0" x2="0" y2="790.0" gradientUnits="userSpaceOnUse" xlink:type="simple" xlink:actuate="onLoad" xlink:show="other" /><linearGradient xmlns:xlink="http://www.w3.org/1999/xlink" xlink:href="#linearGradientF8FBFEEDF5FCDEEDFAD4E7F8E2E5E9" id="linearGradientF8FBFEEDF5FCDEEDFAD4E7F8E2E5E9_947287137" x1="0" y1="904.0" x2="0" y2="1010.0" gradientUnits="userSpaceOnUse" xlink:type="simple" xlink:actuate="onLoad" xlink:show="other" /><linearGradient xmlns:xlink="http://www.w3.org/1999/xlink" xlink:href="#linearGradientF8FBFEEDF5FCDEEDFAD4E7F8E2E5E9" id="linearGradientF8FBFEEDF5FCDEEDFAD4E7F8E2E5E9_1564006394" x1="0" y1="904.0" x2="0" y2="1010.0" gradientUnits="userSpaceOnUse" xlink:type="simple" xlink:actuate="onLoad" xlink:show="other" /><linearGradient xmlns:xlink="http://www.w3.org/1999/xlink" xlink:href="#linearGradientFF6666FF9696FFB6B6" id="linearGradientFF6666FF9696FFB6B6_475993886" x1="0" y1="1200.0" x2="0" y2="1235.0" gradientUnits="userSpaceOnUse" xlink:type="simple" xlink:actuate="onLoad" xlink:show="other" /><linearGradient id="linearGradientFF6666FF9696FFB6B6"><stop style="stop-color:#FF6666;stop-opacity:1;" offset="0.0" id="stopFF6666" /><stop style="stop-color:#FF9696;stop-opacity:1;" offset="0.5" id="stopFF9696" /><stop style="stop-color:#FFB6B6;stop-opacity:1;" offset="1.0" id="stopFFB6B6" /></linearGradient><linearGradient xmlns:xlink="http://www.w3.org/1999/xlink" xlink:href="#linearGradientF8FBFEEDF5FCDEEDFAD4E7F8E2E5E9" id="linearGradientF8FBFEEDF5FCDEEDFAD4E7F8E2E5E9_1605537277" x1="0" y1="910.0" x2="0" y2="1016.0" gradientUnits="userSpaceOnUse" xlink:type="simple" xlink:actuate="onLoad" xlink:show="other" /><linearGradient xmlns:xlink="http://www.w3.org/1999/xlink" xlink:href="#linearGradientFAFBFCFFFFCC" id="linearGradientFAFBFCFFFFCC_1424768790" x1="0" y1="1319.0" x2="0" y2="1379.0" gradientUnits="userSpaceOnUse" xlink:type="simple" xlink:actuate="onLoad" xlink:show="other" /><linearGradient xmlns:xlink="http://www.w3.org/1999/xlink" xlink:href="#linearGradientF8FBFEEDF5FCDEEDFAD4E7F8E2E5E9" id="linearGradientF8FBFEEDF5FCDEEDFAD4E7F8E2E5E9_1332786550" x1="0" y1="1347.0" x2="0" y2="1453.0" gradientUnits="userSpaceOnUse" xlink:type="simple" xlink:actuate="onLoad" xlink:show="other" /><linearGradient xmlns:xlink="http://www.w3.org/1999/xlink" xlink:href="#linearGradientFAFBFCFFFFCC" id="linearGradientFAFBFCFFFFCC_729005153" x1="0" y1="1319.0" x2="0" y2="1379.0" gradientUnits="userSpaceOnUse" xlink:type="simple" xlink:actuate="onLoad" xlink:show="other" /><linearGradient xmlns:xlink="http://www.w3.org/1999/xlink" xlink:href="#linearGradientF8FBFEEDF5FCDEEDFAD4E7F8E2E5E9" id="linearGradientF8FBFEEDF5FCDEEDFAD4E7F8E2E5E9_1625624983" x1="0" y1="1460.0" x2="0" y2="1566.0" gradientUnits="userSpaceOnUse" xlink:type="simple" xlink:actuate="onLoad" xlink:show="other" /><linearGradient xmlns:xlink="http://www.w3.org/1999/xlink" xlink:href="#linearGradientFF6666FF9696FFB6B6" id="linearGradientFF6666FF9696FFB6B6_1438946834" x1="0" y1="1584.0" x2="0" y2="1619.0" gradientUnits="userSpaceOnUse" xlink:type="simple" xlink:actuate="onLoad" xlink:show="other" /><linearGradient xmlns:xlink="http://www.w3.org/1999/xlink" xlink:href="#linearGradientF8FBFEEDF5FCDEEDFAD4E7F8E2E5E9" id="linearGradientF8FBFEEDF5FCDEEDFAD4E7F8E2E5E9_534074073" x1="0" y1="1329.0" x2="0" y2="1435.0" gradientUnits="userSpaceOnUse" xlink:type="simple" xlink:actuate="onLoad" xlink:show="other" /><linearGradient xmlns:xlink="http://www.w3.org/1999/xlink" xlink:href="#linearGradientFAFBFCFFFFCC" id="linearGradientFAFBFCFFFFCC_695432694" x1="0" y1="1500.0" x2="0" y2="1560.0" gradientUnits="userSpaceOnUse" xlink:type="simple" xlink:actuate="onLoad" xlink:show="other" /><linearGradient xmlns:xlink="http://www.w3.org/1999/xlink" xlink:href="#linearGradientFAFBFCFFFFCC" id="linearGradientFAFBFCFFFFCC_1641197798" x1="0" y1="196.0" x2="0" y2="256.0" gradientUnits="userSpaceOnUse" xlink:type="simple" xlink:actuate="onLoad" xlink:show="other" /><linearGradient xmlns:xlink="http://www.w3.org/1999/xlink" xlink:href="#linearGradientFAFBFCFFFFCC" id="linearGradientFAFBFCFFFFCC_274194120" x1="0" y1="910.0" x2="0" y2="970.0" gradientUnits="userSpaceOnUse" xlink:type="simple" xlink:actuate="onLoad" xlink:show="other" /><linearGradient xmlns:xlink="http://www.w3.org/1999/xlink" xlink:href="#linearGradientFAFBFCFFFFCC" id="linearGradientFAFBFCFFFFCC_631309697" x1="0" y1="1560.0" x2="0" y2="1620.0" gradientUnits="userSpaceOnUse" xlink:type="simple" xlink:actuate="onLoad" xlink:show="other" /><linearGradient xmlns:xlink="http://www.w3.org/1999/xlink" xlink:href="#linearGradientFAFBFCFFFFCC" id="linearGradientFAFBFCFFFFCC_399443974" x1="0" y1="1470.0" x2="0" y2="1530.0" gradientUnits="userSpaceOnUse" xlink:type="simple" xlink:actuate="onLoad" xlink:show="other" /></defs></svg>
