<?xml version="1.0" encoding="UTF-8"?>
<svg xmlns="http://www.w3.org/2000/svg" style="stroke-dasharray:none; shape-rendering:auto; font-family:'Arial'; text-rendering:auto; fill-opacity:1; color-interpolation:auto; color-rendering:auto; font-size:12; fill:black; stroke:black; image-rendering:auto; stroke-miterlimit:10; stroke-linecap:square; stroke-linejoin:miter; font-style:normal; stroke-width:1; stroke-dashoffset:0; font-weight:normal; stroke-opacity:1;" contentScriptType="text/ecmascript" preserveAspectRatio="xMidYMid meet" zoomAndPan="magnify" version="1.0" contentStyleType="text/css" xml:xlink="http://www.w3.org/1999/xlink" width="1280" height="1660"><rect x="0" y="0" width="180" height="1660" ry="0" rx="0" style="stroke:#000000; fill:#C1C5C3" /><g componentSequence="78"><text x="-830" y="6" transform="rotate(270)" text-anchor="middle" style="font-weight:bold;font-size:13px;stroke:none; fill:#434343"><tspan dy="14" x="-830">Reprovar</tspan></text></g><rect x="299" y="863" width="981" height="145" ry="0" rx="0" style="stroke:#000000; fill:#C0C0C0" /><g componentSequence="41"><text x="-935" y="305" transform="rotate(270)" text-anchor="middle" style="font-weight:bold;font-size:13px;stroke:none; fill:#434343"><tspan dy="14" x="-935">Diretor Presidente</tspan></text></g><rect x="179" y="719" width="1100" height="941" ry="0" rx="0" style="stroke:#000000; fill:#FFFFFF" /><g componentSequence="38"><text x="-1189" y="185" transform="rotate(270)" text-anchor="middle" style="font-weight:bold;font-size:13px;stroke:none; fill:#434343"><tspan dy="14" x="-1189">Logística</tspan></text></g><rect x="1099" y="0" width="180" height="720" ry="0" rx="0" style="stroke:#000000; fill:#C1C4C3" /><g componentSequence="32"><text x="-360" y="1105" transform="rotate(270)" text-anchor="middle" style="font-weight:bold;font-size:13px;stroke:none; fill:#434343"><tspan dy="14" x="-360">Aprovado</tspan></text></g><rect x="179" y="576" width="920" height="145" ry="0" rx="0" style="stroke:#000000; fill:#FFFFFF" /><g componentSequence="14"><text x="-648" y="185" transform="rotate(270)" text-anchor="middle" style="font-weight:bold;font-size:13px;stroke:none; fill:#434343"><tspan dy="14" x="-648">Diretor Presidente</tspan></text></g><rect x="179" y="432" width="920" height="145" ry="0" rx="0" style="stroke:#000000; fill:#FFFFFF" /><g componentSequence="7"><text x="-504" y="185" transform="rotate(270)" text-anchor="middle" style="font-weight:bold;font-size:13px;stroke:none; fill:#434343"><tspan dy="14" x="-504">Diretor Vendas</tspan></text></g><rect x="179" y="288" width="920" height="145" ry="0" rx="0" style="stroke:#000000; fill:#FFFFFF" /><g componentSequence="11"><text x="-360" y="185" transform="rotate(270)" text-anchor="middle" style="font-weight:bold;font-size:13px;stroke:none; fill:#434343"><tspan dy="14" x="-360">Gerente Regional</tspan></text></g><rect x="179" y="0" width="920" height="145" ry="0" rx="0" style="stroke:#000000; fill:#FFFFFF" /><g componentSequence="10"><text x="-72" y="185" transform="rotate(270)" text-anchor="middle" style="font-weight:bold;font-size:13px;stroke:none; fill:#434343"><tspan dy="14" x="-72">Solicitante</tspan></text></g><rect x="299" y="144" width="801" height="145" ry="0" rx="0" style="stroke:#000000; fill:#C0C0C0" /><g componentSequence="9"><text x="-216" y="305" transform="rotate(270)" text-anchor="middle" style="font-weight:bold;font-size:13px;stroke:none; fill:#434343"><tspan dy="14" x="-216">Supervisor vendas</tspan></text></g><rect x="179" y="144" width="920" height="145" ry="0" rx="0" style="stroke:#000000; fill:#FFFFFF" /><g componentSequence="8"><text x="-216" y="185" transform="rotate(270)" text-anchor="middle" style="font-weight:bold;font-size:13px;stroke:none; fill:#434343"><tspan dy="14" x="-216">Supervisor vendas</tspan></text></g><g sequence="4"><ellipse cx="441" cy="56" rx="17" ry="17" stroke-width="1" style="fill:url(#linearGradient66FF6696FF96B6FFB6_262498008);" stroke="336633" /></g><g sequence="5"><rect x="389" y="200" width="106" height="76" ry="5" rx="5" style="fill:url(#linearGradientF8FBFEEDF5FCDEEDFAD4E7F8E2E5E9_23234908);" stroke="191970" /></g><g componentSequence="5"><text x="442" y="227" text-anchor="middle" style="font-weight:bold;font-size:13px;stroke:none; fill:#333399"><tspan dy="14" x="442">Aprovação Supervisor Vendas</tspan></text></g><g sequence="12"><rect x="389" y="333" width="106" height="76" ry="5" rx="5" style="fill:url(#linearGradientF8FBFEEDF5FCDEEDFAD4E7F8E2E5E9_89984424);" stroke="191970" /></g><g componentSequence="12"><text x="442" y="360" text-anchor="middle" style="font-weight:bold;font-size:13px;stroke:none; fill:#333399"><tspan dy="14" x="442">Aprovação Gerente Regional</tspan></text></g><g sequence="13"><rect x="389" y="468" width="106" height="64" ry="5" rx="5" style="fill:url(#linearGradientF8FBFEEDF5FCDEEDFAD4E7F8E2E5E9_1080001383);" stroke="191970" /></g><g componentSequence="13"><text x="442" y="489" text-anchor="middle" style="font-weight:bold;font-size:13px;stroke:none; fill:#333399"><tspan dy="14" x="442">Aprovação Diretor Vendas</tspan></text></g><g sequence="15"><rect x="389" y="618" width="106" height="76" ry="5" rx="5" style="fill:url(#linearGradientF8FBFEEDF5FCDEEDFAD4E7F8E2E5E9_1684586002);" stroke="191970" /></g><g componentSequence="15"><text x="442" y="645" text-anchor="middle" style="font-weight:bold;font-size:13px;stroke:none; fill:#333399"><tspan dy="14" x="442">Aprovação Diretor ou Presidente</tspan></text></g><g sequence="16"><polygon points=" 829 220 859 190 889 220 859 250 829 220" style="fill:url(#linearGradientFAFBFCFFFFCC_1901454250);" stroke="000000" /></g><g componentSequence="16"><text x="859" y="260" text-anchor="middle" style="font-weight:bold;font-size:13px;stroke:none; fill:#333399"><tspan dy="14" x="859">Aprovaç</tspan><tspan dy="14" x="859">ão</tspan></text></g><g sequence="18"><polygon points=" 829 353 859 323 889 353 859 383 829 353" style="fill:url(#linearGradientFAFBFCFFFFCC_478707813);" stroke="000000" /></g><g componentSequence="18"><text x="859" y="393" text-anchor="middle" style="font-weight:bold;font-size:13px;stroke:none; fill:#333399"><tspan dy="14" x="859">Aprovaç</tspan><tspan dy="14" x="859">ão</tspan></text></g><g sequence="20"><polygon points=" 829 482 859 452 889 482 859 512 829 482" style="fill:url(#linearGradientFAFBFCFFFFCC_544242728);" stroke="000000" /></g><g componentSequence="20"><text x="859" y="522" text-anchor="middle" style="font-weight:bold;font-size:13px;stroke:none; fill:#333399"><tspan dy="14" x="859">Aprovaç</tspan><tspan dy="14" x="859">ão</tspan></text></g><g sequence="22"><polygon points=" 829 638 859 608 889 638 859 668 829 638" style="fill:url(#linearGradientFAFBFCFFFFCC_21618202);" stroke="000000" /></g><g componentSequence="22"><text x="859" y="678" text-anchor="middle" style="font-weight:bold;font-size:13px;stroke:none; fill:#333399"><tspan dy="14" x="859">Aprovaç</tspan><tspan dy="14" x="859">ão</tspan></text></g><g sequence="33"><polygon points=" 1176 359 1206 329 1236 359 1206 389 1176 359" style="fill:url(#linearGradientFAFBFCFFFFCC_1600070954);" stroke="000000" /></g><path style="fill:none; stroke-width:6; stroke:#000000;" d="M1196.0 359.0 L1216.0 359.0" /><path style="fill:none; stroke-width:6; stroke:#000000;" d="M1206.0 349.0 L1206.0 369.0" /><g componentSequence="33"><text x="1206" y="390" text-anchor="middle" style="font-weight:bold;font-size:13px;stroke:none; fill:#333399"><tspan dy="14" x="1206">Join</tspan></text></g><g sequence="39"><polygon points=" 769 760 799 730 829 760 799 790 769 760" style="fill:url(#linearGradientFAFBFCFFFFCC_126618892);" stroke="000000" /></g><g componentSequence="39"><text x="799" y="800" text-anchor="middle" style="font-weight:bold;font-size:13px;stroke:none; fill:#333399"><tspan dy="14" x="799">Doc.</tspan><tspan dy="14" x="799">Versão 1</tspan><tspan dy="14" x="799">?</tspan></text></g><g sequence="42"><rect x="399" y="904" width="106" height="64" ry="5" rx="5" style="fill:url(#linearGradientF8FBFEEDF5FCDEEDFAD4E7F8E2E5E9_608084201);" stroke="191970" /></g><g componentSequence="42"><text x="452" y="925" text-anchor="middle" style="font-weight:bold;font-size:13px;stroke:none; fill:#333399"><tspan dy="14" x="452">Comparar Descritivo</tspan></text></g><g sequence="44"><rect x="746" y="904" width="106" height="64" ry="5" rx="5" style="fill:url(#linearGradientF8FBFEEDF5FCDEEDFAD4E7F8E2E5E9_1808274298);" stroke="191970" /></g><g componentSequence="44"><text x="799" y="925" text-anchor="middle" style="font-weight:bold;font-size:13px;stroke:none; fill:#333399"><tspan dy="14" x="799">Encontro de Notas</tspan></text></g><g sequence="46"><ellipse cx="1206" cy="1217" rx="17" ry="17" stroke-width="3" style="fill:url(#linearGradientFF6666FF9696FFB6B6_1293426012);" stroke="993333" /></g><g sequence="48"><ellipse cx="986" cy="935" rx="17" ry="17" stroke-width="1" style="fill:url(#linearGradientFFFF66FFFF96FFFFB6_714837406);" stroke="999900" /></g><g sequence="48"><ellipse cx="986" cy="935" rx="12" ry="12" stroke-width="1" style="stroke:#000000; fill:none" /></g><g sequence="48"><path style="fill:none; stroke-width:1; stroke:#000000;" d="M975.0 935.0 L981.0 935.0" /></g><g sequence="48"><path style="fill:none; stroke-width:1; stroke:#000000;" d="M992.0 935.0 L998.0 935.0" /></g><g sequence="48"><path style="fill:none; stroke-width:1; stroke:#000000;" d="M986.0 924.0 L986.0 930.0" /></g><g sequence="48"><path style="fill:none; stroke-width:1; stroke:#000000;" d="M986.0 941.0 L986.0 947.0" /></g><g sequence="48"><ellipse cx="986" cy="935" rx="1" ry="1" stroke-width="1" style="stroke:#000000; fill:#000000" /></g><g sequence="48"><path style="fill:none; stroke-width:1; stroke:#000000;" d="M986.0 935.0 L994.0 930.0" /></g><g sequence="48"><path style="fill:none; stroke-width:1; stroke:#000000;" d="M986.0 935.0 L980.0 931.0" /></g><g sequence="48"><path style="fill:none; stroke-width:1; stroke:#000000;" d="M990.0 928.0 L992.0 925.0" /></g><g sequence="48"><path style="fill:none; stroke-width:1; stroke:#000000;" d="M993.0 931.0 L996.0 929.0" /></g><g sequence="48"><path style="fill:none; stroke-width:1; stroke:#000000;" d="M993.0 939.0 L996.0 941.0" /></g><g sequence="48"><path style="fill:none; stroke-width:1; stroke:#000000;" d="M990.0 942.0 L992.0 945.0" /></g><g sequence="48"><path style="fill:none; stroke-width:1; stroke:#000000;" d="M982.0 942.0 L980.0 945.0" /></g><g sequence="48"><path style="fill:none; stroke-width:1; stroke:#000000;" d="M979.0 939.0 L976.0 941.0" /></g><g sequence="48"><path style="fill:none; stroke-width:1; stroke:#000000;" d="M982.0 928.0 L980.0 925.0" /></g><g sequence="48"><path style="fill:none; stroke-width:1; stroke:#000000;" d="M979.0 931.0 L976.0 929.0" /></g><g sequence="50"><rect x="1154" y="910" width="106" height="52" ry="5" rx="5" style="fill:url(#linearGradientF8FBFEEDF5FCDEEDFAD4E7F8E2E5E9_2071153100);" stroke="191970" /></g><g componentSequence="50"><text x="1207" y="925" text-anchor="middle" style="font-weight:bold;font-size:13px;stroke:none; fill:#333399"><tspan dy="14" x="1207">Suspenso</tspan></text></g><g sequence="52"><ellipse cx="1206" cy="1077" rx="17" ry="17" stroke-width="1" style="fill:url(#linearGradientFFFF66FFFF96FFFFB6_1342952987);" stroke="999900" /></g><g sequence="52"><ellipse cx="1206" cy="1077" rx="12" ry="12" stroke-width="1" style="stroke:#000000; fill:none" /></g><g sequence="52"><path style="fill:none; stroke-width:1; stroke:#000000;" d="M1195.0 1077.0 L1201.0 1077.0" /></g><g sequence="52"><path style="fill:none; stroke-width:1; stroke:#000000;" d="M1212.0 1077.0 L1218.0 1077.0" /></g><g sequence="52"><path style="fill:none; stroke-width:1; stroke:#000000;" d="M1206.0 1066.0 L1206.0 1072.0" /></g><g sequence="52"><path style="fill:none; stroke-width:1; stroke:#000000;" d="M1206.0 1083.0 L1206.0 1089.0" /></g><g sequence="52"><ellipse cx="1206" cy="1077" rx="1" ry="1" stroke-width="1" style="stroke:#000000; fill:#000000" /></g><g sequence="52"><path style="fill:none; stroke-width:1; stroke:#000000;" d="M1206.0 1077.0 L1214.0 1072.0" /></g><g sequence="52"><path style="fill:none; stroke-width:1; stroke:#000000;" d="M1206.0 1077.0 L1200.0 1073.0" /></g><g sequence="52"><path style="fill:none; stroke-width:1; stroke:#000000;" d="M1210.0 1070.0 L1212.0 1067.0" /></g><g sequence="52"><path style="fill:none; stroke-width:1; stroke:#000000;" d="M1213.0 1073.0 L1216.0 1071.0" /></g><g sequence="52"><path style="fill:none; stroke-width:1; stroke:#000000;" d="M1213.0 1081.0 L1216.0 1083.0" /></g><g sequence="52"><path style="fill:none; stroke-width:1; stroke:#000000;" d="M1210.0 1084.0 L1212.0 1087.0" /></g><g sequence="52"><path style="fill:none; stroke-width:1; stroke:#000000;" d="M1202.0 1084.0 L1200.0 1087.0" /></g><g sequence="52"><path style="fill:none; stroke-width:1; stroke:#000000;" d="M1199.0 1081.0 L1196.0 1083.0" /></g><g sequence="52"><path style="fill:none; stroke-width:1; stroke:#000000;" d="M1202.0 1070.0 L1200.0 1067.0" /></g><g sequence="52"><path style="fill:none; stroke-width:1; stroke:#000000;" d="M1199.0 1073.0 L1196.0 1071.0" /></g><g sequence="57"><polygon points=" 421 1349 451 1319 481 1349 451 1379 421 1349" style="fill:url(#linearGradientFAFBFCFFFFCC_1576326075);" stroke="000000" /></g><g componentSequence="57"><text x="451" y="1389" text-anchor="middle" style="font-weight:bold;font-size:13px;stroke:none; fill:#333399"><tspan dy="14" x="451">Possui</tspan><tspan dy="14" x="451">Diferenç</tspan><tspan dy="14" x="451">a ?</tspan></text></g><g sequence="59"><rect x="747" y="1347" width="106" height="52" ry="5" rx="5" style="fill:url(#linearGradientF8FBFEEDF5FCDEEDFAD4E7F8E2E5E9_729109222);" stroke="191970" /></g><g componentSequence="59"><text x="800" y="1362" text-anchor="middle" style="font-weight:bold;font-size:13px;stroke:none; fill:#333399"><tspan dy="14" x="800">Logística</tspan></text></g><g sequence="61"><polygon points=" 1049 1349 1079 1319 1109 1349 1079 1379 1049 1349" style="fill:url(#linearGradientFAFBFCFFFFCC_1252606829);" stroke="000000" /></g><g componentSequence="61"><text x="1079" y="1389" text-anchor="middle" style="font-weight:bold;font-size:13px;stroke:none; fill:#333399"><tspan dy="14" x="1079">Retirar</tspan><tspan dy="14" x="1079">Destruir</tspan><tspan dy="14" x="1079">?</tspan></text></g><g sequence="63"><rect x="1159" y="1460" width="106" height="64" ry="5" rx="5" style="fill:url(#linearGradientF8FBFEEDF5FCDEEDFAD4E7F8E2E5E9_1142746925);" stroke="191970" /></g><g componentSequence="63"><text x="1212" y="1481" text-anchor="middle" style="font-weight:bold;font-size:13px;stroke:none; fill:#333399"><tspan dy="14" x="1212">Agendar Retirada</tspan></text></g><g sequence="65"><ellipse cx="1078" cy="1607" rx="17" ry="17" stroke-width="3" style="fill:url(#linearGradientFF6666FF9696FFB6B6_1066308894);" stroke="993333" /></g><g sequence="68"><rect x="209" y="1329" width="106" height="88" ry="5" rx="5" style="fill:url(#linearGradientF8FBFEEDF5FCDEEDFAD4E7F8E2E5E9_1055724139);" stroke="191970" /></g><g componentSequence="68"><text x="262" y="1362" text-anchor="middle" style="font-weight:bold;font-size:13px;stroke:none; fill:#333399"><tspan dy="14" x="262">Aprovação Diferença Supervisor Logística</tspan></text></g><g sequence="70"><polygon points=" 60 924 90 894 120 924 90 954 60 924" style="fill:url(#linearGradientFAFBFCFFFFCC_1054842096);" stroke="000000" /></g><path style="fill:none; stroke-width:6; stroke:#000000;" d="M80.0 924.0 L100.0 924.0" /><path style="fill:none; stroke-width:6; stroke:#000000;" d="M90.0 914.0 L90.0 934.0" /><g componentSequence="70"><text x="90" y="955" text-anchor="middle" style="font-weight:bold;font-size:13px;stroke:none; fill:#333399"><tspan dy="14" x="90">Join</tspan></text></g><g sequence="74"><polygon points=" 229 1510 259 1480 289 1510 259 1540 229 1510" style="fill:url(#linearGradientFAFBFCFFFFCC_496597377);" stroke="000000" /></g><g componentSequence="74"><text x="259" y="1550" text-anchor="middle" style="font-weight:bold;font-size:13px;stroke:none; fill:#333399"><tspan dy="14" x="259">A</tspan><tspan dy="14" x="259">...</tspan></text></g><rect x="599" y="20" width="105" height="73" ry="5" rx="5" style="stroke:none; fill:#FFFFE0" /><g componentSequence="79"><text x="609" y="43" text-anchor="left" style="font-weight:bold;font-size:13px;stroke:none; fill:#000000"><tspan dy="14" x="609">Vendedor ou</tspan><tspan dy="14" x="609">supervisor</tspan><tspan dy="14" x="609">Preenche</tspan><tspan dy="14" x="609">Descritivo</tspan></text></g><path style="fill:none; stroke-width:1; stroke:#000000;" d="M619.0 20.0 L599.0 20.0 L599.0 93.0 L619.0 93.0" /><rect x="1153" y="50" width="105" height="193" ry="5" rx="5" style="stroke:none; fill:#FFFFE0" /><g componentSequence="81"><text x="1163" y="73" text-anchor="left" style="font-weight:bold;font-size:13px;stroke:none; fill:#000000"><tspan dy="14" x="1163">Após</tspan><tspan dy="14" x="1163">aprovação</tspan><tspan dy="14" x="1163">Sistema</tspan><tspan dy="14" x="1163">Dispara Email</tspan><tspan dy="14" x="1163">para o cliente</tspan><tspan dy="14" x="1163">dando Aval</tspan><tspan dy="14" x="1163">para emissão</tspan><tspan dy="14" x="1163">de Nota Fiscal</tspan><tspan dy="14" x="1163">de Devolução</tspan><tspan dy="14" x="1163">com prazo</tspan><tspan dy="14" x="1163">estipulado em</tspan><tspan dy="14" x="1163">60 dias para</tspan><tspan dy="14" x="1163">emissão da</tspan><tspan dy="14" x="1163">NFD</tspan></text></g><path style="fill:none; stroke-width:1; stroke:#000000;" d="M1173.0 50.0 L1153.0 50.0 L1153.0 243.0 L1173.0 243.0" /><rect x="219" y="740" width="196" height="125" ry="5" rx="5" style="stroke:none; fill:#FFFFE0" /><g componentSequence="83"><text x="229" y="763" text-anchor="left" style="font-weight:bold;font-size:13px;stroke:none; fill:#000000"><tspan dy="14" x="229">Logística/Recebimento informa</tspan><tspan dy="14" x="229">Chaves NFD + valores, em caso</tspan><tspan dy="14" x="229">de identificação de produtos a</tspan><tspan dy="14" x="229">mais na NFD do cliente deve ser</tspan><tspan dy="14" x="229">encaminhada para revisão para</tspan><tspan dy="14" x="229">Emissor do Descritivo</tspan><tspan dy="14" x="229">complementar informações,</tspan><tspan dy="14" x="229">gerando Docto. versão 2</tspan></text></g><path style="fill:none; stroke-width:1; stroke:#000000;" d="M239.0 740.0 L219.0 740.0 L219.0 865.0 L239.0 865.0" /><rect x="549" y="1160" width="105" height="157" ry="5" rx="5" style="stroke:none; fill:#FFFFE0" /><g componentSequence="85"><text x="559" y="1183" text-anchor="left" style="font-weight:bold;font-size:13px;stroke:none; fill:#000000"><tspan dy="14" x="559">O critério para</tspan><tspan dy="14" x="559">encaminhamen</tspan><tspan dy="14" x="559">to de</tspan><tspan dy="14" x="559">aprovação de</tspan><tspan dy="14" x="559">diferenças</tspan><tspan dy="14" x="559">levará em</tspan><tspan dy="14" x="559">consideração</tspan><tspan dy="14" x="559">parâmetros de</tspan><tspan dy="14" x="559">tolerância por</tspan><tspan dy="14" x="559">percentual e/ou</tspan><tspan dy="14" x="559">valor mínimo.</tspan></text></g><path style="fill:none; stroke-width:1; stroke:#000000;" d="M569.0 1160.0 L549.0 1160.0 L549.0 1317.0 L569.0 1317.0" /><rect x="599" y="1420" width="105" height="85" ry="5" rx="5" style="stroke:none; fill:#FFFFE0" /><g componentSequence="87"><text x="609" y="1443" text-anchor="left" style="font-weight:bold;font-size:13px;stroke:none; fill:#000000"><tspan dy="14" x="609">Responsável</tspan><tspan dy="14" x="609">informa se</tspan><tspan dy="14" x="609">agenda retirada</tspan><tspan dy="14" x="609">ou destroi</tspan><tspan dy="14" x="609">demanda</tspan></text></g><path style="fill:none; stroke-width:1; stroke:#000000;" d="M619.0 1420.0 L599.0 1420.0 L599.0 1505.0 L619.0 1505.0" /><rect x="869" y="1450" width="105" height="145" ry="5" rx="5" style="stroke:none; fill:#FFFFE0" /><g componentSequence="89"><text x="879" y="1473" text-anchor="left" style="font-weight:bold;font-size:13px;stroke:none; fill:#000000"><tspan dy="14" x="879">Sistema dispara</tspan><tspan dy="14" x="879">E-mail para o</tspan><tspan dy="14" x="879">Cliente</tspan><tspan dy="14" x="879">indormando</tspan><tspan dy="14" x="879">que a</tspan><tspan dy="14" x="879">mercadoria</tspan><tspan dy="14" x="879">deve ser</tspan><tspan dy="14" x="879">destruida ou</tspan><tspan dy="14" x="879">com a Data de</tspan><tspan dy="14" x="879">retirada</tspan></text></g><path style="fill:none; stroke-width:1; stroke:#000000;" d="M889.0 1450.0 L869.0 1450.0 L869.0 1595.0 L889.0 1595.0" /><rect x="859" y="990" width="105" height="109" ry="5" rx="5" style="stroke:none; fill:#FFFFE0" /><g componentSequence="91"><text x="869" y="1013" text-anchor="left" style="font-weight:bold;font-size:13px;stroke:none; fill:#000000"><tspan dy="14" x="869">Logística/Rece</tspan><tspan dy="14" x="869">bimento</tspan><tspan dy="14" x="869">monitora</tspan><tspan dy="14" x="869">emissão NFD</tspan><tspan dy="14" x="869">do cliente</tspan><tspan dy="14" x="869">através do</tspan><tspan dy="14" x="869">'receiver'</tspan></text></g><path style="fill:none; stroke-width:1; stroke:#000000;" d="M879.0 990.0 L859.0 990.0 L859.0 1099.0 L879.0 1099.0" /><g sequence="93"><polygon points=" 279 140 309 110 339 140 309 170 279 140" style="fill:url(#linearGradientFAFBFCFFFFCC_1458846025);" stroke="000000" /></g><g componentSequence="93"><text x="309" y="171" text-anchor="middle" style="font-weight:bold;font-size:13px;stroke:none; fill:#333399"><tspan dy="14" x="309">Sup ?</tspan></text></g><g sequence="98"><polygon points=" 269 912 299 882 329 912 299 942 269 912" style="fill:url(#linearGradientFAFBFCFFFFCC_6031286);" stroke="000000" /></g><g componentSequence="98"><text x="299" y="952" text-anchor="middle" style="font-weight:bold;font-size:13px;stroke:none; fill:#333399"><tspan dy="14" x="299">Retornar</tspan><tspan dy="14" x="299">Avaliaçã</tspan><tspan dy="14" x="299">o</tspan></text></g><g componentSequence="17"><text x="623" y="238" style="font-size:10px;font-weight:none;stroke:none; fill:#333399" text-anchor="left" /></g><g componentSequence="19"><text x="623" y="371" style="font-size:10px;font-weight:none;stroke:none; fill:#333399" text-anchor="left" /></g><g componentSequence="21"><text x="623" y="500" style="font-size:10px;font-weight:none;stroke:none; fill:#333399" text-anchor="left" /></g><g componentSequence="23"><text x="623" y="656" style="font-size:10px;font-weight:none;stroke:none; fill:#333399" text-anchor="left" /></g><g componentSequence="24"><text x="605" y="144" style="font-size:10px;font-weight:none;stroke:none; fill:#333399" text-anchor="left" /></g><g componentSequence="25"><text x="605" y="209" style="font-size:10px;font-weight:none;stroke:none; fill:#333399" text-anchor="left" /></g><g componentSequence="26"><text x="604" y="271" style="font-size:10px;font-weight:none;stroke:none; fill:#333399" text-anchor="left" /></g><g componentSequence="27"><text x="602" y="343" style="font-size:10px;font-weight:none;stroke:none; fill:#333399" text-anchor="left" /></g><g componentSequence="28"><text x="623" y="300" style="font-size:10px;font-weight:none;stroke:none; fill:#333399" text-anchor="left" /></g><g componentSequence="29"><text x="623" y="432" style="font-size:10px;font-weight:none;stroke:none; fill:#333399" text-anchor="left" /></g><g componentSequence="31"><text x="623" y="573" style="font-size:10px;font-weight:none;stroke:none; fill:#333399" text-anchor="left" /></g><g componentSequence="34"><text x="993" y="304" style="font-size:10px;font-weight:none;stroke:none; fill:#333399" text-anchor="left" /></g><g componentSequence="35"><text x="993" y="371" style="font-size:10px;font-weight:none;stroke:none; fill:#333399" text-anchor="left" /></g><g componentSequence="36"><text x="993" y="435" style="font-size:10px;font-weight:none;stroke:none; fill:#333399" text-anchor="left" /></g><g componentSequence="37"><text x="993" y="514" style="font-size:10px;font-weight:none;stroke:none; fill:#333399" text-anchor="left" /></g><g componentSequence="40"><text x="1162" y="781" style="font-size:10px;font-weight:none;stroke:none; fill:#333399" text-anchor="left" /></g><g componentSequence="43"><text x="509" y="782" style="font-size:10px;font-weight:none;stroke:none; fill:#333399" text-anchor="left"><tspan dy="14" x="509">Não</tspan></text></g><g componentSequence="45"><text x="760" y="871" style="font-size:10px;font-weight:none;stroke:none; fill:#333399" text-anchor="left"><tspan dy="14" x="760">Sim</tspan></text></g><g componentSequence="49"><text x="871" y="935" style="font-size:10px;font-weight:none;stroke:none; fill:#333399" text-anchor="left" /></g><g componentSequence="51"><text x="1040" y="935" style="font-size:10px;font-weight:none;stroke:none; fill:#333399" text-anchor="left" /></g><g componentSequence="53"><text x="1167" y="1011" style="font-size:10px;font-weight:none;stroke:none; fill:#333399" text-anchor="left" /></g><g componentSequence="54"><text x="1167" y="1147" style="font-size:10px;font-weight:none;stroke:none; fill:#333399" text-anchor="left" /></g><g componentSequence="55"><text x="586" y="936" style="font-size:10px;font-weight:none;stroke:none; fill:#333399" text-anchor="left" /></g><g componentSequence="56"><text x="775" y="1121" style="font-size:10px;font-weight:none;stroke:none; fill:#333399" text-anchor="left" /></g><g componentSequence="60"><text x="575" y="1373" style="font-size:10px;font-weight:none;stroke:none; fill:#333399" text-anchor="left" /></g><g componentSequence="62"><text x="912" y="1373" style="font-size:10px;font-weight:none;stroke:none; fill:#333399" text-anchor="left" /></g><g componentSequence="64"><text x="1103" y="1430" style="font-size:10px;font-weight:none;stroke:none; fill:#333399" text-anchor="left"><tspan dy="14" x="1103">Retirar</tspan></text></g><g componentSequence="66"><text x="1039" y="1508" style="font-size:10px;font-weight:none;stroke:none; fill:#333399" text-anchor="left"><tspan dy="14" x="1039">Destruir</tspan></text></g><g componentSequence="67"><text x="1096" y="1558" style="font-size:10px;font-weight:none;stroke:none; fill:#333399" text-anchor="left" /></g><g componentSequence="69"><text x="329" y="1373" style="font-size:10px;font-weight:none;stroke:none; fill:#333399" text-anchor="left" /></g><g componentSequence="73"><text x="50" y="308" style="font-size:10px;font-weight:none;stroke:none; fill:#333399" text-anchor="left" /></g><g componentSequence="75"><text x="221" y="1448" style="font-size:10px;font-weight:none;stroke:none; fill:#333399" text-anchor="left" /></g><g componentSequence="76"><text x="50" y="1321" style="font-size:10px;font-weight:none;stroke:none; fill:#333399" text-anchor="left"><tspan dy="14" x="50">Não</tspan></text></g><g componentSequence="77"><text x="569" y="1524" style="font-size:10px;font-weight:none;stroke:none; fill:#333399" text-anchor="left" /></g><g componentSequence="80"><text x="490" y="56" style="font-size:10px;font-weight:none;stroke:none; fill:#333399" text-anchor="left" /></g><g componentSequence="82"><text x="1166" y="286" style="font-size:10px;font-weight:none;stroke:none; fill:#333399" text-anchor="left" /></g><g componentSequence="84"><text x="361" y="884" style="font-size:10px;font-weight:none;stroke:none; fill:#333399" text-anchor="left" /></g><g componentSequence="86"><text x="476" y="1316" style="font-size:10px;font-weight:none;stroke:none; fill:#333399" text-anchor="left" /></g><g componentSequence="88"><text x="691" y="1415" style="font-size:10px;font-weight:none;stroke:none; fill:#333399" text-anchor="left" /></g><g componentSequence="90"><text x="978" y="1574" style="font-size:10px;font-weight:none;stroke:none; fill:#333399" text-anchor="left" /></g><g componentSequence="92"><text x="806" y="981" style="font-size:10px;font-weight:none;stroke:none; fill:#333399" text-anchor="left" /></g><g componentSequence="94"><text x="342" y="100" style="font-size:10px;font-weight:none;stroke:none; fill:#333399" text-anchor="left" /></g><g componentSequence="95"><text x="286" y="241" style="font-size:10px;font-weight:none;stroke:none; fill:#333399" text-anchor="left"><tspan dy="14" x="286">Não</tspan></text></g><g componentSequence="96"><text x="270" y="322" style="font-size:10px;font-weight:none;stroke:none; fill:#333399" text-anchor="left"><tspan dy="14" x="270">Sim</tspan></text></g><g componentSequence="99"><text x="325" y="936" style="font-size:10px;font-weight:none;stroke:none; fill:#333399" text-anchor="left" /></g><g componentSequence="100"><text x="155" y="936" style="font-size:10px;font-weight:none;stroke:none; fill:#333399" text-anchor="left" /></g><g componentSequence="101"><text x="396" y="1104" style="font-size:10px;font-weight:none;stroke:none; fill:#333399" text-anchor="left" /></g><path style="fill:none; stroke:#000000;stroke-width:1" d="M427.0 66.0 L339.0 130.0" /><polygon style="fill:#000000; stroke:#000000;" points=" 350 128 339 130 344 120 345 125" /><path style="fill:none; stroke:#000000;stroke-width:1" d="M828.0 224.0 L457.0 63.0" /><polygon style="fill:#000000; stroke:#000000;" points=" 464 72 457 63 468 62 464 66" /><path style="fill:none; stroke:#000000;stroke-width:1" d="M828.0 348.0 L455.0 66.0" /><polygon style="fill:#000000; stroke:#000000;" points=" 460 76 455 66 466 68 461 71" /><path style="fill:none; stroke:#000000;stroke-width:1" d="M828.0 467.0 L453.0 69.0" /><polygon style="fill:#000000; stroke:#000000;" points=" 456 80 453 69 463 73 458 75" /><path style="fill:none; stroke:#000000;stroke-width:1" d="M828.0 612.0 L451.0 70.0" /><polygon style="fill:#000000; stroke:#000000;" points=" 453 81 451 70 461 75 456 77" /><path style="fill:none; stroke:#000000;stroke-width:1" d="M89.0 893.0 L89.0 56.0 L423.0 56.0" /><polygon style="fill:#000000; stroke:#000000;" points=" 413 51 423 56 413 61 415 56" /><path style="fill:none; stroke:#000000;stroke-dasharray:2" d="M598.0 56.0 L459.0 56.0" /><path style="fill:none; stroke:#000000;stroke-width:1" d="M495.0 238.0 L828.0 238.0" /><polygon style="fill:#000000; stroke:#000000;" points=" 818 233 828 238 818 243 820 238" /><path style="fill:none; stroke:#000000;stroke-width:1" d="M309.0 194.0 L309.0 241.0 L388.0 239.0" /><polygon style="fill:#000000; stroke:#000000;" points=" 378 234 388 239 378 244 380 239" /><path style="fill:none; stroke:#000000;stroke-width:1" d="M495.0 371.0 L828.0 371.0" /><polygon style="fill:#000000; stroke:#000000;" points=" 818 366 828 371 818 376 820 371" /><path style="fill:none; stroke:#000000;stroke-width:1" d="M828.0 247.0 L495.0 354.0" /><polygon style="fill:#000000; stroke:#000000;" points=" 506 356 495 354 503 346 503 352" /><path style="fill:none; stroke:#000000;stroke-width:1" d="M309.0 194.0 L309.0 371.0 L388.0 371.0" /><polygon style="fill:#000000; stroke:#000000;" points=" 378 366 388 371 378 376 380 371" /><path style="fill:none; stroke:#000000;stroke-width:1" d="M495.0 500.0 L828.0 500.0" /><polygon style="fill:#000000; stroke:#000000;" points=" 818 495 828 500 818 505 820 500" /><path style="fill:none; stroke:#000000;stroke-width:1" d="M828.0 380.0 L495.0 483.0" /><polygon style="fill:#000000; stroke:#000000;" points=" 506 485 495 483 503 475 503 481" /><path style="fill:none; stroke:#000000;stroke-width:1" d="M495.0 656.0 L828.0 656.0" /><polygon style="fill:#000000; stroke:#000000;" points=" 818 651 828 656 818 661 820 656" /><path style="fill:none; stroke:#000000;stroke-width:1" d="M828.0 511.0 L495.0 636.0" /><polygon style="fill:#000000; stroke:#000000;" points=" 506 637 495 636 503 628 502 633" /><path style="fill:none; stroke:#000000;stroke-width:1" d="M889.0 249.0 L1175.0 359.0" /><polygon style="fill:#000000; stroke:#000000;" points=" 1167 351 1175 359 1164 360 1168 356" /><path style="fill:none; stroke:#000000;stroke-width:1" d="M889.0 371.0 L1175.0 371.0" /><polygon style="fill:#000000; stroke:#000000;" points=" 1165 366 1175 371 1165 376 1167 371" /><path style="fill:none; stroke:#000000;stroke-width:1" d="M889.0 488.0 L1175.0 382.0" /><polygon style="fill:#000000; stroke:#000000;" points=" 1164 381 1175 382 1167 390 1167 385" /><path style="fill:none; stroke:#000000;stroke-width:1" d="M889.0 631.0 L1175.0 396.0" /><polygon style="fill:#000000; stroke:#000000;" points=" 1164 398 1175 396 1170 406 1169 401" /><path style="fill:none; stroke:#000000;stroke-width:1" d="M1205.0 413.0 L1205.0 781.0 L829.0 783.0" /><polygon style="fill:#000000; stroke:#000000;" points=" 839 788 829 783 839 778 837 783" /><path style="fill:none; stroke:#000000;stroke-dasharray:2" d="M1205.0 243.0 L1205.0 328.0" /><path style="fill:none; stroke:#000000;stroke-width:1" d="M768.0 783.0 L450.0 781.0 L451.0 903.0" /><polygon style="fill:#000000; stroke:#000000;" points=" 456 893 451 903 446 893 451 895" /><path style="fill:none; stroke:#000000;stroke-width:1" d="M799.0 838.0 L799.0 903.0" /><polygon style="fill:#000000; stroke:#000000;" points=" 804 893 799 903 794 893 799 895" /><path style="fill:none; stroke:#000000;stroke-width:1" d="M398.0 936.0 L329.0 936.0" /><polygon style="fill:#000000; stroke:#000000;" points=" 339 941 329 936 339 931 337 936" /><path style="fill:none; stroke:#000000;stroke-width:1" d="M745.0 936.0 L505.0 936.0" /><polygon style="fill:#000000; stroke:#000000;" points=" 515 941 505 936 515 931 513 936" /><path style="fill:none; stroke:#000000;stroke-width:1" d="M1177.0 962.0 L1001.0 1121.0 L571.0 1120.0 L473.0 968.0" /><polygon style="fill:#000000; stroke:#000000;" points=" 474 979 473 968 483 974 477 975" /><path style="fill:none; stroke:#000000;stroke-dasharray:2" d="M380.0 865.0 L419.0 903.0" /><path style="fill:none; stroke:#000000;stroke-width:1" d="M852.0 935.0 L969.0 935.0" /><polygon style="fill:#000000; stroke:#000000;" points=" 959 930 969 935 959 940 961 935" /><path style="fill:none; stroke:#000000;stroke-dasharray:2" d="M858.0 993.0 L832.0 968.0" /><path style="fill:none; stroke:#000000;stroke-width:1" d="M1206.0 1095.0 L1206.0 1199.0" /><polygon style="fill:#000000; stroke:#000000;" points=" 1211 1189 1206 1199 1201 1189 1206 1191" /><path style="fill:none; stroke:#000000;stroke-width:1" d="M1003.0 935.0 L1153.0 935.0" /><polygon style="fill:#000000; stroke:#000000;" points=" 1143 930 1153 935 1143 940 1145 935" /><path style="fill:none; stroke:#000000;stroke-width:1" d="M1206.0 962.0 L1206.0 1060.0" /><polygon style="fill:#000000; stroke:#000000;" points=" 1211 1050 1206 1060 1201 1050 1206 1052" /><path style="fill:none; stroke:#000000;stroke-width:1" d="M481.0 1373.0 L746.0 1373.0" /><polygon style="fill:#000000; stroke:#000000;" points=" 736 1368 746 1373 736 1378 738 1373" /><path style="fill:none; stroke:#000000;stroke-width:1" d="M420.0 1373.0 L315.0 1373.0" /><polygon style="fill:#000000; stroke:#000000;" points=" 325 1378 315 1373 325 1368 323 1373" /><path style="fill:none; stroke:#000000;stroke-dasharray:2" d="M548.0 1286.0 L481.0 1345.0" /><path style="fill:none; stroke:#000000;stroke-width:1" d="M329.0 951.0 L430.0 1004.0 L447.0 1318.0" /><polygon style="fill:#000000; stroke:#000000;" points=" 451 1308 447 1318 441 1308 447 1310" /><path style="fill:none; stroke:#000000;stroke-width:1" d="M853.0 1373.0 L1048.0 1373.0" /><polygon style="fill:#000000; stroke:#000000;" points=" 1038 1368 1048 1373 1038 1378 1040 1373" /><path style="fill:none; stroke:#000000;stroke-width:1" d="M289.0 1516.0 L798.0 1528.0 L799.0 1399.0" /><polygon style="fill:#000000; stroke:#000000;" points=" 794 1409 799 1399 804 1409 799 1407" /><path style="fill:none; stroke:#000000;stroke-dasharray:2" d="M704.0 1430.0 L756.0 1399.0" /><path style="fill:none; stroke:#000000;stroke-width:1" d="M1109.0 1400.0 L1175.0 1459.0" /><polygon style="fill:#000000; stroke:#000000;" points=" 1171 1449 1175 1459 1164 1456 1169 1454" /><path style="fill:none; stroke:#000000;stroke-width:1" d="M1078.0 1427.0 L1078.0 1590.0" /><polygon style="fill:#000000; stroke:#000000;" points=" 1083 1580 1078 1590 1073 1580 1078 1582" /><path style="fill:none; stroke:#000000;stroke-width:1" d="M1174.0 1524.0 L1091.0 1596.0" /><polygon style="fill:#000000; stroke:#000000;" points=" 1102 1593 1091 1596 1095 1586 1097 1591" /><path style="fill:none; stroke:#000000;stroke-dasharray:2" d="M974.0 1551.0 L1063.0 1599.0" /><path style="fill:none; stroke:#000000;stroke-width:1" d="M261.0 1417.0 L259.0 1479.0" /><polygon style="fill:#000000; stroke:#000000;" points=" 264 1469 259 1479 254 1469 259 1471" /><path style="fill:none; stroke:#000000;stroke-width:1" d="M228.0 1517.0 L89.0 1525.0 L89.0 978.0" /><polygon style="fill:#000000; stroke:#000000;" points=" 84 988 89 978 94 988 89 986" /><path style="fill:none; stroke:#000000;stroke-width:1" d="M268.0 936.0 L120.0 936.0" /><polygon style="fill:#000000; stroke:#000000;" points=" 130 941 120 936 130 931 128 936" /><defs><linearGradient xmlns:xlink="http://www.w3.org/1999/xlink" xlink:href="#linearGradient66FF6696FF96B6FFB6" id="linearGradient66FF6696FF96B6FFB6_262498008" x1="0" y1="39.0" x2="0" y2="74.0" gradientUnits="userSpaceOnUse" xlink:type="simple" xlink:actuate="onLoad" xlink:show="other" /><linearGradient id="linearGradient66FF6696FF96B6FFB6"><stop style="stop-color:#66FF66;stop-opacity:1;" offset="0.0" id="stop66FF66" /><stop style="stop-color:#96FF96;stop-opacity:1;" offset="0.5" id="stop96FF96" /><stop style="stop-color:#B6FFB6;stop-opacity:1;" offset="1.0" id="stopB6FFB6" /></linearGradient><linearGradient xmlns:xlink="http://www.w3.org/1999/xlink" xlink:href="#linearGradientF8FBFEEDF5FCDEEDFAD4E7F8E2E5E9" id="linearGradientF8FBFEEDF5FCDEEDFAD4E7F8E2E5E9_23234908" x1="0" y1="200.0" x2="0" y2="306.0" gradientUnits="userSpaceOnUse" xlink:type="simple" xlink:actuate="onLoad" xlink:show="other" /><linearGradient id="linearGradientF8FBFEEDF5FCDEEDFAD4E7F8E2E5E9"><stop style="stop-color:#F8FBFE;stop-opacity:1;" offset="0.0" id="stopF8FBFE" /><stop style="stop-color:#EDF5FC;stop-opacity:1;" offset="0.25" id="stopEDF5FC" /><stop style="stop-color:#DEEDFA;stop-opacity:1;" offset="0.5" id="stopDEEDFA" /><stop style="stop-color:#D4E7F8;stop-opacity:1;" offset="0.75" id="stopD4E7F8" /><stop style="stop-color:#E2E5E9;stop-opacity:1;" offset="1.0" id="stopE2E5E9" /></linearGradient><linearGradient xmlns:xlink="http://www.w3.org/1999/xlink" xlink:href="#linearGradientF8FBFEEDF5FCDEEDFAD4E7F8E2E5E9" id="linearGradientF8FBFEEDF5FCDEEDFAD4E7F8E2E5E9_89984424" x1="0" y1="333.0" x2="0" y2="439.0" gradientUnits="userSpaceOnUse" xlink:type="simple" xlink:actuate="onLoad" xlink:show="other" /><linearGradient xmlns:xlink="http://www.w3.org/1999/xlink" xlink:href="#linearGradientF8FBFEEDF5FCDEEDFAD4E7F8E2E5E9" id="linearGradientF8FBFEEDF5FCDEEDFAD4E7F8E2E5E9_1080001383" x1="0" y1="468.0" x2="0" y2="574.0" gradientUnits="userSpaceOnUse" xlink:type="simple" xlink:actuate="onLoad" xlink:show="other" /><linearGradient xmlns:xlink="http://www.w3.org/1999/xlink" xlink:href="#linearGradientF8FBFEEDF5FCDEEDFAD4E7F8E2E5E9" id="linearGradientF8FBFEEDF5FCDEEDFAD4E7F8E2E5E9_1684586002" x1="0" y1="618.0" x2="0" y2="724.0" gradientUnits="userSpaceOnUse" xlink:type="simple" xlink:actuate="onLoad" xlink:show="other" /><linearGradient xmlns:xlink="http://www.w3.org/1999/xlink" xlink:href="#linearGradientFAFBFCFFFFCC" id="linearGradientFAFBFCFFFFCC_1901454250" x1="0" y1="190.0" x2="0" y2="250.0" gradientUnits="userSpaceOnUse" xlink:type="simple" xlink:actuate="onLoad" xlink:show="other" /><linearGradient id="linearGradientFAFBFCFFFFCC"><stop style="stop-color:#FAFBFC;stop-opacity:1;" offset="0.0" id="stopFAFBFC" /><stop style="stop-color:#FFFFCC;stop-opacity:1;" offset="1.0" id="stopFFFFCC" /></linearGradient><linearGradient xmlns:xlink="http://www.w3.org/1999/xlink" xlink:href="#linearGradientFAFBFCFFFFCC" id="linearGradientFAFBFCFFFFCC_478707813" x1="0" y1="323.0" x2="0" y2="383.0" gradientUnits="userSpaceOnUse" xlink:type="simple" xlink:actuate="onLoad" xlink:show="other" /><linearGradient xmlns:xlink="http://www.w3.org/1999/xlink" xlink:href="#linearGradientFAFBFCFFFFCC" id="linearGradientFAFBFCFFFFCC_544242728" x1="0" y1="452.0" x2="0" y2="512.0" gradientUnits="userSpaceOnUse" xlink:type="simple" xlink:actuate="onLoad" xlink:show="other" /><linearGradient xmlns:xlink="http://www.w3.org/1999/xlink" xlink:href="#linearGradientFAFBFCFFFFCC" id="linearGradientFAFBFCFFFFCC_21618202" x1="0" y1="608.0" x2="0" y2="668.0" gradientUnits="userSpaceOnUse" xlink:type="simple" xlink:actuate="onLoad" xlink:show="other" /><linearGradient xmlns:xlink="http://www.w3.org/1999/xlink" xlink:href="#linearGradientFAFBFCFFFFCC" id="linearGradientFAFBFCFFFFCC_1600070954" x1="0" y1="329.0" x2="0" y2="389.0" gradientUnits="userSpaceOnUse" xlink:type="simple" xlink:actuate="onLoad" xlink:show="other" /><linearGradient xmlns:xlink="http://www.w3.org/1999/xlink" xlink:href="#linearGradientFAFBFCFFFFCC" id="linearGradientFAFBFCFFFFCC_126618892" x1="0" y1="730.0" x2="0" y2="790.0" gradientUnits="userSpaceOnUse" xlink:type="simple" xlink:actuate="onLoad" xlink:show="other" /><linearGradient xmlns:xlink="http://www.w3.org/1999/xlink" xlink:href="#linearGradientF8FBFEEDF5FCDEEDFAD4E7F8E2E5E9" id="linearGradientF8FBFEEDF5FCDEEDFAD4E7F8E2E5E9_608084201" x1="0" y1="904.0" x2="0" y2="1010.0" gradientUnits="userSpaceOnUse" xlink:type="simple" xlink:actuate="onLoad" xlink:show="other" /><linearGradient xmlns:xlink="http://www.w3.org/1999/xlink" xlink:href="#linearGradientF8FBFEEDF5FCDEEDFAD4E7F8E2E5E9" id="linearGradientF8FBFEEDF5FCDEEDFAD4E7F8E2E5E9_1808274298" x1="0" y1="904.0" x2="0" y2="1010.0" gradientUnits="userSpaceOnUse" xlink:type="simple" xlink:actuate="onLoad" xlink:show="other" /><linearGradient xmlns:xlink="http://www.w3.org/1999/xlink" xlink:href="#linearGradientFF6666FF9696FFB6B6" id="linearGradientFF6666FF9696FFB6B6_1293426012" x1="0" y1="1200.0" x2="0" y2="1235.0" gradientUnits="userSpaceOnUse" xlink:type="simple" xlink:actuate="onLoad" xlink:show="other" /><linearGradient id="linearGradientFF6666FF9696FFB6B6"><stop style="stop-color:#FF6666;stop-opacity:1;" offset="0.0" id="stopFF6666" /><stop style="stop-color:#FF9696;stop-opacity:1;" offset="0.5" id="stopFF9696" /><stop style="stop-color:#FFB6B6;stop-opacity:1;" offset="1.0" id="stopFFB6B6" /></linearGradient><linearGradient xmlns:xlink="http://www.w3.org/1999/xlink" xlink:href="#linearGradientFFFF66FFFF96FFFFB6" id="linearGradientFFFF66FFFF96FFFFB6_714837406" x1="0" y1="918.0" x2="0" y2="953.0" gradientUnits="userSpaceOnUse" xlink:type="simple" xlink:actuate="onLoad" xlink:show="other" /><linearGradient id="linearGradientFFFF66FFFF96FFFFB6"><stop style="stop-color:#FFFF66;stop-opacity:1;" offset="0.0" id="stopFFFF66" /><stop style="stop-color:#FFFF96;stop-opacity:1;" offset="0.5" id="stopFFFF96" /><stop style="stop-color:#FFFFB6;stop-opacity:1;" offset="1.0" id="stopFFFFB6" /></linearGradient><linearGradient xmlns:xlink="http://www.w3.org/1999/xlink" xlink:href="#linearGradientF8FBFEEDF5FCDEEDFAD4E7F8E2E5E9" id="linearGradientF8FBFEEDF5FCDEEDFAD4E7F8E2E5E9_2071153100" x1="0" y1="910.0" x2="0" y2="1016.0" gradientUnits="userSpaceOnUse" xlink:type="simple" xlink:actuate="onLoad" xlink:show="other" /><linearGradient xmlns:xlink="http://www.w3.org/1999/xlink" xlink:href="#linearGradientFFFF66FFFF96FFFFB6" id="linearGradientFFFF66FFFF96FFFFB6_1342952987" x1="0" y1="1060.0" x2="0" y2="1095.0" gradientUnits="userSpaceOnUse" xlink:type="simple" xlink:actuate="onLoad" xlink:show="other" /><linearGradient xmlns:xlink="http://www.w3.org/1999/xlink" xlink:href="#linearGradientFAFBFCFFFFCC" id="linearGradientFAFBFCFFFFCC_1576326075" x1="0" y1="1319.0" x2="0" y2="1379.0" gradientUnits="userSpaceOnUse" xlink:type="simple" xlink:actuate="onLoad" xlink:show="other" /><linearGradient xmlns:xlink="http://www.w3.org/1999/xlink" xlink:href="#linearGradientF8FBFEEDF5FCDEEDFAD4E7F8E2E5E9" id="linearGradientF8FBFEEDF5FCDEEDFAD4E7F8E2E5E9_729109222" x1="0" y1="1347.0" x2="0" y2="1453.0" gradientUnits="userSpaceOnUse" xlink:type="simple" xlink:actuate="onLoad" xlink:show="other" /><linearGradient xmlns:xlink="http://www.w3.org/1999/xlink" xlink:href="#linearGradientFAFBFCFFFFCC" id="linearGradientFAFBFCFFFFCC_1252606829" x1="0" y1="1319.0" x2="0" y2="1379.0" gradientUnits="userSpaceOnUse" xlink:type="simple" xlink:actuate="onLoad" xlink:show="other" /><linearGradient xmlns:xlink="http://www.w3.org/1999/xlink" xlink:href="#linearGradientF8FBFEEDF5FCDEEDFAD4E7F8E2E5E9" id="linearGradientF8FBFEEDF5FCDEEDFAD4E7F8E2E5E9_1142746925" x1="0" y1="1460.0" x2="0" y2="1566.0" gradientUnits="userSpaceOnUse" xlink:type="simple" xlink:actuate="onLoad" xlink:show="other" /><linearGradient xmlns:xlink="http://www.w3.org/1999/xlink" xlink:href="#linearGradientFF6666FF9696FFB6B6" id="linearGradientFF6666FF9696FFB6B6_1066308894" x1="0" y1="1590.0" x2="0" y2="1625.0" gradientUnits="userSpaceOnUse" xlink:type="simple" xlink:actuate="onLoad" xlink:show="other" /><linearGradient xmlns:xlink="http://www.w3.org/1999/xlink" xlink:href="#linearGradientF8FBFEEDF5FCDEEDFAD4E7F8E2E5E9" id="linearGradientF8FBFEEDF5FCDEEDFAD4E7F8E2E5E9_1055724139" x1="0" y1="1329.0" x2="0" y2="1435.0" gradientUnits="userSpaceOnUse" xlink:type="simple" xlink:actuate="onLoad" xlink:show="other" /><linearGradient xmlns:xlink="http://www.w3.org/1999/xlink" xlink:href="#linearGradientFAFBFCFFFFCC" id="linearGradientFAFBFCFFFFCC_1054842096" x1="0" y1="894.0" x2="0" y2="954.0" gradientUnits="userSpaceOnUse" xlink:type="simple" xlink:actuate="onLoad" xlink:show="other" /><linearGradient xmlns:xlink="http://www.w3.org/1999/xlink" xlink:href="#linearGradientFAFBFCFFFFCC" id="linearGradientFAFBFCFFFFCC_496597377" x1="0" y1="1480.0" x2="0" y2="1540.0" gradientUnits="userSpaceOnUse" xlink:type="simple" xlink:actuate="onLoad" xlink:show="other" /><linearGradient xmlns:xlink="http://www.w3.org/1999/xlink" xlink:href="#linearGradientFAFBFCFFFFCC" id="linearGradientFAFBFCFFFFCC_1458846025" x1="0" y1="110.0" x2="0" y2="170.0" gradientUnits="userSpaceOnUse" xlink:type="simple" xlink:actuate="onLoad" xlink:show="other" /><linearGradient xmlns:xlink="http://www.w3.org/1999/xlink" xlink:href="#linearGradientFAFBFCFFFFCC" id="linearGradientFAFBFCFFFFCC_6031286" x1="0" y1="882.0" x2="0" y2="942.0" gradientUnits="userSpaceOnUse" xlink:type="simple" xlink:actuate="onLoad" xlink:show="other" /></defs></svg>
