<?xml version="1.0" encoding="UTF-8"?>
<svg xmlns="http://www.w3.org/2000/svg" style="stroke-dasharray:none; shape-rendering:auto; font-family:'Arial'; text-rendering:auto; fill-opacity:1; color-interpolation:auto; color-rendering:auto; font-size:12; fill:black; stroke:black; image-rendering:auto; stroke-miterlimit:10; stroke-linecap:square; stroke-linejoin:miter; font-style:normal; stroke-width:1; stroke-dashoffset:0; font-weight:normal; stroke-opacity:1;" contentScriptType="text/ecmascript" preserveAspectRatio="xMidYMid meet" zoomAndPan="magnify" version="1.0" contentStyleType="text/css" xml:xlink="http://www.w3.org/1999/xlink" width="841" height="861"><rect x="10" y="10" width="831" height="851" ry="0" rx="0" style="stroke:#000000; fill:#FFFFFF" /><rect x="40" y="715" width="801" height="146" ry="0" rx="0" style="stroke:#000000; fill:#D0DAAE" /><g componentSequence="55"><text x="-788" y="47" transform="rotate(270)" text-anchor="middle" style="font-weight:bold;font-size:10px;stroke:none; fill:#434343"><tspan dy="14" x="-788">Bypass</tspan></text></g><rect x="40" y="574" width="801" height="141" ry="0" rx="0" style="stroke:#000000; fill:#9FC1C6" /><g componentSequence="22"><text x="-644" y="47" transform="rotate(270)" text-anchor="middle" style="font-weight:bold;font-size:10px;stroke:none; fill:#434343"><tspan dy="14" x="-644">Produção</tspan></text></g><rect x="40" y="433" width="801" height="141" ry="0" rx="0" style="stroke:#000000; fill:#ADC9AC" /><g componentSequence="18"><text x="-503" y="47" transform="rotate(270)" text-anchor="middle" style="font-weight:bold;font-size:10px;stroke:none; fill:#434343"><tspan dy="14" x="-503">Qualidade</tspan></text></g><rect x="40" y="292" width="801" height="141" ry="0" rx="0" style="stroke:#000000; fill:#82B0B7" /><g componentSequence="17"><text x="-362" y="47" transform="rotate(270)" text-anchor="middle" style="font-weight:bold;font-size:10px;stroke:none; fill:#434343"><tspan dy="14" x="-362">Processo</tspan></text></g><rect x="40" y="151" width="801" height="141" ry="0" rx="0" style="stroke:#000000; fill:#C0C0C0" /><g componentSequence="3"><text x="-221" y="47" transform="rotate(270)" text-anchor="middle" style="font-weight:bold;font-size:10px;stroke:none; fill:#434343"><tspan dy="14" x="-221">Produto</tspan></text></g><rect x="40" y="10" width="801" height="141" ry="0" rx="0" style="stroke:#000000; fill:#9F9F9F" /><g componentSequence="2"><text x="-80" y="47" transform="rotate(270)" text-anchor="middle" style="font-weight:bold;font-size:10px;stroke:none; fill:#434343"><tspan dy="14" x="-80">Reporter</tspan></text></g><g componentSequence="1"><text x="-435" y="17" transform="rotate(270)" text-anchor="middle" style="font-weight:bold;font-size:10px;stroke:none; fill:#434343"><tspan dy="14" x="-435">Pool</tspan></text></g><g sequence="4"><ellipse cx="167" cy="81" rx="17" ry="17" stroke-width="1" style="fill:url(#linearGradient66FF6696FF96B6FFB6_1963077068);" stroke="336633" /></g><g sequence="5"><rect x="280" y="54" width="106" height="56" ry="5" rx="5" style="fill:url(#linearGradientF8FBFEEDF5FCDEEDFAD4E7F8E2E5E9_2076560668);" stroke="191970" /></g><g componentSequence="5"><text x="333" y="71" text-anchor="middle" style="font-weight:bold;font-size:10px;stroke:none; fill:#333399"><tspan dy="14" x="333">Processo</tspan></text></g><g sequence="7"><polygon points=" 500 61 530 31 560 61 530 91 500 61" style="fill:url(#linearGradientFAFBFCFFFFCC_2147108540);" stroke="000000" /></g><g componentSequence="7"><text x="530" y="101" text-anchor="middle" style="font-weight:bold;font-size:10px;stroke:none; fill:#333399"><tspan dy="14" x="530">Exclusiv</tspan><tspan dy="14" x="530">o</tspan></text></g><g sequence="9"><ellipse cx="707" cy="81" rx="17" ry="17" stroke-width="3" style="fill:url(#linearGradientFF6666FF9696FFB6B6_989382439);" stroke="993333" /></g><g sequence="11"><rect x="280" y="195" width="106" height="56" ry="5" rx="5" style="fill:url(#linearGradientF8FBFEEDF5FCDEEDFAD4E7F8E2E5E9_1584456185);" stroke="191970" /></g><g componentSequence="11"><text x="333" y="212" text-anchor="middle" style="font-weight:bold;font-size:10px;stroke:none; fill:#333399"><tspan dy="14" x="333">Eng. Produto</tspan></text></g><g sequence="13"><polygon points=" 510 202 540 172 570 202 540 232 510 202" style="fill:url(#linearGradientFAFBFCFFFFCC_193493510);" stroke="000000" /></g><g componentSequence="13"><text x="540" y="242" text-anchor="middle" style="font-weight:bold;font-size:10px;stroke:none; fill:#333399"><tspan dy="14" x="540">Exclusiv</tspan><tspan dy="14" x="540">o</tspan></text></g><g sequence="15"><ellipse cx="707" cy="222" rx="17" ry="17" stroke-width="3" style="fill:url(#linearGradientFF6666FF9696FFB6B6_652870253);" stroke="993333" /></g><g sequence="24"><rect x="280" y="336" width="106" height="56" ry="5" rx="5" style="fill:url(#linearGradientF8FBFEEDF5FCDEEDFAD4E7F8E2E5E9_1524054120);" stroke="191970" /></g><g componentSequence="24"><text x="333" y="353" text-anchor="middle" style="font-weight:bold;font-size:10px;stroke:none; fill:#333399"><tspan dy="14" x="333">Eng. Processo</tspan></text></g><g sequence="26"><polygon points=" 510 343 540 313 570 343 540 373 510 343" style="fill:url(#linearGradientFAFBFCFFFFCC_66156002);" stroke="000000" /></g><g componentSequence="26"><text x="540" y="383" text-anchor="middle" style="font-weight:bold;font-size:10px;stroke:none; fill:#333399"><tspan dy="14" x="540">Exclusiv</tspan><tspan dy="14" x="540">o</tspan></text></g><g sequence="28"><ellipse cx="707" cy="363" rx="17" ry="17" stroke-width="3" style="fill:url(#linearGradientFF6666FF9696FFB6B6_1264678864);" stroke="993333" /></g><g sequence="30"><rect x="280" y="480" width="106" height="56" ry="5" rx="5" style="fill:url(#linearGradientF8FBFEEDF5FCDEEDFAD4E7F8E2E5E9_1039068603);" stroke="191970" /></g><g componentSequence="30"><text x="333" y="497" text-anchor="middle" style="font-weight:bold;font-size:10px;stroke:none; fill:#333399"><tspan dy="14" x="333">Qualidade</tspan></text></g><g sequence="32"><polygon points=" 510 484 540 454 570 484 540 514 510 484" style="fill:url(#linearGradientFAFBFCFFFFCC_1587119638);" stroke="000000" /></g><g componentSequence="32"><text x="540" y="524" text-anchor="middle" style="font-weight:bold;font-size:10px;stroke:none; fill:#333399"><tspan dy="14" x="540">Exclusiv</tspan><tspan dy="14" x="540">o</tspan></text></g><g sequence="34"><ellipse cx="697" cy="504" rx="17" ry="17" stroke-width="3" style="fill:url(#linearGradientFF6666FF9696FFB6B6_1456453186);" stroke="993333" /></g><g sequence="36"><rect x="280" y="618" width="106" height="56" ry="5" rx="5" style="fill:url(#linearGradientF8FBFEEDF5FCDEEDFAD4E7F8E2E5E9_374379708);" stroke="191970" /></g><g componentSequence="36"><text x="333" y="635" text-anchor="middle" style="font-weight:bold;font-size:10px;stroke:none; fill:#333399"><tspan dy="14" x="333">Produção</tspan></text></g><g sequence="38"><ellipse cx="697" cy="645" rx="17" ry="17" stroke-width="3" style="fill:url(#linearGradientFF6666FF9696FFB6B6_1553539320);" stroke="993333" /></g><g sequence="40"><rect x="280" y="759" width="106" height="56" ry="5" rx="5" style="fill:url(#linearGradientF8FBFEEDF5FCDEEDFAD4E7F8E2E5E9_1319285835);" stroke="191970" /></g><g componentSequence="40"><text x="333" y="776" text-anchor="middle" style="font-weight:bold;font-size:10px;stroke:none; fill:#333399"><tspan dy="14" x="333">Controladoria</tspan></text></g><g sequence="42"><ellipse cx="697" cy="786" rx="17" ry="17" stroke-width="3" style="fill:url(#linearGradientFF6666FF9696FFB6B6_1710519931);" stroke="993333" /></g><g sequence="46"><polygon points=" 510 625 540 595 570 625 540 655 510 625" style="fill:url(#linearGradientFAFBFCFFFFCC_2006182669);" stroke="000000" /></g><g componentSequence="46"><text x="540" y="665" text-anchor="middle" style="font-weight:bold;font-size:10px;stroke:none; fill:#333399"><tspan dy="14" x="540">Exclusiv</tspan><tspan dy="14" x="540">o</tspan></text></g><g sequence="50"><polygon points=" 510 766 540 736 570 766 540 796 510 766" style="fill:url(#linearGradientFAFBFCFFFFCC_1654168551);" stroke="000000" /></g><g componentSequence="50"><text x="540" y="806" text-anchor="middle" style="font-weight:bold;font-size:10px;stroke:none; fill:#333399"><tspan dy="14" x="540">Exclusiv</tspan><tspan dy="14" x="540">o</tspan></text></g><g sequence="53"><ellipse cx="637" cy="827" rx="17" ry="17" stroke-width="3" style="fill:url(#linearGradientFF6666FF9696FFB6B6_960719635);" stroke="993333" /></g><g componentSequence="6"><text x="242" y="81" style="font-size:10px;font-weight:none;stroke:none; fill:#333399" text-anchor="left" /></g><g componentSequence="8"><text x="453" y="82" style="font-size:10px;font-weight:none;stroke:none; fill:#333399" text-anchor="left" /></g><g componentSequence="10"><text x="635" y="81" style="font-size:10px;font-weight:none;stroke:none; fill:#333399" text-anchor="left" /></g><g componentSequence="12"><text x="446" y="149" style="font-size:10px;font-weight:none;stroke:none; fill:#333399" text-anchor="left" /></g><g componentSequence="14"><text x="458" y="223" style="font-size:10px;font-weight:none;stroke:none; fill:#333399" text-anchor="left" /></g><g componentSequence="16"><text x="640" y="222" style="font-size:10px;font-weight:none;stroke:none; fill:#333399" text-anchor="left" /></g><g componentSequence="25"><text x="452" y="289" style="font-size:10px;font-weight:none;stroke:none; fill:#333399" text-anchor="left" /></g><g componentSequence="27"><text x="458" y="364" style="font-size:10px;font-weight:none;stroke:none; fill:#333399" text-anchor="left" /></g><g componentSequence="29"><text x="640" y="363" style="font-size:10px;font-weight:none;stroke:none; fill:#333399" text-anchor="left" /></g><g componentSequence="31"><text x="452" y="432" style="font-size:10px;font-weight:none;stroke:none; fill:#333399" text-anchor="left" /></g><g componentSequence="33"><text x="458" y="506" style="font-size:10px;font-weight:none;stroke:none; fill:#333399" text-anchor="left" /></g><g componentSequence="35"><text x="635" y="504" style="font-size:10px;font-weight:none;stroke:none; fill:#333399" text-anchor="left" /></g><g componentSequence="37"><text x="452" y="571" style="font-size:10px;font-weight:none;stroke:none; fill:#333399" text-anchor="left" /></g><g componentSequence="41"><text x="343" y="716" style="font-size:10px;font-weight:none;stroke:none; fill:#333399" text-anchor="left" /></g><g componentSequence="47"><text x="458" y="646" style="font-size:10px;font-weight:none;stroke:none; fill:#333399" text-anchor="left" /></g><g componentSequence="48"><text x="635" y="645" style="font-size:10px;font-weight:none;stroke:none; fill:#333399" text-anchor="left" /></g><g componentSequence="49"><text x="452" y="712" style="font-size:10px;font-weight:none;stroke:none; fill:#333399" text-anchor="left" /></g><g componentSequence="51"><text x="458" y="787" style="font-size:10px;font-weight:none;stroke:none; fill:#333399" text-anchor="left" /></g><g componentSequence="52"><text x="635" y="786" style="font-size:10px;font-weight:none;stroke:none; fill:#333399" text-anchor="left" /></g><g componentSequence="54"><text x="605" y="809" style="font-size:10px;font-weight:none;stroke:none; fill:#333399" text-anchor="left" /></g><path style="fill:none; stroke:#000000;stroke-width:1" d="M184.0 81.0 L279.0 81.0" /><polygon style="fill:#000000; stroke:#000000;" points=" 269 76 279 81 269 86 271 81" /><path style="fill:none; stroke:#000000;stroke-width:1" d="M386.0 82.0 L499.0 82.0" /><polygon style="fill:#000000; stroke:#000000;" points=" 489 77 499 82 489 87 491 82" /><path style="fill:none; stroke:#000000;stroke-width:1" d="M560.0 81.0 L690.0 81.0" /><polygon style="fill:#000000; stroke:#000000;" points=" 680 76 690 81 680 86 682 81" /><path style="fill:none; stroke:#000000;stroke-width:1" d="M499.0 103.0 L373.0 194.0" /><polygon style="fill:#000000; stroke:#000000;" points=" 384 192 373 194 378 184 379 189" /><path style="fill:none; stroke:#000000;stroke-width:1" d="M386.0 223.0 L509.0 223.0" /><polygon style="fill:#000000; stroke:#000000;" points=" 499 218 509 223 499 228 501 223" /><path style="fill:none; stroke:#000000;stroke-width:1" d="M570.0 222.0 L690.0 222.0" /><polygon style="fill:#000000; stroke:#000000;" points=" 680 217 690 222 680 227 682 222" /><path style="fill:none; stroke:#000000;stroke-width:1" d="M509.0 243.0 L375.0 335.0" /><polygon style="fill:#000000; stroke:#000000;" points=" 386 333 375 335 380 325 382 330" /><path style="fill:none; stroke:#000000;stroke-width:1" d="M386.0 364.0 L509.0 364.0" /><polygon style="fill:#000000; stroke:#000000;" points=" 499 359 509 364 499 369 501 364" /><path style="fill:none; stroke:#000000;stroke-width:1" d="M570.0 363.0 L690.0 363.0" /><polygon style="fill:#000000; stroke:#000000;" points=" 680 358 690 363 680 368 682 363" /><path style="fill:none; stroke:#000000;stroke-width:1" d="M509.0 385.0 L374.0 479.0" /><polygon style="fill:#000000; stroke:#000000;" points=" 385 477 374 479 379 469 381 474" /><path style="fill:none; stroke:#000000;stroke-width:1" d="M386.0 507.0 L509.0 505.0" /><polygon style="fill:#000000; stroke:#000000;" points=" 499 500 509 505 499 510 501 505" /><path style="fill:none; stroke:#000000;stroke-width:1" d="M570.0 504.0 L680.0 504.0" /><polygon style="fill:#000000; stroke:#000000;" points=" 670 499 680 504 670 509 672 504" /><path style="fill:none; stroke:#000000;stroke-width:1" d="M509.0 525.0 L375.0 617.0" /><polygon style="fill:#000000; stroke:#000000;" points=" 386 615 375 617 380 607 382 612" /><path style="fill:none; stroke:#000000;stroke-width:1" d="M333.0 674.0 L333.0 758.0" /><polygon style="fill:#000000; stroke:#000000;" points=" 338 748 333 758 328 748 333 750" /><path style="fill:none; stroke:#000000;stroke-width:1" d="M386.0 646.0 L509.0 646.0" /><polygon style="fill:#000000; stroke:#000000;" points=" 499 641 509 646 499 651 501 646" /><path style="fill:none; stroke:#000000;stroke-width:1" d="M570.0 645.0 L680.0 645.0" /><polygon style="fill:#000000; stroke:#000000;" points=" 670 640 680 645 670 650 672 645" /><path style="fill:none; stroke:#000000;stroke-width:1" d="M386.0 787.0 L509.0 787.0" /><polygon style="fill:#000000; stroke:#000000;" points=" 499 782 509 787 499 792 501 787" /><path style="fill:none; stroke:#000000;stroke-width:1" d="M509.0 666.0 L375.0 758.0" /><polygon style="fill:#000000; stroke:#000000;" points=" 386 756 375 758 380 748 382 753" /><path style="fill:none; stroke:#000000;stroke-width:1" d="M570.0 786.0 L680.0 786.0" /><polygon style="fill:#000000; stroke:#000000;" points=" 670 781 680 786 670 791 672 786" /><path style="fill:none; stroke:#000000;stroke-width:1" d="M570.0 799.0 L621.0 821.0" /><polygon style="fill:#000000; stroke:#000000;" points=" 614 812 621 821 610 822 614 818" /><defs><linearGradient xmlns:xlink="http://www.w3.org/1999/xlink" xlink:href="#linearGradient66FF6696FF96B6FFB6" id="linearGradient66FF6696FF96B6FFB6_1963077068" x1="0" y1="64.0" x2="0" y2="99.0" gradientUnits="userSpaceOnUse" xlink:type="simple" xlink:actuate="onLoad" xlink:show="other" /><linearGradient id="linearGradient66FF6696FF96B6FFB6"><stop style="stop-color:#66FF66;stop-opacity:1;" offset="0.0" id="stop66FF66" /><stop style="stop-color:#96FF96;stop-opacity:1;" offset="0.5" id="stop96FF96" /><stop style="stop-color:#B6FFB6;stop-opacity:1;" offset="1.0" id="stopB6FFB6" /></linearGradient><linearGradient xmlns:xlink="http://www.w3.org/1999/xlink" xlink:href="#linearGradientF8FBFEEDF5FCDEEDFAD4E7F8E2E5E9" id="linearGradientF8FBFEEDF5FCDEEDFAD4E7F8E2E5E9_2076560668" x1="0" y1="54.0" x2="0" y2="160.0" gradientUnits="userSpaceOnUse" xlink:type="simple" xlink:actuate="onLoad" xlink:show="other" /><linearGradient id="linearGradientF8FBFEEDF5FCDEEDFAD4E7F8E2E5E9"><stop style="stop-color:#F8FBFE;stop-opacity:1;" offset="0.0" id="stopF8FBFE" /><stop style="stop-color:#EDF5FC;stop-opacity:1;" offset="0.25" id="stopEDF5FC" /><stop style="stop-color:#DEEDFA;stop-opacity:1;" offset="0.5" id="stopDEEDFA" /><stop style="stop-color:#D4E7F8;stop-opacity:1;" offset="0.75" id="stopD4E7F8" /><stop style="stop-color:#E2E5E9;stop-opacity:1;" offset="1.0" id="stopE2E5E9" /></linearGradient><linearGradient xmlns:xlink="http://www.w3.org/1999/xlink" xlink:href="#linearGradientFAFBFCFFFFCC" id="linearGradientFAFBFCFFFFCC_2147108540" x1="0" y1="31.0" x2="0" y2="91.0" gradientUnits="userSpaceOnUse" xlink:type="simple" xlink:actuate="onLoad" xlink:show="other" /><linearGradient id="linearGradientFAFBFCFFFFCC"><stop style="stop-color:#FAFBFC;stop-opacity:1;" offset="0.0" id="stopFAFBFC" /><stop style="stop-color:#FFFFCC;stop-opacity:1;" offset="1.0" id="stopFFFFCC" /></linearGradient><linearGradient xmlns:xlink="http://www.w3.org/1999/xlink" xlink:href="#linearGradientFF6666FF9696FFB6B6" id="linearGradientFF6666FF9696FFB6B6_989382439" x1="0" y1="64.0" x2="0" y2="99.0" gradientUnits="userSpaceOnUse" xlink:type="simple" xlink:actuate="onLoad" xlink:show="other" /><linearGradient id="linearGradientFF6666FF9696FFB6B6"><stop style="stop-color:#FF6666;stop-opacity:1;" offset="0.0" id="stopFF6666" /><stop style="stop-color:#FF9696;stop-opacity:1;" offset="0.5" id="stopFF9696" /><stop style="stop-color:#FFB6B6;stop-opacity:1;" offset="1.0" id="stopFFB6B6" /></linearGradient><linearGradient xmlns:xlink="http://www.w3.org/1999/xlink" xlink:href="#linearGradientF8FBFEEDF5FCDEEDFAD4E7F8E2E5E9" id="linearGradientF8FBFEEDF5FCDEEDFAD4E7F8E2E5E9_1584456185" x1="0" y1="195.0" x2="0" y2="301.0" gradientUnits="userSpaceOnUse" xlink:type="simple" xlink:actuate="onLoad" xlink:show="other" /><linearGradient xmlns:xlink="http://www.w3.org/1999/xlink" xlink:href="#linearGradientFAFBFCFFFFCC" id="linearGradientFAFBFCFFFFCC_193493510" x1="0" y1="172.0" x2="0" y2="232.0" gradientUnits="userSpaceOnUse" xlink:type="simple" xlink:actuate="onLoad" xlink:show="other" /><linearGradient xmlns:xlink="http://www.w3.org/1999/xlink" xlink:href="#linearGradientFF6666FF9696FFB6B6" id="linearGradientFF6666FF9696FFB6B6_652870253" x1="0" y1="205.0" x2="0" y2="240.0" gradientUnits="userSpaceOnUse" xlink:type="simple" xlink:actuate="onLoad" xlink:show="other" /><linearGradient xmlns:xlink="http://www.w3.org/1999/xlink" xlink:href="#linearGradientF8FBFEEDF5FCDEEDFAD4E7F8E2E5E9" id="linearGradientF8FBFEEDF5FCDEEDFAD4E7F8E2E5E9_1524054120" x1="0" y1="336.0" x2="0" y2="442.0" gradientUnits="userSpaceOnUse" xlink:type="simple" xlink:actuate="onLoad" xlink:show="other" /><linearGradient xmlns:xlink="http://www.w3.org/1999/xlink" xlink:href="#linearGradientFAFBFCFFFFCC" id="linearGradientFAFBFCFFFFCC_66156002" x1="0" y1="313.0" x2="0" y2="373.0" gradientUnits="userSpaceOnUse" xlink:type="simple" xlink:actuate="onLoad" xlink:show="other" /><linearGradient xmlns:xlink="http://www.w3.org/1999/xlink" xlink:href="#linearGradientFF6666FF9696FFB6B6" id="linearGradientFF6666FF9696FFB6B6_1264678864" x1="0" y1="346.0" x2="0" y2="381.0" gradientUnits="userSpaceOnUse" xlink:type="simple" xlink:actuate="onLoad" xlink:show="other" /><linearGradient xmlns:xlink="http://www.w3.org/1999/xlink" xlink:href="#linearGradientF8FBFEEDF5FCDEEDFAD4E7F8E2E5E9" id="linearGradientF8FBFEEDF5FCDEEDFAD4E7F8E2E5E9_1039068603" x1="0" y1="480.0" x2="0" y2="586.0" gradientUnits="userSpaceOnUse" xlink:type="simple" xlink:actuate="onLoad" xlink:show="other" /><linearGradient xmlns:xlink="http://www.w3.org/1999/xlink" xlink:href="#linearGradientFAFBFCFFFFCC" id="linearGradientFAFBFCFFFFCC_1587119638" x1="0" y1="454.0" x2="0" y2="514.0" gradientUnits="userSpaceOnUse" xlink:type="simple" xlink:actuate="onLoad" xlink:show="other" /><linearGradient xmlns:xlink="http://www.w3.org/1999/xlink" xlink:href="#linearGradientFF6666FF9696FFB6B6" id="linearGradientFF6666FF9696FFB6B6_1456453186" x1="0" y1="487.0" x2="0" y2="522.0" gradientUnits="userSpaceOnUse" xlink:type="simple" xlink:actuate="onLoad" xlink:show="other" /><linearGradient xmlns:xlink="http://www.w3.org/1999/xlink" xlink:href="#linearGradientF8FBFEEDF5FCDEEDFAD4E7F8E2E5E9" id="linearGradientF8FBFEEDF5FCDEEDFAD4E7F8E2E5E9_374379708" x1="0" y1="618.0" x2="0" y2="724.0" gradientUnits="userSpaceOnUse" xlink:type="simple" xlink:actuate="onLoad" xlink:show="other" /><linearGradient xmlns:xlink="http://www.w3.org/1999/xlink" xlink:href="#linearGradientFF6666FF9696FFB6B6" id="linearGradientFF6666FF9696FFB6B6_1553539320" x1="0" y1="628.0" x2="0" y2="663.0" gradientUnits="userSpaceOnUse" xlink:type="simple" xlink:actuate="onLoad" xlink:show="other" /><linearGradient xmlns:xlink="http://www.w3.org/1999/xlink" xlink:href="#linearGradientF8FBFEEDF5FCDEEDFAD4E7F8E2E5E9" id="linearGradientF8FBFEEDF5FCDEEDFAD4E7F8E2E5E9_1319285835" x1="0" y1="759.0" x2="0" y2="865.0" gradientUnits="userSpaceOnUse" xlink:type="simple" xlink:actuate="onLoad" xlink:show="other" /><linearGradient xmlns:xlink="http://www.w3.org/1999/xlink" xlink:href="#linearGradientFF6666FF9696FFB6B6" id="linearGradientFF6666FF9696FFB6B6_1710519931" x1="0" y1="769.0" x2="0" y2="804.0" gradientUnits="userSpaceOnUse" xlink:type="simple" xlink:actuate="onLoad" xlink:show="other" /><linearGradient xmlns:xlink="http://www.w3.org/1999/xlink" xlink:href="#linearGradientFAFBFCFFFFCC" id="linearGradientFAFBFCFFFFCC_2006182669" x1="0" y1="595.0" x2="0" y2="655.0" gradientUnits="userSpaceOnUse" xlink:type="simple" xlink:actuate="onLoad" xlink:show="other" /><linearGradient xmlns:xlink="http://www.w3.org/1999/xlink" xlink:href="#linearGradientFAFBFCFFFFCC" id="linearGradientFAFBFCFFFFCC_1654168551" x1="0" y1="736.0" x2="0" y2="796.0" gradientUnits="userSpaceOnUse" xlink:type="simple" xlink:actuate="onLoad" xlink:show="other" /><linearGradient xmlns:xlink="http://www.w3.org/1999/xlink" xlink:href="#linearGradientFF6666FF9696FFB6B6" id="linearGradientFF6666FF9696FFB6B6_960719635" x1="0" y1="810.0" x2="0" y2="845.0" gradientUnits="userSpaceOnUse" xlink:type="simple" xlink:actuate="onLoad" xlink:show="other" /></defs></svg>
