<?xml version="1.0" encoding="UTF-8"?>
<svg xmlns="http://www.w3.org/2000/svg" style="stroke-dasharray:none; shape-rendering:auto; font-family:'Arial'; text-rendering:auto; fill-opacity:1; color-interpolation:auto; color-rendering:auto; font-size:12; fill:black; stroke:black; image-rendering:auto; stroke-miterlimit:10; stroke-linecap:square; stroke-linejoin:miter; font-style:normal; stroke-width:1; stroke-dashoffset:0; font-weight:normal; stroke-opacity:1;" contentScriptType="text/ecmascript" preserveAspectRatio="xMidYMid meet" zoomAndPan="magnify" version="1.0" contentStyleType="text/css" xml:xlink="http://www.w3.org/1999/xlink" width="701" height="621"><g sequence="1"><ellipse cx="173" cy="87" rx="17" ry="17" stroke-width="1" style="fill:url(#linearGradient66FF6696FF96B6FFB6_947405);" stroke="336633" /></g><g sequence="4"><rect x="288" y="168" width="106" height="70" ry="5" rx="5" style="fill:url(#linearGradientF8FBFEEDF5FCDEEDFAD4E7F8E2E5E9_13207804);" stroke="191970" /></g><g componentSequence="4"><text x="341" y="183" text-anchor="middle" style="font-weight:bold;font-size:10px;stroke:none; fill:#333399"><tspan dy="14" x="341">Análise</tspan><tspan dy="14" x="341">Documentos</tspan></text></g><g sequence="8"><rect x="595" y="281" width="106" height="70" ry="5" rx="5" style="fill:url(#linearGradientF8FBFEEDF5FCDEEDFAD4E7F8E2E5E9_16129981);" stroke="191970" /></g><g componentSequence="8"><text x="648" y="305" text-anchor="middle" style="font-weight:bold;font-size:10px;stroke:none; fill:#333399"><tspan dy="14" x="648">Preenche Minuta</tspan></text></g><g sequence="13"><rect x="288" y="420" width="106" height="56" ry="5" rx="5" style="fill:url(#linearGradientF8FBFEEDF5FCDEEDFAD4E7F8E2E5E9_32801479);" stroke="191970" /></g><g componentSequence="13"><text x="341" y="437" text-anchor="middle" style="font-weight:bold;font-size:10px;stroke:none; fill:#333399"><tspan dy="14" x="341">Valida Minuta</tspan></text></g><g sequence="15"><rect x="288" y="551" width="106" height="70" ry="5" rx="5" style="fill:url(#linearGradientF8FBFEEDF5FCDEEDFAD4E7F8E2E5E9_4009384);" stroke="191970" /></g><g componentSequence="15"><text x="341" y="566" text-anchor="middle" style="font-weight:bold;font-size:10px;stroke:none; fill:#333399"><tspan dy="14" x="341">Gera Minuta</tspan><tspan dy="14" x="341">Final</tspan></text></g><g sequence="17"><rect x="480" y="551" width="106" height="70" ry="5" rx="5" style="fill:url(#linearGradientF8FBFEEDF5FCDEEDFAD4E7F8E2E5E9_6544571);" stroke="191970" /></g><g componentSequence="17"><text x="533" y="575" text-anchor="middle" style="font-weight:bold;font-size:10px;stroke:none; fill:#333399"><tspan dy="14" x="533">Finaliza Contrato</tspan></text></g><g sequence="19"><ellipse cx="532" cy="492" rx="17" ry="17" stroke-width="3" style="fill:url(#linearGradientFF6666FF9696FFB6B6_4205949);" stroke="993333" /></g><g sequence="21"><rect x="490" y="168" width="106" height="70" ry="5" rx="5" style="fill:url(#linearGradientF8FBFEEDF5FCDEEDFAD4E7F8E2E5E9_31161736);" stroke="191970" /></g><g componentSequence="21"><text x="543" y="183" text-anchor="middle" style="font-weight:bold;font-size:10px;stroke:none; fill:#333399"><tspan dy="14" x="543">Revisar</tspan><tspan dy="14" x="543">Documentos</tspan></text></g><g sequence="25"><ellipse cx="665" cy="202" rx="17" ry="17" stroke-width="3" style="fill:url(#linearGradientFF6666FF9696FFB6B6_14567414);" stroke="993333" /></g><g sequence="25"><polygon points=" 656 198 661 193 666 198 671 193 676 198 671 203 676 208 671 213 666 208 661 213 656 208 661 203" style="stroke:none; fill:#993333" /></g><g sequence="29"><ellipse cx="221" cy="447" rx="17" ry="17" stroke-width="3" style="fill:url(#linearGradientFF6666FF9696FFB6B6_2803794);" stroke="993333" /></g><g sequence="29"><polygon points=" 212 443 217 438 222 443 227 438 232 443 227 448 232 453 227 458 222 453 217 458 212 453 217 448" style="stroke:none; fill:#993333" /></g><g sequence="31"><rect x="288" y="60" width="106" height="56" ry="5" rx="5" style="fill:url(#linearGradientF8FBFEEDF5FCDEEDFAD4E7F8E2E5E9_21243311);" stroke="191970" /></g><g componentSequence="31"><text x="341" y="77" text-anchor="middle" style="font-weight:bold;font-size:10px;stroke:none; fill:#333399"><tspan dy="14" x="341">Atividade</tspan></text></g><g sequence="34"><rect x="288" y="298" width="106" height="56" ry="5" rx="5" style="fill:url(#linearGradientF8FBFEEDF5FCDEEDFAD4E7F8E2E5E9_26551538);" stroke="191970" /></g><g componentSequence="34"><text x="341" y="315" text-anchor="middle" style="font-weight:bold;font-size:10px;stroke:none; fill:#333399"><tspan dy="14" x="341">Atividade</tspan></text></g><g componentSequence="16"><text x="351" y="513" style="font-size:10px;font-weight:none;stroke:none; fill:#333399" text-anchor="left" /></g><g componentSequence="18"><text x="447" y="586" style="font-size:10px;font-weight:none;stroke:none; fill:#333399" text-anchor="left" /></g><g componentSequence="20"><text x="542" y="530" style="font-size:10px;font-weight:none;stroke:none; fill:#333399" text-anchor="left" /></g><g componentSequence="22"><text x="452" y="203" style="font-size:10px;font-weight:none;stroke:none; fill:#333399" text-anchor="left" /></g><g componentSequence="24"><text x="632" y="202" style="font-size:10px;font-weight:none;stroke:none; fill:#333399" text-anchor="left" /></g><g componentSequence="28"><text x="580" y="448" style="font-size:10px;font-weight:none;stroke:none; fill:#333399" text-anchor="left" /></g><g componentSequence="30"><text x="273" y="447" style="font-size:10px;font-weight:none;stroke:none; fill:#333399" text-anchor="left" /></g><g componentSequence="32"><text x="249" y="87" style="font-size:10px;font-weight:none;stroke:none; fill:#333399" text-anchor="left" /></g><g componentSequence="33"><text x="351" y="142" style="font-size:10px;font-weight:none;stroke:none; fill:#333399" text-anchor="left" /></g><g componentSequence="35"><text x="351" y="268" style="font-size:10px;font-weight:none;stroke:none; fill:#333399" text-anchor="left" /></g><g componentSequence="36"><text x="504" y="321" style="font-size:10px;font-weight:none;stroke:none; fill:#333399" text-anchor="left" /></g><g componentSequence="37"><text x="351" y="387" style="font-size:10px;font-weight:none;stroke:none; fill:#333399" text-anchor="left" /></g><path style="fill:none; stroke:#000000;stroke-width:1" d="M190.0 87.0 L287.0 87.0" /><polygon style="fill:#000000; stroke:#000000;" points=" 277 82 287 87 277 92 279 87" /><path style="fill:none; stroke:#F00000;stroke-width:1" d="M394.0 203.0 L489.0 203.0" /><polygon style="fill:#F00000; stroke:#F00000;" points=" 479 198 489 203 479 208 481 203" /><polygon style="fill:#F00000; stroke:#F00000;" points=" 404 208 394 203 404 198 402 203" /><path style="fill:none; stroke:#000000;stroke-width:1" d="M341.0 238.0 L341.0 297.0" /><polygon style="fill:#000000; stroke:#000000;" points=" 346 287 341 297 336 287 341 289" /><path style="fill:none; stroke:#000000;stroke-width:1" d="M341.0 116.0 L341.0 167.0" /><polygon style="fill:#000000; stroke:#000000;" points=" 346 157 341 167 336 157 341 159" /><path style="fill:none; stroke:#000000;stroke-width:1" d="M648.0 351.0 L648.0 448.0 L394.0 448.0" /><polygon style="fill:#000000; stroke:#000000;" points=" 404 453 394 448 404 443 402 448" /><path style="fill:none; stroke:#000000;stroke-width:1" d="M394.0 324.0 L594.0 317.0" /><polygon style="fill:#000000; stroke:#000000;" points=" 584 312 594 317 584 322 586 317" /><path style="fill:none; stroke:#F00000;stroke-width:1" d="M341.0 476.0 L341.0 550.0" /><polygon style="fill:#F00000; stroke:#F00000;" points=" 346 540 341 550 336 540 341 542" /><polygon style="fill:#F00000; stroke:#F00000;" points=" 336 486 341 476 346 486 341 484" /><path style="fill:none; stroke:#000000;stroke-width:1" d="M287.0 447.0 L238.0 447.0" /><polygon style="fill:#000000; stroke:#000000;" points=" 248 452 238 447 248 442 246 447" /><path style="fill:none; stroke:#000000;stroke-width:1" d="M341.0 354.0 L341.0 419.0" /><polygon style="fill:#000000; stroke:#000000;" points=" 346 409 341 419 336 409 341 411" /><path style="fill:none; stroke:#000000;stroke-width:1" d="M394.0 586.0 L479.0 586.0" /><polygon style="fill:#000000; stroke:#000000;" points=" 469 581 479 586 469 591 471 586" /><path style="fill:none; stroke:#000000;stroke-width:1" d="M532.0 550.0 L532.0 509.0" /><polygon style="fill:#000000; stroke:#000000;" points=" 527 519 532 509 537 519 532 517" /><path style="fill:none; stroke:#000000;stroke-width:1" d="M596.0 202.0 L648.0 202.0" /><polygon style="fill:#000000; stroke:#000000;" points=" 638 197 648 202 638 207 640 202" /><defs><linearGradient xmlns:xlink="http://www.w3.org/1999/xlink" xlink:href="#linearGradient66FF6696FF96B6FFB6" id="linearGradient66FF6696FF96B6FFB6_947405" x1="0" y1="70.0" x2="0" y2="105.0" gradientUnits="userSpaceOnUse" xlink:type="simple" xlink:actuate="onLoad" xlink:show="other" /><linearGradient id="linearGradient66FF6696FF96B6FFB6"><stop style="stop-color:#66FF66;stop-opacity:1;" offset="0.0" id="stop66FF66" /><stop style="stop-color:#96FF96;stop-opacity:1;" offset="0.5" id="stop96FF96" /><stop style="stop-color:#B6FFB6;stop-opacity:1;" offset="1.0" id="stopB6FFB6" /></linearGradient><linearGradient xmlns:xlink="http://www.w3.org/1999/xlink" xlink:href="#linearGradientF8FBFEEDF5FCDEEDFAD4E7F8E2E5E9" id="linearGradientF8FBFEEDF5FCDEEDFAD4E7F8E2E5E9_13207804" x1="0" y1="168.0" x2="0" y2="274.0" gradientUnits="userSpaceOnUse" xlink:type="simple" xlink:actuate="onLoad" xlink:show="other" /><linearGradient id="linearGradientF8FBFEEDF5FCDEEDFAD4E7F8E2E5E9"><stop style="stop-color:#F8FBFE;stop-opacity:1;" offset="0.0" id="stopF8FBFE" /><stop style="stop-color:#EDF5FC;stop-opacity:1;" offset="0.25" id="stopEDF5FC" /><stop style="stop-color:#DEEDFA;stop-opacity:1;" offset="0.5" id="stopDEEDFA" /><stop style="stop-color:#D4E7F8;stop-opacity:1;" offset="0.75" id="stopD4E7F8" /><stop style="stop-color:#E2E5E9;stop-opacity:1;" offset="1.0" id="stopE2E5E9" /></linearGradient><linearGradient xmlns:xlink="http://www.w3.org/1999/xlink" xlink:href="#linearGradientF8FBFEEDF5FCDEEDFAD4E7F8E2E5E9" id="linearGradientF8FBFEEDF5FCDEEDFAD4E7F8E2E5E9_16129981" x1="0" y1="281.0" x2="0" y2="387.0" gradientUnits="userSpaceOnUse" xlink:type="simple" xlink:actuate="onLoad" xlink:show="other" /><linearGradient xmlns:xlink="http://www.w3.org/1999/xlink" xlink:href="#linearGradientF8FBFEEDF5FCDEEDFAD4E7F8E2E5E9" id="linearGradientF8FBFEEDF5FCDEEDFAD4E7F8E2E5E9_32801479" x1="0" y1="420.0" x2="0" y2="526.0" gradientUnits="userSpaceOnUse" xlink:type="simple" xlink:actuate="onLoad" xlink:show="other" /><linearGradient xmlns:xlink="http://www.w3.org/1999/xlink" xlink:href="#linearGradientF8FBFEEDF5FCDEEDFAD4E7F8E2E5E9" id="linearGradientF8FBFEEDF5FCDEEDFAD4E7F8E2E5E9_4009384" x1="0" y1="551.0" x2="0" y2="657.0" gradientUnits="userSpaceOnUse" xlink:type="simple" xlink:actuate="onLoad" xlink:show="other" /><linearGradient xmlns:xlink="http://www.w3.org/1999/xlink" xlink:href="#linearGradientF8FBFEEDF5FCDEEDFAD4E7F8E2E5E9" id="linearGradientF8FBFEEDF5FCDEEDFAD4E7F8E2E5E9_6544571" x1="0" y1="551.0" x2="0" y2="657.0" gradientUnits="userSpaceOnUse" xlink:type="simple" xlink:actuate="onLoad" xlink:show="other" /><linearGradient xmlns:xlink="http://www.w3.org/1999/xlink" xlink:href="#linearGradientFF6666FF9696FFB6B6" id="linearGradientFF6666FF9696FFB6B6_4205949" x1="0" y1="475.0" x2="0" y2="510.0" gradientUnits="userSpaceOnUse" xlink:type="simple" xlink:actuate="onLoad" xlink:show="other" /><linearGradient id="linearGradientFF6666FF9696FFB6B6"><stop style="stop-color:#FF6666;stop-opacity:1;" offset="0.0" id="stopFF6666" /><stop style="stop-color:#FF9696;stop-opacity:1;" offset="0.5" id="stopFF9696" /><stop style="stop-color:#FFB6B6;stop-opacity:1;" offset="1.0" id="stopFFB6B6" /></linearGradient><linearGradient xmlns:xlink="http://www.w3.org/1999/xlink" xlink:href="#linearGradientF8FBFEEDF5FCDEEDFAD4E7F8E2E5E9" id="linearGradientF8FBFEEDF5FCDEEDFAD4E7F8E2E5E9_31161736" x1="0" y1="168.0" x2="0" y2="274.0" gradientUnits="userSpaceOnUse" xlink:type="simple" xlink:actuate="onLoad" xlink:show="other" /><linearGradient xmlns:xlink="http://www.w3.org/1999/xlink" xlink:href="#linearGradientFF6666FF9696FFB6B6" id="linearGradientFF6666FF9696FFB6B6_14567414" x1="0" y1="185.0" x2="0" y2="220.0" gradientUnits="userSpaceOnUse" xlink:type="simple" xlink:actuate="onLoad" xlink:show="other" /><linearGradient xmlns:xlink="http://www.w3.org/1999/xlink" xlink:href="#linearGradientFF6666FF9696FFB6B6" id="linearGradientFF6666FF9696FFB6B6_2803794" x1="0" y1="430.0" x2="0" y2="465.0" gradientUnits="userSpaceOnUse" xlink:type="simple" xlink:actuate="onLoad" xlink:show="other" /><linearGradient xmlns:xlink="http://www.w3.org/1999/xlink" xlink:href="#linearGradientF8FBFEEDF5FCDEEDFAD4E7F8E2E5E9" id="linearGradientF8FBFEEDF5FCDEEDFAD4E7F8E2E5E9_21243311" x1="0" y1="60.0" x2="0" y2="166.0" gradientUnits="userSpaceOnUse" xlink:type="simple" xlink:actuate="onLoad" xlink:show="other" /><linearGradient xmlns:xlink="http://www.w3.org/1999/xlink" xlink:href="#linearGradientF8FBFEEDF5FCDEEDFAD4E7F8E2E5E9" id="linearGradientF8FBFEEDF5FCDEEDFAD4E7F8E2E5E9_26551538" x1="0" y1="298.0" x2="0" y2="404.0" gradientUnits="userSpaceOnUse" xlink:type="simple" xlink:actuate="onLoad" xlink:show="other" /></defs></svg>
